STARTFONT 2.1
COMMENT
COMMENT Converted from OpenType font "Vollda-Bold.otf" by "otf2bdf 3.0".
COMMENT
FONT -FreeType-Vollda-Bold-R-Normal--50-360-100-100-P-274-ISO10646-1
SIZE 36 100 100
FONTBOUNDINGBOX 160 70 -9 -15
STARTPROPERTIES 19
FOUNDRY "FreeType"
FAMILY_NAME "Vollda"
WEIGHT_NAME "Bold"
SLANT "R"
SETWIDTH_NAME "Normal"
ADD_STYLE_NAME ""
PIXEL_SIZE 50
POINT_SIZE 360
RESOLUTION_X 100
RESOLUTION_Y 100
SPACING "P"
AVERAGE_WIDTH 274
CHARSET_REGISTRY "ISO10646"
CHARSET_ENCODING "1"
FONT_ASCENT 47
FONT_DESCENT 22
COPYRIGHT "Copyright 2023 Vollda (https://github.com/alexburba/vollda)"
_OTF_FONTFILE "Vollda-Bold.otf"
_OTF_PSNAME "Vollda-Bold"
ENDPROPERTIES
CHARS 1220
STARTCHAR 0000
ENCODING 0
SWIDTH 0 0
DWIDTH 0 0
BBX 0 0 0 0
BITMAP
ENDCHAR
STARTCHAR 000D
ENCODING 13
SWIDTH 200 0
DWIDTH 10 0
BBX 0 0 0 0
BITMAP
ENDCHAR
STARTCHAR 0020
ENCODING 32
SWIDTH 200 0
DWIDTH 10 0
BBX 0 0 0 0
BITMAP
ENDCHAR
STARTCHAR 0021
ENCODING 33
SWIDTH 400 0
DWIDTH 20 0
BBX 8 36 6 0
BITMAP
03
1F
FF
FF
FF
7F
7F
7F
7F
7E
7E
7E
7E
3E
3E
3E
3E
3E
3E
3E
3C
3C
3C
3C
00
00
00
00
00
3E
7F
FF
FF
FF
7F
3E
ENDCHAR
STARTCHAR 0022
ENCODING 34
SWIDTH 360 0
DWIDTH 18 0
BBX 13 14 3 22
BITMAP
1810
F8F8
F8F8
F8F8
F8F8
78F8
78F0
7870
7870
7070
7070
7070
7070
3070
ENDCHAR
STARTCHAR 0023
ENCODING 35
SWIDTH 600 0
DWIDTH 30 0
BBX 28 36 1 0
BITMAP
00100200
003C0780
003C0780
003C0700
00380700
00380700
00380F00
00780F00
00780E00
00700E00
00700E00
1FFFFFF0
1FFFFFF0
1FFFFFF0
00E01C00
00E01C00
00E03C00
01E03C00
01E03C00
01C03800
01C03800
01C07800
03C07800
7FFFFFC0
FFFFFFC0
FFFFFFC0
03807000
0780F000
0780F000
0700E000
0700E000
0700E000
0F01E000
0F01E000
0E01C000
0E01C000
ENDCHAR
STARTCHAR 0024
ENCODING 36
SWIDTH 540 0
DWIDTH 27 0
BBX 24 41 2 -4
BITMAP
003C00
003C00
003C00
01FFC0
07FFF8
0FFFFC
1FBFFC
3F3CFC
3E3CFC
7E3C7C
7E3C7C
7E3C7C
7F3C78
7FBC00
7FFC00
7FFC00
3FFE00
3FFF80
1FFFE0
0FFFF0
07FFF8
03FFFC
00FFFE
003FFE
003FFF
003BFF
3838FF
7C387F
7C387F
7C387F
7C387F
7E387E
7E38FE
7FB9FC
FFFFF8
3FFFF0
07FFC0
003C00
003C00
003C00
003C00
ENDCHAR
STARTCHAR 0025
ENCODING 37
SWIDTH 860 0
DWIDTH 43 0
BBX 35 34 4 0
BITMAP
03E0000700
0FF8000F80
1FFC000F00
3E3E001E00
7C3F003C00
7C1F007800
781F00F800
F81F01F000
F81F01E000
F81F03C000
7C1F078000
7C1F0F0000
7E3E1F0000
3FFC3E0000
1FF83C0000
07E0780000
0000F00000
0001E00000
0003E00000
0007C1FE00
000787FF00
000F07DF80
001E0F87C0
003C1F07C0
007C1F03E0
00F81F03E0
00F01F03E0
01E01F03E0
03C01F03C0
07801F07C0
0F800F87C0
1F000FFF80
1E0007FF00
1C0001FE00
ENDCHAR
STARTCHAR 0026
ENCODING 38
SWIDTH 760 0
DWIDTH 38 0
BBX 33 37 3 -1
BITMAP
001FE00000
00FFFC0000
01FFFE0000
03F8FE0000
07F07E0000
07F03E0000
07F03E0000
07F01E0000
07F01E0000
07F0000000
07F0000000
07F8000000
03F8000000
03FC03FF00
01FE03FF00
03FE03FF00
07FF00FC00
0FFF807800
3F7FC07800
3F3FE07000
7E1FE07000
7E1FF0F000
FE0FF8E000
FE07FCE000
FE03FFC000
FE01FFC000
FE00FF8000
FE007FC000
FE007FC000
FF003FE000
FF803FF000
7FC07FFC00
3FFBFFFF80
3FFFF3FF80
0FFFE3FF80
07FF81FF80
0030000000
ENDCHAR
STARTCHAR 0027
ENCODING 39
SWIDTH 220 0
DWIDTH 11 0
BBX 5 14 3 22
BITMAP
18
F8
F8
F8
F8
78
78
78
78
78
70
70
70
30
ENDCHAR
STARTCHAR 0028
ENCODING 40
SWIDTH 320 0
DWIDTH 16 0
BBX 12 51 2 -14
BITMAP
0060
00E0
01E0
01C0
03C0
0780
0780
0F00
0F00
1F00
1E00
3E00
3E00
3E00
7C00
7C00
7C00
FC00
FC00
FC00
FC00
FC00
FC00
FC00
FC00
FC00
FC00
FC00
FC00
FC00
FC00
FC00
7C00
7C00
7C00
7E00
3E00
3E00
3E00
1F00
1F00
0F00
0F00
0780
0780
03C0
03C0
01E0
00E0
0070
0040
ENDCHAR
STARTCHAR 0029
ENCODING 41
SWIDTH 320 0
DWIDTH 16 0
BBX 12 51 2 -14
BITMAP
6000
7000
7800
3800
3C00
1E00
1E00
0F00
0F00
0F80
0780
07C0
07C0
07E0
03E0
03E0
03F0
03F0
03F0
03F0
03F0
03F0
03F0
03F0
03F0
03F0
03F0
03F0
03F0
03F0
03F0
03F0
03F0
03E0
03E0
03E0
07C0
07C0
07C0
0780
0F80
0F00
0F00
1E00
1E00
1C00
3C00
7800
7000
F000
2000
ENDCHAR
STARTCHAR 002A
ENCODING 42
SWIDTH 460 0
DWIDTH 23 0
BBX 18 18 3 20
BITMAP
00F800
00F800
20F000
70F000
78E000
FCE080
FEC7C0
0FFFC0
03FFC0
03FFC0
0FE040
3EF000
7E7000
7C7800
387C00
107E00
007800
002000
ENDCHAR
STARTCHAR 002B
ENCODING 43
SWIDTH 540 0
DWIDTH 27 0
BBX 23 25 2 0
BITMAP
003C00
003C00
003C00
003C00
003C00
003C00
003C00
003C00
003C00
003C00
7FFFFE
FFFFFE
FFFFFE
FFFFFE
003C00
003C00
003C00
003C00
003C00
003C00
003C00
003C00
003C00
003C00
003800
ENDCHAR
STARTCHAR 002C
ENCODING 44
SWIDTH 280 0
DWIDTH 14 0
BBX 8 15 3 -8
BITMAP
0F
7F
7F
7F
FF
FF
1F
1F
1F
1E
1E
3C
38
78
F0
ENDCHAR
STARTCHAR 002D
ENCODING 45
SWIDTH 400 0
DWIDTH 20 0
BBX 15 4 3 11
BITMAP
7FFE
FFFE
FFFE
FFFC
ENDCHAR
STARTCHAR 002E
ENCODING 46
SWIDTH 280 0
DWIDTH 14 0
BBX 8 8 3 0
BITMAP
3C
7F
FF
FF
FF
FF
FF
7E
ENDCHAR
STARTCHAR 002F
ENCODING 47
SWIDTH 380 0
DWIDTH 19 0
BBX 16 36 2 0
BITMAP
0004
000F
000E
001E
001E
001C
003C
003C
0038
0078
0070
00F0
00F0
00E0
01E0
01E0
01C0
03C0
0380
0780
0780
0700
0F00
0F00
0E00
1E00
1E00
3C00
3C00
3800
7800
7800
7000
F000
F000
E000
ENDCHAR
STARTCHAR 0030
ENCODING 48
SWIDTH 600 0
DWIDTH 30 0
BBX 27 25 2 0
BITMAP
00FFE000
03FFF800
0FFFFE00
1FC1FF00
3F80FF80
3F007F80
7F003FC0
7E003FC0
FE001FE0
FE001FE0
FE001FE0
FE000FE0
FE000FE0
FE000FE0
FE000FE0
FF000FE0
FF000FC0
7F001FC0
7F801FC0
3FC01F80
3FE03F00
1FF0FF00
0FFFFC00
03FFF800
00FFE000
ENDCHAR
STARTCHAR 0031
ENCODING 49
SWIDTH 400 0
DWIDTH 20 0
BBX 14 25 3 0
BITMAP
FFFC
FFFC
FFFC
3FF0
1FE0
1FE0
1FE0
1FE0
1FE0
1FE0
1FE0
1FE0
1FE0
1FE0
1FE0
1FE0
1FE0
1FE0
1FE0
1FE0
1FE0
3FF0
FFFC
FFFC
FFFC
ENDCHAR
STARTCHAR 0032
ENCODING 50
SWIDTH 520 0
DWIDTH 26 0
BBX 22 25 2 0
BITMAP
07FF80
3FFFC0
7FFFE0
3E0FF0
3E07F0
3C07F0
3C07F0
3C07F0
3807F0
0007E0
000FE0
001FC0
003F80
007E00
00FC00
01F800
03E038
07C078
0F81F8
3FFFF8
7FFFF8
FFFFF8
FFFFFC
7FFFFC
7FFFF8
ENDCHAR
STARTCHAR 0033
ENCODING 51
SWIDTH 500 0
DWIDTH 25 0
BBX 22 34 2 -9
BITMAP
7FFFF0
7FFFF0
7FFFF8
7FFFF0
7FFFE0
7FFFE0
7C07C0
780F80
700F00
301E00
003E00
007C00
007800
00F000
01FF80
03FFC0
03FFF0
03FFF0
003FF8
000FF8
0007F8
0003FC
0003FC
0003F8
0003F8
0003F8
0007F8
0007F0
000FF0
E03FE0
FFFFC0
FFFF00
3FFC00
03C000
ENDCHAR
STARTCHAR 0034
ENCODING 52
SWIDTH 600 0
DWIDTH 30 0
BBX 27 33 1 -9
BITMAP
00007C00
0000FC00
0001FC00
0003FC00
0007FC00
0007FC00
000FFC00
001FFC00
003DFC00
0079FC00
0079FC00
00F1FC00
01E1FC00
03E1FC00
03C1FC00
0781FC00
0F01FC00
1F01FC00
3E01FC00
3FFFFFE0
7FFFFFE0
FFFFFFE0
7FFFFFE0
7FFFFFE0
7FFFFFE0
0001FC00
0001FC00
0001FC00
0001FC00
0001FC00
0001FC00
0001FC00
0001F000
ENDCHAR
STARTCHAR 0035
ENCODING 53
SWIDTH 480 0
DWIDTH 24 0
BBX 20 37 2 -9
BITMAP
0000E0
0000E0
0001E0
0FFFE0
1FFFE0
1FFFE0
1FFFE0
1FFFE0
1FFFE0
3C0000
380000
380000
380000
7C0000
7FC000
7FF800
7FFE00
7FFF00
7FFF80
0FFFC0
01FFE0
007FE0
001FF0
000FF0
000FF0
000FF0
0007F0
000FF0
000FE0
000FE0
001FE0
001FC0
007F80
FFFF00
FFFC00
7FF000
020000
ENDCHAR
STARTCHAR 0036
ENCODING 54
SWIDTH 540 0
DWIDTH 27 0
BBX 24 32 2 0
BITMAP
0000F0
000FF0
003FF0
00FF80
01FE00
03F800
07F000
0FE000
1FC000
3F8000
3F8000
7F0000
7F0F00
7FFFE0
FFFFF8
FFFFFC
FF07FC
FE01FE
FE01FE
FE00FF
FE00FF
FE00FF
FE007F
FE007F
FF00FE
7F00FE
7F00FE
7F81FC
3FC3F8
1FFFF0
0FFFE0
03FF80
ENDCHAR
STARTCHAR 0037
ENCODING 55
SWIDTH 460 0
DWIDTH 23 0
BBX 20 34 2 -9
BITMAP
7FFFF0
FFFFF0
FFFFF0
FFFFF0
FFFFE0
FFFFE0
FE03C0
F80380
F00780
F00F00
000F00
001E00
001E00
003C00
007C00
007800
00F800
00F800
01F000
01F000
03F000
03F000
07F000
07E000
07E000
0FE000
0FE000
0FE000
0FE000
0FE000
0FE000
0F8000
0E0000
040000
ENDCHAR
STARTCHAR 0038
ENCODING 56
SWIDTH 540 0
DWIDTH 27 0
BBX 23 32 2 0
BITMAP
00FE00
07FFC0
0FFFF0
1FC3F8
3F83F8
3F01FC
3F01FC
7F01FC
7F81FC
3F81F8
3FE1F8
3FF3F0
1FFFE0
0FFFC0
07FF80
03FFC0
07FFF0
0FFFF8
1F9FF8
3F07FC
7F03FC
7E01FE
7E01FE
FE00FE
FE00FE
FE00FE
7F00FE
7F01FC
7F81FC
3FFFF8
1FFFF0
03FFC0
ENDCHAR
STARTCHAR 0039
ENCODING 57
SWIDTH 540 0
DWIDTH 27 0
BBX 24 33 2 -8
BITMAP
01FF80
07FFE0
1FFFF8
3FC3F8
7F01FC
7F01FE
FE00FE
FE00FE
FE00FF
FE007F
FE007F
FE007F
FE007F
FF007F
FF007F
7FC07F
7FF1FF
3FFFFE
0FFFFE
07FEFE
0001FC
0001FC
0003F8
0003F8
0007F0
000FE0
001FC0
007F80
00FF00
03FC00
1FF800
3FE000
3F0000
ENDCHAR
STARTCHAR 003A
ENCODING 58
SWIDTH 280 0
DWIDTH 14 0
BBX 8 22 3 0
BITMAP
3E
7F
FF
FF
FF
FF
7E
18
00
00
00
00
00
00
3E
7F
FF
FF
FF
FF
7E
18
ENDCHAR
STARTCHAR 003B
ENCODING 59
SWIDTH 280 0
DWIDTH 14 0
BBX 8 31 4 -9
BITMAP
7C
FE
FF
FF
FF
FE
7E
10
00
00
00
00
00
00
00
00
1E
FE
FF
FF
FF
FF
3E
3E
1E
3C
3C
78
78
F0
E0
ENDCHAR
STARTCHAR 003C
ENCODING 60
SWIDTH 540 0
DWIDTH 27 0
BBX 21 25 3 0
BITMAP
000070
0001F8
0007F8
000FE0
003F80
00FE00
01FC00
07F000
1FC000
3F0000
FE0000
F80000
F80000
FE0000
7F8000
1FE000
07F800
01FC00
007F00
001FC0
000FF0
0003F0
0000F0
000070
000010
ENDCHAR
STARTCHAR 003D
ENCODING 61
SWIDTH 540 0
DWIDTH 27 0
BBX 22 12 3 7
BITMAP
FFFFFC
FFFFFC
FFFFFC
FFFFF8
000000
000000
000000
000000
000000
FFFFFC
FFFFFC
FFFFFC
ENDCHAR
STARTCHAR 003E
ENCODING 62
SWIDTH 540 0
DWIDTH 27 0
BBX 20 25 4 0
BITMAP
700000
FC0000
FE0000
3F8000
0FC000
07F000
01FC00
007E00
003F80
000FC0
0003F0
0001F0
0000F0
0003F0
000FE0
003F80
00FE00
01FC00
07F000
1FC000
7F0000
FE0000
F80000
600000
400000
ENDCHAR
STARTCHAR 003F
ENCODING 63
SWIDTH 520 0
DWIDTH 26 0
BBX 17 36 6 0
BITMAP
07E000
3FFE00
FFFF00
FC7F80
F83F80
F83F80
F03F80
F03F80
F03F80
703F80
007F00
007F00
00FE00
01FC00
03F800
07F000
07E000
07E000
07C000
07C000
07C000
07C000
07C000
03C000
03C000
010000
000000
000000
01E000
07F000
0FF800
0FF800
0FF800
0FF800
07F000
03E000
ENDCHAR
STARTCHAR 0040
ENCODING 64
SWIDTH 980 0
DWIDTH 49 0
BBX 40 43 5 -10
BITMAP
00007FE000
0007FFFE00
001FFFFF80
007F003FC0
00F80007E0
01E00001F0
03C00000F8
078000007C
0F0000003C
1E0000001E
1E01FFFC1E
3C03FFFC0E
3C07FFFC0F
780FC1FC0F
781F80FC0F
781F80FC0F
703F00FC0F
F03F00FC0F
F03F00FC0F
F07F01FC0F
F07F01FC0E
F07F01FC0E
F07F01FC0E
F07F03FC0E
F07F03FC1C
F07F03FC1C
F87F87FE38
787F86FE38
783FDEFE70
783FFCFFE0
7C1FFCFFE0
3C1FF8FF80
3E0FE07F00
1F00000000
1F00000000
0F80000018
07E000003C
03F00000F8
01FC0003F0
00FF803FE0
003FFFFF80
000FFFFE00
0001FFE000
ENDCHAR
STARTCHAR 0041
ENCODING 65
SWIDTH 700 0
DWIDTH 35 0
BBX 34 34 1 0
BITMAP
0001C00000
0003C00000
0003E00000
0007E00000
0007F00000
0007F00000
000FF80000
000FF80000
001FFC0000
001FFC0000
001DFC0000
0039FE0000
0039FE0000
0070FF0000
0070FF0000
00707F8000
00E07F8000
00E07FC000
01E03FC000
01C03FC000
03C01FE000
03801FE000
03FFFFF000
07FFFFF000
07FF8FF800
0F0007F800
0E0007FC00
0E0003FC00
1E0003FE00
1E0003FE00
3E0003FF00
FF800FFF80
FFC00FFFC0
FFC00FFFC0
ENDCHAR
STARTCHAR 0042
ENCODING 66
SWIDTH 660 0
DWIDTH 33 0
BBX 29 34 2 0
BITMAP
FFFFF000
FFFFFF00
FFFFFF80
3FE0FFC0
1FE03FE0
0FE01FE0
0FE01FE0
0FE01FE0
0FE00FE0
0FE00FE0
0FE01FE0
0FE01FC0
0FE01FC0
0FE03F80
0FE0FE00
0FFFF000
0FFFFF00
0FFFFFC0
0FE07FE0
0FE01FF0
0FE00FF8
0FE00FF8
0FE007F8
0FE007F8
0FE007F8
0FE007F8
0FE007F8
0FE007F8
0FF00FF0
1FF01FF0
1FF83FE0
FFFFFFC0
FFFFFF00
FFFFF800
ENDCHAR
STARTCHAR 0043
ENCODING 67
SWIDTH 640 0
DWIDTH 32 0
BBX 28 34 2 0
BITMAP
001FFE00
007FFFC0
01FFFFF0
03F80FF0
0FF003E0
0FE003E0
1FC001E0
3F8001E0
3F8001E0
7F0001E0
7F0001C0
FF000000
FF000000
FF000000
FF000000
FF000000
FF000000
FF000000
FF000000
FF000000
FF000000
FF000000
FF800000
7F800000
7F800000
3FC00000
3FE00000
1FF00000
1FF80030
0FFC00F0
07FFDFF0
01FFFFE0
00FFFF80
001FFE00
ENDCHAR
STARTCHAR 0044
ENCODING 68
SWIDTH 720 0
DWIDTH 36 0
BBX 33 34 2 0
BITMAP
FFFFF00000
FFFFFF0000
FFFFFFC000
3FE03FF000
1FE00FF800
0FE007FC00
0FE003FE00
0FE001FE00
0FE000FF00
0FE000FF00
0FE000FF00
0FE0007F80
0FE0007F80
0FE0007F80
0FE0007F80
0FE0007F80
0FE0007F80
0FE0007F80
0FE0007F80
0FE0007F80
0FE0007F80
0FE0007F00
0FE0007F00
0FE0007F00
0FE000FE00
0FE000FE00
0FE001FC00
0FE001FC00
0FF003F800
1FF007F000
1FF81FE000
FFFFFF8000
FFFFFE0000
FFFFF00000
ENDCHAR
STARTCHAR 0045
ENCODING 69
SWIDTH 620 0
DWIDTH 31 0
BBX 28 34 2 0
BITMAP
FFFFFF80
FFFFFF80
FFFFFF80
3FE03F80
1FE00F80
0FE007C0
0FE003C0
0FE003C0
0FE003C0
0FE00000
0FE00000
0FE01800
0FE03800
0FE07800
0FE07800
0FE3F800
0FFFF800
0FFFF800
0FFFF800
0FE07800
0FE07800
0FE03800
0FE03800
0FE00000
0FE00080
0FE000E0
0FE001F0
0FE001E0
0FF003E0
1FF007E0
1FF81FE0
FFFFFFE0
FFFFFFC0
FFFFFFC0
ENDCHAR
STARTCHAR 0046
ENCODING 70
SWIDTH 580 0
DWIDTH 29 0
BBX 26 34 2 0
BITMAP
FFFFFF80
FFFFFF80
FFFFFF80
3FE03F80
1FE00FC0
0FE007C0
0FE003C0
0FE003C0
0FE003C0
0FE00000
0FE00000
0FE00000
0FE00000
0FE03C00
0FE03C00
0FE03C00
0FE07C00
0FFFFC00
0FFFFC00
0FFFFC00
0FE07C00
0FE03C00
0FE03C00
0FE01C00
0FE00000
0FE00000
0FE00000
0FE00000
0FF00000
1FF00000
1FFC0000
FFFF0000
FFFF8000
FFFF8000
ENDCHAR
STARTCHAR 0047
ENCODING 71
SWIDTH 700 0
DWIDTH 35 0
BBX 31 34 2 0
BITMAP
000FFF00
007FFFE0
01FFFFF8
03FC07F8
0FF001F8
1FE000F8
1FC000F8
3F8000F8
7F800078
7F800078
7F000040
FF000000
FF000000
FF000000
FF000000
FF000000
FF000000
FF000000
FF003FFE
FF003FFE
FF001FFE
FF0003F8
FF0003F8
7F8001F8
7F8001F8
7FC001F8
3FC001F8
1FE001F8
1FF001F8
0FF803F8
07FC07FC
03FFFFF8
00FFFFE0
001FFF00
ENDCHAR
STARTCHAR 0048
ENCODING 72
SWIDTH 760 0
DWIDTH 38 0
BBX 35 34 2 0
BITMAP
FFFE0FFFE0
FFFE0FFFE0
FFFE0FFFE0
3FF803FF80
1FF001FF00
0FE001FE00
0FE000FE00
0FE000FE00
0FE000FE00
0FE000FE00
0FE000FE00
0FE000FE00
0FE000FE00
0FE000FE00
0FE000FE00
0FFFFFFE00
0FFFFFFE00
0FFFFFFE00
0FF000FE00
0FE000FE00
0FE000FE00
0FE000FE00
0FE000FE00
0FE000FE00
0FE000FE00
0FE000FE00
0FE000FE00
0FE000FE00
0FE000FE00
1FF001FF00
1FF001FF00
FFFE0FFFE0
FFFE0FFFE0
FFFE0FFFE0
ENDCHAR
STARTCHAR 0049
ENCODING 73
SWIDTH 380 0
DWIDTH 19 0
BBX 15 34 2 0
BITMAP
FFFE
FFFE
FFFE
3FF8
1FF0
0FE0
0FE0
0FE0
0FE0
0FE0
0FE0
0FE0
0FE0
0FE0
0FE0
0FE0
0FE0
0FE0
0FE0
0FE0
0FE0
0FE0
0FE0
0FE0
0FE0
0FE0
0FE0
0FE0
0FE0
1FF0
1FF0
FFFE
FFFE
FFFE
ENDCHAR
STARTCHAR 004A
ENCODING 74
SWIDTH 360 0
DWIDTH 18 0
BBX 16 46 0 -12
BITMAP
7FFF
3FFF
3FFF
0FFC
07F8
07F8
07F8
07F8
07F8
07F8
07F8
07F8
07F8
07F8
07F8
07F8
07F8
07F8
07F8
07F8
07F8
07F8
07F8
07F8
07F8
07F8
07F8
07F8
07F8
07F8
07F8
07F0
07F0
07F0
07F0
07F0
07F0
0FE0
0FE0
0FC0
1F80
3F80
7F00
FC00
F800
E000
ENDCHAR
STARTCHAR 004B
ENCODING 75
SWIDTH 720 0
DWIDTH 36 0
BBX 33 34 2 0
BITMAP
FFFE0FFE00
FFFE0FFE00
FFFE0FFE00
3FF807F800
1FF007E000
0FE007C000
0FE00F8000
0FE01F0000
0FE03E0000
0FE07C0000
0FE0F80000
0FE1F00000
0FE3E00000
0FE7C00000
0FEFC00000
0FFFC00000
0FFFE00000
0FFFF00000
0FFFF80000
0FEFFC0000
0FE7FC0000
0FE3FE0000
0FE1FF0000
0FE0FF8000
0FE0FF8000
0FE07FC000
0FE03FE000
0FE03FE000
0FE01FF000
1FF00FF800
1FF00FFE00
FFFE07FF80
FFFE03FF80
FFFE03FF80
ENDCHAR
STARTCHAR 004C
ENCODING 76
SWIDTH 600 0
DWIDTH 30 0
BBX 27 34 2 0
BITMAP
FFFE0000
FFFE0000
FFFE0000
3FF80000
1FF00000
0FE00000
0FE00000
0FE00000
0FE00000
0FE00000
0FE00000
0FE00000
0FE00000
0FE00000
0FE00000
0FE00000
0FE00000
0FE00000
0FE00000
0FE00000
0FE00000
0FE00000
0FE00000
0FE00000
0FE00000
0FE001E0
0FE001E0
0FE003E0
0FF003E0
1FF007C0
1FF81FC0
FFFFFFC0
FFFFFFC0
FFFFFFC0
ENDCHAR
STARTCHAR 004D
ENCODING 77
SWIDTH 960 0
DWIDTH 48 0
BBX 46 34 1 0
BITMAP
3FF800007FF0
3FFC00007FF0
1FFC0000FFF0
07FE0000FFC0
03FE0000FF80
03FF0001FF80
03FF0001FF00
03FF8003FF00
03FF8003FF80
03FF8003FF80
03BFC007FF80
03BFC0077F80
03BFE00F7F80
079FE00E7F80
079FF00E3F80
078FF01E3F80
078FF01C3F80
0707F81C3F80
0707F8383FC0
0703FC383FC0
0703FC783FC0
0703FE703FC0
0701FE703FC0
0701FFE03FC0
0F00FFE01FC0
0F00FFE01FC0
0F007FC01FC0
0F007FC01FE0
0F003F801FE0
1F003F801FE0
3F803F803FF0
FFE01F00FFFC
FFE01F01FFFC
FFE00E01FFFC
ENDCHAR
STARTCHAR 004E
ENCODING 78
SWIDTH 720 0
DWIDTH 36 0
BBX 33 34 2 0
BITMAP
FFC003FF80
FFE003FF00
FFE003FF00
3FF000FE00
1FF8007C00
0FFC003C00
0FFC003800
0FFE003800
0FFF003800
0FFF803800
0EFF803800
0E7FC03800
0E7FE03800
0E3FF03800
0E1FF03800
0E0FF83800
0E0FFC3800
0E07FC3800
0E03FE3800
0E01FF3800
0E01FFB800
0E00FFB800
0E007FF800
0E003FF800
0E003FF800
0E001FF800
0E000FF800
0E0007F800
1E0007F800
1F0003F800
3F8001F800
FFE000F800
FFE000F800
FFE0007800
ENDCHAR
STARTCHAR 004F
ENCODING 79
SWIDTH 740 0
DWIDTH 37 0
BBX 34 34 2 0
BITMAP
001FFC0000
007FFF8000
01FFFFE000
03F81FF000
0FE007F800
0FC003FC00
1FC003FE00
3F8001FE00
3F8000FF00
7F0000FF00
7F00007F80
FF00007F80
FF00007F80
FF00007F80
FF00007F80
FF00003FC0
FF00003FC0
FF00003FC0
FF00003FC0
FF00003F80
FF00003F80
FF00007F80
FF00007F80
7F80007F00
7F80007F00
3F8000FF00
3FC000FE00
1FE000FC00
1FE001FC00
0FF003F800
07FC0FF000
01FFFFE000
00FFFF8000
003FFE0000
ENDCHAR
STARTCHAR 0050
ENCODING 80
SWIDTH 620 0
DWIDTH 31 0
BBX 28 34 2 0
BITMAP
FFFFF000
FFFFFE00
FFFFFF80
3FF0FFC0
1FE03FE0
0FE01FE0
0FE01FF0
0FE00FF0
0FE00FF0
0FE00FF0
0FE00FF0
0FE00FF0
0FE00FF0
0FE00FF0
0FE00FF0
0FE00FE0
0FE01FE0
0FE01FC0
0FE07F80
0FE7FF00
0FE7FE00
0FE7F800
0FE00000
0FE00000
0FE00000
0FE00000
0FE00000
0FE00000
0FF00000
1FF00000
1FFC0000
FFFF0000
FFFF8000
FFFF8000
ENDCHAR
STARTCHAR 0051
ENCODING 81
SWIDTH 740 0
DWIDTH 37 0
BBX 37 44 2 -10
BITMAP
001FFC0000
007FFF8000
01FFFFE000
03F81FF000
0FE007F800
0FC003FC00
1FC003FE00
3F8001FE00
3F8000FF00
7F0000FF00
7F00007F80
FF00007F80
FF00007F80
FF00007F80
FF00007F80
FF00003FC0
FF00003FC0
FF00003FC0
FF00003FC0
FF00003F80
FF00003F80
FF00007F80
FF00007F80
7F80007F00
7F80007F00
3F8000FF00
3FC000FE00
1FE000FC00
1FE001FC00
0FF003F800
07FC0FF000
01FFFFE000
00FFFF8000
003FFF0000
00007FC000
00000FF000
000007F800
000003FE00
000001FFC0
000001FFF8
000000FFF8
0000007FF0
0000003F80
0000001C00
ENDCHAR
STARTCHAR 0052
ENCODING 82
SWIDTH 700 0
DWIDTH 35 0
BBX 32 34 2 0
BITMAP
FFFFF800
FFFFFF00
FFFFFFC0
3FE07FE0
1FE01FE0
0FE00FF0
0FE00FF0
0FE007F0
0FE007F8
0FE007F8
0FE007F0
0FE007F0
0FE00FF0
0FE00FF0
0FE01FE0
0FE03FC0
0FE1FF80
0FFFFF00
0FFFFC00
0FFFFC00
0FE3FE00
0FE1FF00
0FE0FF00
0FE07F80
0FE07FC0
0FE03FC0
0FE03FE0
0FE01FE0
0FE01FF0
1FF00FF8
1FF00FFC
FFFC07FF
FFFC07FF
FFFC03FF
ENDCHAR
STARTCHAR 0053
ENCODING 83
SWIDTH 540 0
DWIDTH 27 0
BBX 24 34 2 0
BITMAP
01FFC0
07FFF8
0FFFFC
1F83FC
3F00FC
3E00FC
7E007C
7E007C
7F007C
7F0078
7F8000
7FE000
7FF000
3FFE00
3FFF80
1FFFC0
0FFFF0
07FFF8
03FFFC
00FFFE
003FFE
000FFF
0003FF
3800FF
7C007F
7C007F
7C007F
7C007F
7E007E
7E00FE
7F01FC
FFFFF8
3FFFF0
07FFC0
ENDCHAR
STARTCHAR 0054
ENCODING 84
SWIDTH 640 0
DWIDTH 32 0
BBX 30 34 1 0
BITMAP
7FFFFFFC
7FFFFFFC
7FFFFFFC
7F8FE1FC
7C0FE07C
780FE07C
780FE03C
F80FE03C
F00FE03C
000FE000
000FE000
000FE000
000FE000
000FE000
000FE000
000FE000
000FE000
000FE000
000FE000
000FE000
000FE000
000FE000
000FE000
000FE000
000FE000
000FE000
000FE000
000FE000
001FE000
001FF000
003FF800
01FFFF00
01FFFF00
01FFFF00
ENDCHAR
STARTCHAR 0055
ENCODING 85
SWIDTH 680 0
DWIDTH 34 0
BBX 31 34 2 0
BITMAP
FFFC0FFE
FFFC0FFC
FFFC0FFC
7FF003F8
1FE001F0
1FE000E0
1FC000E0
1FC000E0
1FC000E0
1FC000E0
1FC000E0
1FC000E0
1FC000E0
1FC000E0
1FC000E0
1FC000E0
1FC000E0
1FC000E0
1FC000E0
1FC000E0
1FC000E0
1FC000E0
1FC000E0
1FE000E0
1FE000E0
1FE000E0
1FE001E0
0FE001E0
0FF001C0
0FF803C0
07FC0F80
03FFFF00
01FFFE00
007FFC00
ENDCHAR
STARTCHAR 0056
ENCODING 86
SWIDTH 680 0
DWIDTH 34 0
BBX 33 34 1 0
BITMAP
FFFC01FF80
FFFC01FF80
FFFC01FF80
7FF0007F00
3FE0007C00
1FE0003C00
1FF0003800
0FF0007800
0FF8007000
07F8007000
07F800F000
03FC00E000
03FC00E000
03FC01C000
01FE01C000
01FE03C000
00FF038000
00FF038000
00FF070000
007F870000
007F8F0000
003F8E0000
003FCE0000
003FDC0000
001FDC0000
001FFC0000
000FF80000
000FF80000
000FF00000
0007F00000
0007F00000
0003E00000
0003E00000
0003C00000
ENDCHAR
STARTCHAR 0057
ENCODING 87
SWIDTH 980 0
DWIDTH 49 0
BBX 48 34 1 0
BITMAP
FFFC00F007FF
FFFC00F007FF
FFFC01F007FF
7FF001F801FE
3FE001F800FC
1FE003FC0078
1FE003FC0078
1FF003FC0070
0FF007FE0070
0FF007FE00E0
0FF007FE00E0
07F80EFF00E0
07F80EFF01E0
07F81EFF81C0
03FC1C7F81C0
03FC1C7F81C0
03FC3C3FC380
01FE383FC380
01FE383FC380
01FE781FE700
00FF701FE700
00FF701FF700
00FFF00FFF00
007FE00FFE00
007FE007FE00
007FE007FE00
003FC007FC00
003FC003FC00
003FC003FC00
003F8003F800
001F8001F800
001F8001F800
001F0001F000
000F0000F000
ENDCHAR
STARTCHAR 0058
ENCODING 88
SWIDTH 700 0
DWIDTH 35 0
BBX 31 34 2 0
BITMAP
FFFE0FFE
FFFE0FFE
FFFE0FFE
3FFC03F8
1FF803F0
0FF803E0
0FF803C0
07FC0780
03FE0700
03FE0F00
01FF1E00
00FF9E00
00FFBC00
007FF800
003FF800
003FF000
001FF000
000FF000
000FF800
001FFC00
003FFC00
007BFE00
0079FF00
00F1FF00
01E0FF80
01C0FF80
03C07FC0
07803FE0
0F803FE0
1F803FF0
7F803FFC
FFE0FFFE
FFE0FFFE
FFE0FFFE
ENDCHAR
STARTCHAR 0059
ENCODING 89
SWIDTH 620 0
DWIDTH 31 0
BBX 30 34 1 0
BITMAP
FFFC0FFC
FFFC0FFC
FFFC0FFC
3FF003F0
1FF001E0
1FF001C0
0FF803C0
0FF80380
07F80780
07FC0700
03FC0700
03FE0E00
01FE0E00
01FF1E00
00FF1C00
00FFBC00
007FB800
007FB800
003FF000
003FF000
001FE000
001FE000
001FE000
001FE000
001FE000
001FE000
001FE000
001FE000
001FE000
001FE000
003FF000
03FFFE00
03FFFF00
03FFFF00
ENDCHAR
STARTCHAR 005A
ENCODING 90
SWIDTH 600 0
DWIDTH 30 0
BBX 26 34 2 0
BITMAP
3FFFFF80
3FFFFF80
3FFFFF80
3F80FF80
3E00FF00
3E01FF00
3C01FE00
3C03FE00
7C07FC00
3807FC00
000FF800
000FF800
001FF000
001FF000
003FE000
003FC000
007FC000
00FF8000
00FF8000
01FF0000
01FF0000
03FE0000
07FC0000
07FC0000
0FF80000
0FF803C0
1FF007C0
1FE007C0
3FE00780
7FC00F80
7FC03F80
FFFFFF80
FFFFFF80
7FFFFF80
ENDCHAR
STARTCHAR 005B
ENCODING 91
SWIDTH 280 0
DWIDTH 14 0
BBX 11 50 2 -13
BITMAP
FFC0
FFC0
FFE0
FE00
F800
F800
F800
F800
F800
F800
F800
F800
F800
F800
F800
F800
F800
F800
F800
F800
F800
F800
F800
F800
F800
F800
F800
F800
F800
F800
F800
F800
F800
F800
F800
F800
F800
F800
F800
F800
F800
F800
F800
F800
F800
F800
FC00
FFC0
FFC0
FFE0
ENDCHAR
STARTCHAR 005C
ENCODING 92
SWIDTH 380 0
DWIDTH 19 0
BBX 17 36 1 0
BITMAP
F00000
700000
780000
780000
380000
3C0000
1C0000
1E0000
1E0000
0E0000
0F0000
0F0000
070000
078000
038000
03C000
03C000
01C000
01E000
01E000
00E000
00F000
007000
007000
007800
003800
003C00
003C00
001C00
001E00
001E00
000E00
000F00
000700
000780
000780
ENDCHAR
STARTCHAR 005D
ENCODING 93
SWIDTH 280 0
DWIDTH 14 0
BBX 11 50 2 -13
BITMAP
FFE0
FFE0
FFE0
0FE0
07E0
03E0
03E0
03E0
03E0
03E0
03E0
03E0
03E0
03E0
03E0
03E0
03E0
03E0
03E0
03E0
03E0
03E0
03E0
03E0
03E0
03E0
03E0
03E0
03E0
03E0
03E0
03E0
03E0
03E0
03E0
03E0
03E0
03E0
03E0
03E0
03E0
03E0
03E0
03E0
03E0
03E0
07E0
FFE0
FFE0
FFE0
ENDCHAR
STARTCHAR 005E
ENCODING 94
SWIDTH 540 0
DWIDTH 27 0
BBX 23 16 2 19
BITMAP
003C00
007C00
00FE00
00FF00
01EF00
03C780
0783C0
0783C0
0F01E0
1E00F0
3C0070
780078
78003C
F0001E
E0001E
40000C
ENDCHAR
STARTCHAR 005F
ENCODING 95
SWIDTH 540 0
DWIDTH 27 0
BBX 25 3 1 -7
BITMAP
7FFFFF80
FFFFFF80
FFFFFF80
ENDCHAR
STARTCHAR 0060
ENCODING 96
SWIDTH 300 0
DWIDTH 15 0
BBX 9 9 3 27
BITMAP
3C00
FC00
7E00
3E00
3F00
1F00
0F00
0780
0780
ENDCHAR
STARTCHAR 0061
ENCODING 97
SWIDTH 500 0
DWIDTH 25 0
BBX 24 23 1 0
BITMAP
00FF80
03FFC0
07FFE0
1E1FF0
3E0FF0
7E07F0
7E07F0
FE07F0
7E07F0
000FF0
003FF0
01FFF0
07E7F0
1F87F0
3F07F0
7F07F0
7F07F0
7F07F8
7F07FC
7F87FF
7FFFFF
3FF7FF
1FE3F8
ENDCHAR
STARTCHAR 0062
ENCODING 98
SWIDTH 600 0
DWIDTH 30 0
BBX 28 36 0 0
BITMAP
00400000
0FE00000
FFE00000
FFE00000
FFE00000
1FE00000
0FE00000
0FE00000
0FE00000
0FE00000
0FE00000
0FE00000
0FE00000
0FE1FE00
0FE7FF80
0FEFFFC0
0FFFFFE0
0FF03FE0
0FE01FF0
0FE00FF0
0FE00FF0
0FE007F0
0FE007F0
0FE007F0
0FE007F0
0FE007F0
0FE007F0
0FE007F0
0FE00FE0
0FE00FE0
0FE00FC0
1FE01FC0
1FF03F80
1FFFFF00
07FFFC00
00FFF000
ENDCHAR
STARTCHAR 0063
ENCODING 99
SWIDTH 460 0
DWIDTH 23 0
BBX 20 23 2 0
BITMAP
01FF80
07FFE0
0FFFE0
1F87E0
3F03E0
7F01E0
7E01E0
FE01E0
FE0100
FE0000
FE0000
FE0000
FE0000
FE0000
FE0000
FF0000
FF0000
7F8000
7FC030
3FF1F0
1FFFF0
0FFFE0
03FF80
ENDCHAR
STARTCHAR 0064
ENCODING 100
SWIDTH 600 0
DWIDTH 30 0
BBX 27 36 2 0
BITMAP
00000200
00007F00
0003FF00
0007FF00
0007FF00
0000FF00
00007F00
00007F00
00007F00
00007F00
00007F00
00007F00
00007F00
00FFFF00
03FFFF00
0FFFFF00
1FC0FF00
3F807F00
3F007F00
7F007F00
7F007F00
FE007F00
FE007F00
FE007F00
FE007F00
FE007F00
FE007F00
FF007F00
FF007F00
FF007F00
FF807F00
7FC07FC0
7FF1FFE0
3FFFFFE0
1FFF7FE0
07FC7800
ENDCHAR
STARTCHAR 0065
ENCODING 101
SWIDTH 500 0
DWIDTH 25 0
BBX 22 23 2 0
BITMAP
01FF00
07FFC0
1FFFE0
3F87F0
3F03F0
7F03F8
7E01F8
FE01F8
FE01FC
FE01FC
FFFFFC
FFFFF8
FFFFF8
FE0000
FE0000
FF0000
FF0000
7F8000
7FC018
3FF0FC
1FFFF8
0FFFE0
03FFC0
ENDCHAR
STARTCHAR 0066
ENCODING 102
SWIDTH 380 0
DWIDTH 19 0
BBX 21 36 2 0
BITMAP
000F80
007FF8
00FFF8
03FFF8
03F1F8
07E0F8
0FE0F8
0FE0F8
0FE0E0
0FE000
1FE000
1FE000
1FE000
1FE000
FFFF00
FFFF00
FFFF00
1FE000
1FE000
1FE000
1FE000
1FE000
1FE000
1FE000
1FE000
1FE000
1FE000
1FE000
1FE000
1FE000
1FE000
1FE000
3FF800
FFFF00
FFFF00
FFFF00
ENDCHAR
STARTCHAR 0067
ENCODING 103
SWIDTH 540 0
DWIDTH 27 0
BBX 25 35 1 -12
BITMAP
03FFFF80
0FFFFF80
1FEFFF80
3F83F980
3F81FC00
7F01FC00
7F01FC00
7F01FE00
7F00FE00
7F81FC00
3F81FC00
3F81FC00
1FC3F800
1FFFF000
07FFE000
0FFF0000
1F000000
3E000000
3F000000
3FFFF000
3FFFFC00
3FFFFF00
3FFFFF00
1FFFFF00
1FFFFF80
3E3FFF80
7E003F00
7C003F00
7C003F00
FC003E00
7E007E00
7F01FC00
7FFFF000
3FFFE000
0FFF0000
ENDCHAR
STARTCHAR 0068
ENCODING 104
SWIDTH 640 0
DWIDTH 32 0
BBX 30 36 1 0
BITMAP
00400000
0FE00000
7FE00000
FFE00000
FFE00000
1FE00000
0FE00000
0FE00000
0FE00000
0FE00000
0FE00000
0FE00000
0FE00000
0FE0FE00
0FE3FF00
0FEFFF80
0FFFFFC0
0FFEFFC0
0FE01FE0
0FE01FE0
0FE00FE0
0FE00FE0
0FE00FE0
0FE00FE0
0FE00FE0
0FE00FE0
0FE00FE0
0FE00FE0
0FE00FE0
0FE00FE0
0FE00FE0
0FF01FE0
1FF01FF0
7FFC7FFC
FFFC7FFC
FFFC7FFC
ENDCHAR
STARTCHAR 0069
ENCODING 105
SWIDTH 340 0
DWIDTH 17 0
BBX 14 35 2 0
BITMAP
0200
1FC0
1FC0
3FE0
3FE0
1FC0
1FC0
0700
0000
0000
0000
0000
01C0
FFC0
FFE0
FFE0
3FE0
1FE0
1FE0
1FE0
1FE0
1FE0
1FE0
1FE0
1FE0
1FE0
1FE0
1FE0
1FE0
1FE0
1FE0
3FF0
FFFC
FFFC
FFFC
ENDCHAR
STARTCHAR 006A
ENCODING 106
SWIDTH 300 0
DWIDTH 15 0
BBX 12 47 1 -12
BITMAP
0100
0FE0
0FE0
1FF0
1FF0
1FE0
0FE0
0380
0000
0000
0000
0000
01E0
7FE0
7FE0
7FE0
1FE0
0FE0
0FE0
0FE0
0FE0
0FE0
0FE0
0FE0
0FE0
0FE0
0FE0
0FE0
0FE0
0FE0
0FE0
0FE0
0FE0
0FE0
0FE0
0FE0
0FE0
0FC0
0FC0
1FC0
1F80
3F00
3F00
7E00
FC00
F000
E000
ENDCHAR
STARTCHAR 006B
ENCODING 107
SWIDTH 620 0
DWIDTH 31 0
BBX 29 36 1 0
BITMAP
00400000
0FE00000
7FE00000
FFE00000
FFE00000
1FE00000
0FE00000
0FE00000
0FE00000
0FE00000
0FE00000
0FE00000
0FE00000
0FE07FF0
0FE07FF0
0FE07FF0
0FE03FC0
0FE03E00
0FE03C00
0FE07800
0FE0F000
0FE3E000
0FE7E000
0FEFF000
0FEFF000
0FE7F800
0FE3FC00
0FE3FE00
0FE1FF00
0FE0FF00
0FE07F80
0FE03FC0
1FF03FF0
7FFC1FF8
FFFC0FF8
FFFC07F8
ENDCHAR
STARTCHAR 006C
ENCODING 108
SWIDTH 340 0
DWIDTH 17 0
BBX 15 36 1 0
BITMAP
0040
0FE0
7FE0
FFE0
FFE0
1FE0
0FE0
0FE0
0FE0
0FE0
0FE0
0FE0
0FE0
0FE0
0FE0
0FE0
0FE0
0FE0
0FE0
0FE0
0FE0
0FE0
0FE0
0FE0
0FE0
0FE0
0FE0
0FE0
0FE0
0FE0
0FE0
0FF0
1FF0
7FFC
FFFE
FFFE
ENDCHAR
STARTCHAR 006D
ENCODING 109
SWIDTH 960 0
DWIDTH 48 0
BBX 45 23 2 0
BITMAP
01C1FC00F800
FFC7FF07FE00
FFCFFF8FFF00
FFDFFF9FFF80
3FF8FFFCFF80
1FE03FE03F80
1FE01FC03FC0
1FE01FC03FC0
1FE01FC01FC0
1FE01FC01FC0
1FE01FC01FC0
1FE01FC01FC0
1FE01FC01FC0
1FE01FC01FC0
1FE01FC01FC0
1FE01FC01FC0
1FE01FC01FC0
1FE01FC03FC0
1FE01FC03FC0
3FF03FE07FE0
FFFCFFF8FFF0
FFFCFFF9FFF8
FFFCFFF9FFF8
ENDCHAR
STARTCHAR 006E
ENCODING 110
SWIDTH 640 0
DWIDTH 32 0
BBX 29 23 2 0
BITMAP
01C1FC00
FFC7FF00
FFCFFF80
FFDFFF80
3FFEFFC0
1FE03FC0
1FE01FC0
1FE01FC0
1FE01FC0
1FE01FC0
1FE01FC0
1FE01FC0
1FE01FC0
1FE01FC0
1FE01FC0
1FE01FC0
1FE01FC0
1FE01FC0
1FE01FE0
3FF03FE0
FFFCFFF8
FFFCFFF8
FFFCFFF8
ENDCHAR
STARTCHAR 006F
ENCODING 111
SWIDTH 560 0
DWIDTH 28 0
BBX 25 23 2 0
BITMAP
01FFC000
07FFF000
0FFFF800
1F83FC00
3F01FE00
7F00FF00
7F00FF00
FE007F00
FE007F80
FE007F80
FE007F80
FE007F80
FE007F80
FE007F80
FF007F00
FF007F00
FF007F00
7F807E00
7F80FE00
3FC1FC00
1FFFF800
0FFFF000
01FFC000
ENDCHAR
STARTCHAR 0070
ENCODING 112
SWIDTH 620 0
DWIDTH 31 0
BBX 28 35 2 -12
BITMAP
01C3FE00
FFC7FF00
FFEFFF80
FFDFFFC0
3FF03FE0
1FE01FE0
1FE00FE0
1FE00FF0
1FE00FF0
1FE00FF0
1FE00FF0
1FE00FF0
1FE00FF0
1FE00FE0
1FE00FE0
1FE00FE0
1FE00FC0
1FE01FC0
1FE01F80
1FE07F00
1FFFFE00
1FFFFC00
1FFFF000
1FE00000
1FE00000
1FE00000
1FE00000
1FE00000
1FE00000
1FE00000
1FE00000
3FF80000
FFFF0000
FFFF0000
FFFF0000
ENDCHAR
STARTCHAR 0071
ENCODING 113
SWIDTH 580 0
DWIDTH 29 0
BBX 28 35 2 -12
BITMAP
00FFF000
03FFFE00
0FFFFF00
1FC0FF80
3F807F80
3F007F00
7F007F00
7F007F00
FE007F00
FE007F00
FE007F00
FE007F00
FE007F00
FE007F00
FE007F00
FE007F00
FF007F00
7F007F00
7F807F00
3FFFFF00
1FFF7F00
0FFE7F00
03F87F00
00007F00
00007F00
00007F00
00007F00
00007F00
00007F00
00007F00
0000FF80
0001FF80
000FFFE0
000FFFF0
000FFFF0
ENDCHAR
STARTCHAR 0072
ENCODING 114
SWIDTH 460 0
DWIDTH 23 0
BBX 21 23 2 0
BITMAP
01C1F0
FFC7F8
FFCFF8
FFDFF8
3FDFF0
1FFFF0
1FE0F0
1FE0F0
1FE0F0
1FE000
1FE000
1FE000
1FE000
1FE000
1FE000
1FE000
1FE000
1FE000
1FE000
3FF800
FFFF00
FFFF00
FFFF00
ENDCHAR
STARTCHAR 0073
ENCODING 115
SWIDTH 460 0
DWIDTH 23 0
BBX 19 23 2 0
BITMAP
0FFF00
1FFF80
7FFF80
7E0F80
FE0780
FE07C0
FE03C0
FF8000
FFE000
7FF800
3FFE00
1FFF80
0FFFC0
01FFE0
007FE0
F01FE0
F00FE0
F80FE0
F80FE0
FC1FE0
FFFFC0
FFFF80
3FFE00
ENDCHAR
STARTCHAR 0074
ENCODING 116
SWIDTH 360 0
DWIDTH 18 0
BBX 17 31 1 0
BITMAP
00C000
01C000
1FC000
1FC000
1FC000
1FC000
1FC000
1FC000
1FC000
FFFF00
FFFF00
FFFF00
1FC000
1FC000
1FC000
1FC000
1FC000
1FC000
1FC000
1FC000
1FC000
1FC000
1FC000
1FC000
1FC000
1FE000
0FE000
0FF100
0FFF80
07FF80
03FE00
ENDCHAR
STARTCHAR 0075
ENCODING 117
SWIDTH 600 0
DWIDTH 30 0
BBX 28 23 1 0
BITMAP
03C00780
FFC1FF80
FFC1FF80
FFC3FF80
3FC07F80
1FC03F80
1FC03F80
1FC03F80
1FC03F80
1FC03F80
1FC03F80
1FC03F80
1FC03F80
1FC03F80
1FC03F80
1FC03F80
1FC03F80
1FE03FC0
1FF03FE0
0FFEFFF0
0FFFFFF0
07FFBFF0
03FE3C00
ENDCHAR
STARTCHAR 0076
ENCODING 118
SWIDTH 540 0
DWIDTH 27 0
BBX 26 23 1 -1
BITMAP
FFFCFFC0
FFF87FC0
FFF87FC0
7FE01F00
3FE01E00
1FE01E00
1FE01C00
0FF01C00
0FF03800
07F83800
07F87800
03F87000
03FCF000
01FCE000
01FEE000
00FFC000
00FFC000
00FF8000
007F8000
007F8000
003F0000
003F0000
001E0000
ENDCHAR
STARTCHAR 0077
ENCODING 119
SWIDTH 780 0
DWIDTH 39 0
BBX 38 23 1 0
BITMAP
FFF81E0FFC
FFF81E0FFC
FFF83E07F8
7FE03F03F0
3FC03F01E0
1FE07F81E0
1FE07F81C0
0FE0FFC1C0
0FF0FFC1C0
0FF0FFC380
07F1FFE380
07F1CFE380
07FBCFE700
03FB87F700
03FB87F700
03FF07FE00
01FF03FE00
01FF03FE00
01FE01FC00
00FE01FC00
00FC01FC00
00FC00F800
007800F800
ENDCHAR
STARTCHAR 0078
ENCODING 120
SWIDTH 560 0
DWIDTH 28 0
BBX 26 23 1 0
BITMAP
7FFCFF80
7FFCFF80
7FFC7F80
1FF03E00
0FF83C00
07F87C00
07FC7800
03FCF000
01FFE000
00FFE000
00FFC000
007FC000
00FFE000
01FFE000
01EFF000
03CFF800
07C7F800
0787FC00
0F83FE00
1F83FF00
7FCFFFC0
FFCFFFC0
FFCFFFC0
ENDCHAR
STARTCHAR 0079
ENCODING 121
SWIDTH 560 0
DWIDTH 28 0
BBX 26 35 1 -12
BITMAP
FFFC7FC0
FFFC7FC0
FFFC7FC0
7FF01F80
3FE01F00
1FE01E00
0FE01E00
0FF01C00
0FF03C00
07F83800
07F83800
03FC7800
03FC7000
01FEF000
01FEE000
00FEE000
00FFC000
007FC000
007FC000
003F8000
003F8000
003F0000
001F0000
001F0000
000E0000
001E0000
001C0000
003C0000
00780000
7BF80000
7FF00000
7FF00000
7FE00000
7FC00000
3F800000
ENDCHAR
STARTCHAR 007A
ENCODING 122
SWIDTH 500 0
DWIDTH 25 0
BBX 22 23 2 0
BITMAP
7FFFF8
7FFFF8
7FFFF8
7E0FF0
7C1FF0
781FE0
783FC0
787FC0
007F80
00FF00
01FF00
01FE00
03FC00
07FC00
0FF838
0FF03C
1FF07C
3FE07C
3FC07C
7F80FC
FFFFFC
FFFFFC
7FFFFC
ENDCHAR
STARTCHAR 007B
ENCODING 123
SWIDTH 360 0
DWIDTH 18 0
BBX 15 51 2 -14
BITMAP
001C
007C
01F8
03F0
07E0
07E0
07C0
0FC0
0FC0
0FC0
0FC0
0FC0
0FE0
07E0
07E0
07E0
07E0
07E0
07E0
0FE0
0FE0
1FC0
3FC0
FF00
F800
FE00
7F80
1FC0
0FE0
0FE0
0FE0
07E0
07E0
07E0
07E0
07E0
07E0
0FE0
0FE0
0FC0
0FC0
0FC0
07C0
07C0
07E0
03E0
03F0
01F8
00FE
003E
0004
ENDCHAR
STARTCHAR 007C
ENCODING 124
SWIDTH 180 0
DWIDTH 9 0
BBX 4 48 3 -12
BITMAP
60
E0
E0
E0
E0
E0
E0
E0
E0
E0
E0
E0
E0
E0
E0
E0
E0
E0
E0
E0
E0
E0
E0
E0
E0
E0
E0
E0
E0
E0
E0
E0
E0
E0
E0
E0
E0
E0
E0
E0
E0
E0
E0
E0
E0
E0
E0
F0
ENDCHAR
STARTCHAR 007D
ENCODING 125
SWIDTH 360 0
DWIDTH 18 0
BBX 15 51 2 -14
BITMAP
7000
FC00
7F00
1F80
0F80
0FC0
07C0
07C0
07C0
07E0
07C0
0FC0
0FC0
0FC0
0FC0
0FC0
0FC0
0FC0
0FC0
0FC0
0FE0
0FE0
07F8
01FE
007E
00FE
03FC
07F0
0FE0
0FE0
0FC0
0FC0
1FC0
0FC0
0FC0
0FC0
0FC0
0FC0
0FC0
0FC0
0FC0
0FC0
0FC0
0FC0
0FC0
0F80
1F80
3F00
FE00
F800
C000
ENDCHAR
STARTCHAR 007E
ENCODING 126
SWIDTH 540 0
DWIDTH 27 0
BBX 23 8 2 9
BITMAP
038000
0FE006
1FF80E
3FFF3E
7EFFFC
F01FF8
E00FF0
4003C0
ENDCHAR
STARTCHAR 00A0
ENCODING 160
SWIDTH 200 0
DWIDTH 10 0
BBX 0 0 0 0
BITMAP
ENDCHAR
STARTCHAR 00A1
ENCODING 161
SWIDTH 400 0
DWIDTH 20 0
BBX 8 36 6 -13
BITMAP
3E
7F
FF
FF
FF
7F
7E
08
00
00
00
00
3C
3C
3C
3C
3C
3C
3E
3E
3E
3E
7E
7E
7E
7E
7E
7F
7F
7F
7F
7F
FF
FF
FC
40
ENDCHAR
STARTCHAR 00A2
ENCODING 162
SWIDTH 460 0
DWIDTH 23 0
BBX 20 37 2 -7
BITMAP
003800
003800
003800
003800
003800
003800
003800
01FF80
07FFE0
0FFFE0
1FBFE0
3F3BE0
7F39E0
7E39E0
FE39E0
FE3900
FE3800
FE3800
FE3800
FE3800
FE3800
FE3800
FF3800
FF3800
7FB800
7FF830
3FF9F0
1FFFF0
0FFFE0
03FF80
003800
003800
003800
003800
003800
003800
003800
ENDCHAR
STARTCHAR 00A3
ENCODING 163
SWIDTH 560 0
DWIDTH 28 0
BBX 25 34 2 0
BITMAP
007FF000
01FFFE00
07FFFE00
0FE0FE00
1FC07E00
1FC07E00
1FC03E00
3FC03E00
3FC03C00
3FC00000
3FC00000
3FE00000
1FF00000
1FF00000
1FF80000
0FF80000
7FFFE000
7FFFE000
7FFFE000
7FFBC000
03F80000
03F00000
03F00000
03E00000
07E00000
07C78000
079FE380
0F7FFF80
0FFFFF80
1FFFFF00
3FFFFE00
7FFFFE00
F803FC00
6000F800
ENDCHAR
STARTCHAR 00A4
ENCODING 164
SWIDTH 540 0
DWIDTH 27 0
BBX 21 19 3 3
BITMAP
E03038
7BFE70
3FFFE0
1F07C0
1E03E0
3C01E0
3C00E0
3800F0
3800F0
3800F0
3800F0
3C00E0
3C00E0
1E01E0
0F03C0
1FFFE0
3FFFF0
78FC78
700038
ENDCHAR
STARTCHAR 00A5
ENCODING 165
SWIDTH 620 0
DWIDTH 31 0
BBX 30 34 1 0
BITMAP
FFFC0FFC
FFFC0FFC
FFFC0FFC
3FF003F0
1FF001E0
1FF001C0
0FF803C0
0FF80380
07F80780
07FC0700
03FC0700
03FE0E00
01FE0E00
01FF1C00
00FF1C00
0FFFBFC0
0FFFBFC0
0FFFBFC0
003FF000
003FF000
001FE000
0FFFFFC0
0FFFFFC0
0FFFFFC0
0FFFFFC0
001FE000
001FE000
001FE000
001FE000
001FE000
003FF000
03FFFE00
03FFFF00
03FFFF00
ENDCHAR
STARTCHAR 00A6
ENCODING 166
SWIDTH 180 0
DWIDTH 9 0
BBX 3 48 3 -12
BITMAP
60
E0
E0
E0
E0
E0
E0
E0
E0
E0
E0
E0
E0
E0
E0
E0
E0
E0
E0
E0
00
00
00
00
00
00
00
60
E0
E0
E0
E0
E0
E0
E0
E0
E0
E0
E0
E0
E0
E0
E0
E0
E0
E0
E0
E0
ENDCHAR
STARTCHAR 00A7
ENCODING 167
SWIDTH 560 0
DWIDTH 28 0
BBX 24 48 2 -12
BITMAP
003C00
01FFC0
07FFE0
0FEFE0
0F83E0
1F01E0
1F01E0
1F00E0
1F00C0
1F8000
1FE000
1FF000
0FFC00
0FFF00
07FFC0
03FFF0
07FFF8
0FFFFC
1FBFFC
3E0FFE
7C03FE
7C01FE
FC00FF
FC007F
FC003F
FE003E
FF003E
7FC03E
7FE07C
7FF9F8
3FFFF0
1FFFE0
0FFFC0
07FFE0
01FFE0
007FF0
001FF0
000FF8
0003F8
0E01F8
0E01F8
0F00F8
0F00F8
0F81F0
0FC3F0
0FFFE0
0FFFC0
01FF00
ENDCHAR
STARTCHAR 00A8
ENCODING 168
SWIDTH 300 0
DWIDTH 15 0
BBX 19 7 -2 26
BITMAP
3C0780
7E0FC0
FF1FE0
FF1FE0
FF1FE0
7E0FC0
3C07C0
ENDCHAR
STARTCHAR 00A9
ENCODING 169
SWIDTH 800 0
DWIDTH 40 0
BBX 34 35 3 -6
BITMAP
0001E00000
001FFF0000
007FFFC000
01FC07E000
03E000F000
0780007C00
0F00F01C00
1E0FFE0E00
3C1FFF8700
383F3F8700
787E0F8380
70FC078380
70FC0781C0
E0F80381C0
E1F80001C0
E1F80001C0
E1F80000C0
E1F80000C0
E1F80000C0
E1FC0001C0
E1FC0001C0
E1FC0001C0
70FC0001C0
70FE000380
787F038380
383FFF8700
3C1FFF0700
1E0FFC0E00
0F03E01C00
0780007C00
03E001F800
01FC07E000
007FFFC000
001FFF0000
0001E00000
ENDCHAR
STARTCHAR 00AA
ENCODING 170
SWIDTH 420 0
DWIDTH 21 0
BBX 18 18 2 18
BITMAP
07E000
3FFC00
7EFE00
7C7E00
383E00
383F00
083F00
01FF00
0FFF00
3F3F00
7C3F00
FC3F00
FC7F00
FC7F00
FFFFC0
FFFFC0
7FBFC0
3F1800
ENDCHAR
STARTCHAR 00AB
ENCODING 171
SWIDTH 500 0
DWIDTH 25 0
BBX 19 17 3 3
BITMAP
018000
03C1E0
0781E0
0F83C0
1F0780
3E0F80
7C1F00
FC3F00
FC3E00
FC3F00
7E1F80
3F1F80
1F0FC0
0F87C0
07C3E0
03C1E0
0180C0
ENDCHAR
STARTCHAR 00AC
ENCODING 172
SWIDTH 540 0
DWIDTH 27 0
BBX 23 12 2 5
BITMAP
7FFFFE
7FFFFE
7FFFFE
FFFFFE
00000E
00000E
00000E
00000E
00000E
00000E
00000E
00000E
ENDCHAR
STARTCHAR 00AD
ENCODING 173
SWIDTH 400 0
DWIDTH 20 0
BBX 15 4 3 11
BITMAP
7FFE
FFFE
FFFE
FFFC
ENDCHAR
STARTCHAR 00AE
ENCODING 174
SWIDTH 520 0
DWIDTH 26 0
BBX 21 21 3 19
BITMAP
006000
03FE00
0FFF80
1E03C0
3801E0
7060E0
71FC70
E18C30
E18E38
C18C38
C18C38
C1F838
E19838
E19C30
618C70
718E70
3800E0
3C01C0
1F0F80
07FF00
01FC00
ENDCHAR
STARTCHAR 00AF
ENCODING 175
SWIDTH 300 0
DWIDTH 15 0
BBX 19 3 -2 29
BITMAP
7FFFE0
FFFFE0
FFFFE0
ENDCHAR
STARTCHAR 00B0
ENCODING 176
SWIDTH 400 0
DWIDTH 20 0
BBX 15 13 3 22
BITMAP
0FC0
3FF0
7FF8
787C
F83C
F83C
F83E
F83C
F83C
7C3C
7E78
3FF0
1FE0
ENDCHAR
STARTCHAR 00B1
ENCODING 177
SWIDTH 540 0
DWIDTH 27 0
BBX 22 23 3 2
BITMAP
007800
007800
007800
007800
007800
007800
007800
007800
3FFFF0
7FFFF0
7FFFF0
007800
007800
007800
007800
007800
007800
007800
000000
000000
FFFFFC
FFFFFC
FFFFF8
ENDCHAR
STARTCHAR 00B2
ENCODING 178
SWIDTH 360 0
DWIDTH 18 0
BBX 15 18 2 20
BITMAP
3FF0
7FF8
7DFC
78FC
70FC
70FC
70FC
00F8
01F0
03E0
07C0
0F8E
1E0E
3FFE
7FFE
FFFE
FFFE
FFFC
ENDCHAR
STARTCHAR 00B3
ENCODING 179
SWIDTH 380 0
DWIDTH 19 0
BBX 15 24 2 14
BITMAP
7FFC
7FFC
7FFC
7FF8
78F0
70E0
61E0
03C0
0780
07C0
0FF8
0FFC
01FE
007E
007E
003E
003E
003E
007E
00FC
E3F8
FFF0
FFE0
0C00
ENDCHAR
STARTCHAR 00B4
ENCODING 180
SWIDTH 300 0
DWIDTH 15 0
BBX 9 10 3 26
BITMAP
1F80
3F00
3F00
3E00
7C00
7800
7800
F000
F000
2000
ENDCHAR
STARTCHAR 00B5
ENCODING 181
SWIDTH 620 0
DWIDTH 31 0
BBX 28 35 2 -12
BITMAP
03C00780
FFC1FF80
FFC3FF80
FFC3FF80
7FC07F80
1FC03F80
1FC03F80
1FC03F80
1FC03F80
1FC03F80
1FC03F80
1FC03F80
1FC03F80
1FC03F80
1FC03F80
1FC07F80
1FC07F80
1FE0FFC0
1FE0FFE0
1FFFDFF0
1FFFDFF0
1FFF1FF0
1FFE1E00
1F800000
1F800000
1F800000
1F800000
1F800000
1F800000
1F800000
1F800000
1FC00000
1F000000
3C000000
18000000
ENDCHAR
STARTCHAR 00B6
ENCODING 182
SWIDTH 580 0
DWIDTH 29 0
BBX 26 46 2 -12
BITMAP
00FFFFC0
07FFFFC0
1FFFFFC0
3FC79F00
7F879E00
7F079E00
FE079E00
FE079E00
FE079E00
FE079E00
FE079E00
FE079E00
FF079E00
FF079E00
7F879E00
7FE79E00
3FFF9E00
0FFF9E00
01FF9E00
00079E00
00079E00
00079E00
00079E00
00079E00
00079E00
00079E00
00079E00
00079E00
00079E00
00079E00
00079E00
00079E00
00079E00
00079E00
00079E00
00079E00
00079E00
00079E00
00079E00
00079E00
00079E00
00079E00
00079E00
00079E00
00079E00
00079E00
ENDCHAR
STARTCHAR 00B7
ENCODING 183
SWIDTH 280 0
DWIDTH 14 0
BBX 8 8 3 9
BITMAP
3C
7E
FF
FF
FF
FF
7E
3C
ENDCHAR
STARTCHAR 00B8
ENCODING 184
SWIDTH 300 0
DWIDTH 15 0
BBX 9 13 3 -12
BITMAP
1C00
3800
3800
7800
FE00
7F00
1F00
0F80
0F80
0F00
1F00
FE00
7800
ENDCHAR
STARTCHAR 00B9
ENCODING 185
SWIDTH 320 0
DWIDTH 16 0
BBX 11 18 3 20
BITMAP
FFE0
FFE0
FFE0
3F80
3F00
3F00
3F00
3F00
3F00
3F00
3F00
3F00
3F00
3F00
7F80
FFE0
FFE0
FFE0
ENDCHAR
STARTCHAR 00BA
ENCODING 186
SWIDTH 420 0
DWIDTH 21 0
BBX 18 18 2 18
BITMAP
03F000
0FFC00
3FFF00
3E3F00
7C1F80
FC1F80
FC0FC0
FC0FC0
FC0FC0
FC0FC0
FC0FC0
FC0FC0
FC0F80
FE0F80
7E1F80
3FBF00
1FFE00
07F800
ENDCHAR
STARTCHAR 00BB
ENCODING 187
SWIDTH 500 0
DWIDTH 25 0
BBX 20 17 3 3
BITMAP
001000
F07800
783C00
7C1F00
3E1F80
3F0FC0
1F87E0
1F87E0
0FC3F0
0FC3E0
1F87C0
1F0F80
3E0F00
7C1E00
783E00
703C00
303800
ENDCHAR
STARTCHAR 00BC
ENCODING 188
SWIDTH 860 0
DWIDTH 43 0
BBX 40 36 2 1
BITMAP
03E00000C0
FFE00000F0
FFE00001E0
FFE00003C0
0FE00007C0
07E0000780
07E0000F00
07E0001E00
07E0001E00
07E0003C00
07E0007800
07E000F800
07E000F000
07E001E0C0
07E003C0F0
07E007C1F0
07E00783F0
07E00F07F0
0FE01E07F0
7FFE3E0FF0
7FFE3C1DF0
FFFE7839F0
0000F039F0
0000F071F0
0001E0E1F0
0003C1E1F0
0007C3FFFF
000783FFFF
000F03FFFF
001E03FFFE
003E01C1F0
003C0001F0
00780003F8
00F0001FFE
01F0001FFE
01E0001FFE
ENDCHAR
STARTCHAR 00BD
ENCODING 189
SWIDTH 980 0
DWIDTH 49 0
BBX 46 36 2 1
BITMAP
03E00000C000
FFE00000F000
FFE00001E000
FFE00003C000
0FE00007C000
07E000078000
07E0000F0000
07E0001E0000
07E0001E0000
07E0003C0000
07E000780000
07E000F80000
07E000F00000
07E001E00000
07E003C3FFC0
07E007C7FFF0
07E00787FFF0
07E00F07C7F8
0FE01E0783F8
7FFE3E0783F8
7FFE3C0783F8
FFFE780783F0
0000F00007F0
0000F00007E0
0001E0000FC0
0003C0001F80
0007C0003F00
000780007C20
000F0000F83C
001E0001F07C
003E0003FFFC
003C0007FFFC
00780007FFFC
00F0000FFFFC
01F00007FFFC
01E00007FFF8
ENDCHAR
STARTCHAR 00BE
ENCODING 190
SWIDTH 840 0
DWIDTH 42 0
BBX 40 36 1 0
BITMAP
7FFE000040
7FFF0000F0
7FFE0001E0
7FFE0001E0
7FFC0003C0
7878000780
70F0000F80
01E0000F00
03C0001E00
03F0003C00
07FC007C00
07FE007800
07FF00F000
007F01E060
003F03E0F8
003F03C1F8
003F0783F8
003F0F03F8
407E1F07F8
7FFE1E0FF8
FFF83C1DF8
3FF0781DF8
00007839F8
0000F071F8
0001E0F1F8
0003E1E1F8
0003C1FFFF
000783FFFF
000F03FFFF
001F01FFFF
001E01C1F8
003C0001F8
00780001F8
00F8000FFE
00F0000FFE
00E0001FFE
ENDCHAR
STARTCHAR 00BF
ENCODING 191
SWIDTH 520 0
DWIDTH 26 0
BBX 18 36 3 -13
BITMAP
01F000
03F800
07FC00
07FC00
07FC00
07F800
03F800
01F000
000000
000000
000000
01F000
00F000
00F800
00F800
00F800
00F800
00F800
01F800
01F800
03F000
07F000
0FE000
1FC000
3F8000
7F8000
7F0300
7F03C0
FE03C0
FE03C0
FF07C0
7F07C0
7F8FC0
3FFFC0
1FFF80
03F800
ENDCHAR
STARTCHAR 00C0
ENCODING 192
SWIDTH 700 0
DWIDTH 35 0
BBX 34 44 1 0
BITMAP
000F000000
003F000000
001F800000
000F800000
0007C00000
0003C00000
0003E00000
0000000000
0000000000
0000000000
0001C00000
0003C00000
0003E00000
0007E00000
0007F00000
0007F00000
000FF80000
000FF80000
001FFC0000
001FFC0000
001DFC0000
0039FE0000
0039FE0000
0070FF0000
0070FF0000
00707F8000
00E07F8000
00E07FC000
01E03FC000
01C03FC000
03C01FE000
03801FE000
03FFFFF000
07FFFFF000
07FF8FF800
0F0007F800
0E0007FC00
0E0003FC00
1E0003FE00
1E0003FE00
3E0003FF00
FF800FFF80
FFC00FFFC0
FFC00FFFC0
ENDCHAR
STARTCHAR 00C1
ENCODING 193
SWIDTH 700 0
DWIDTH 35 0
BBX 34 44 1 0
BITMAP
0000FE0000
0000FC0000
0000F80000
0001F00000
0001E00000
0003E00000
0003C00000
0000000000
0000000000
0000000000
0001C00000
0003C00000
0003E00000
0007E00000
0007F00000
0007F00000
000FF80000
000FF80000
001FFC0000
001FFC0000
001DFC0000
0039FE0000
0039FE0000
0070FF0000
0070FF0000
00707F8000
00E07F8000
00E07FC000
01E03FC000
01C03FC000
03C01FE000
03801FE000
03FFFFF000
07FFFFF000
07FF8FF800
0F0007F800
0E0007FC00
0E0003FC00
1E0003FE00
1E0003FE00
3E0003FF00
FF800FFF80
FFC00FFFC0
FFC00FFFC0
ENDCHAR
STARTCHAR 00C2
ENCODING 194
SWIDTH 700 0
DWIDTH 35 0
BBX 34 44 1 0
BITMAP
0003E00000
0007F00000
000FF80000
003FFC0000
007FFE0000
00FC3F8000
00F00F0000
0040040000
0000000000
0000000000
0001C00000
0003C00000
0003E00000
0007E00000
0007F00000
0007F00000
000FF80000
000FF80000
001FFC0000
001FFC0000
001DFC0000
0039FE0000
0039FE0000
0070FF0000
0070FF0000
00707F8000
00E07F8000
00E07FC000
01E03FC000
01C03FC000
03C01FE000
03801FE000
03FFFFF000
07FFFFF000
07FF8FF800
0F0007F800
0E0007FC00
0E0003FC00
1E0003FE00
1E0003FE00
3E0003FF00
FF800FFF80
FFC00FFFC0
FFC00FFFC0
ENDCHAR
STARTCHAR 00C3
ENCODING 195
SWIDTH 700 0
DWIDTH 35 0
BBX 34 43 1 0
BITMAP
003F818000
00FFF78000
01FFFF8000
01FFFF0000
01C3FE0000
0080780000
0000000000
0000000000
0000000000
0001C00000
0003C00000
0003E00000
0007E00000
0007F00000
0007F00000
000FF80000
000FF80000
001FFC0000
001FFC0000
001DFC0000
0039FE0000
0039FE0000
0070FF0000
0070FF0000
00707F8000
00E07F8000
00E07FC000
01E03FC000
01C03FC000
03C01FE000
03801FE000
03FFFFF000
07FFFFF000
07FF8FF800
0F0007F800
0E0007FC00
0E0003FC00
1E0003FE00
1E0003FE00
3E0003FF00
FF800FFF80
FFC00FFFC0
FFC00FFFC0
ENDCHAR
STARTCHAR 00C4
ENCODING 196
SWIDTH 700 0
DWIDTH 35 0
BBX 34 43 1 0
BITMAP
00F81F0000
01FC3F8000
01FC3FC000
01FC3FC000
01FC3FC000
00FC1F8000
00700E0000
0000000000
0000000000
0001C00000
0003C00000
0003E00000
0007E00000
0007F00000
0007F00000
000FF80000
000FF80000
001FFC0000
001FFC0000
001DFC0000
0039FE0000
0039FE0000
0070FF0000
0070FF0000
00707F8000
00E07F8000
00E07FC000
01E03FC000
01C03FC000
03C01FE000
03801FE000
03FFFFF000
07FFFFF000
07FF8FF800
0F0007F800
0E0007FC00
0E0003FC00
1E0003FE00
1E0003FE00
3E0003FF00
FF800FFF80
FFC00FFFC0
FFC00FFFC0
ENDCHAR
STARTCHAR 00C5
ENCODING 197
SWIDTH 700 0
DWIDTH 35 0
BBX 34 44 1 0
BITMAP
0007F00000
001FF80000
001C3C0000
001C3C0000
001C3C0000
001E3C0000
000FF80000
0007E00000
0000000000
0000000000
0001C00000
0003C00000
0003E00000
0007E00000
0007F00000
0007F00000
000FF80000
000FF80000
001FFC0000
001FFC0000
001DFC0000
0039FE0000
0039FE0000
0070FF0000
0070FF0000
00707F8000
00E07F8000
00E07FC000
01E03FC000
01C03FC000
03C01FE000
03801FE000
03FFFFF000
07FFFFF000
07FF8FF800
0F0007F800
0E0007FC00
0E0003FC00
1E0003FE00
1E0003FE00
3E0003FF00
FF800FFF80
FFC00FFFC0
FFC00FFFC0
ENDCHAR
STARTCHAR 00C6
ENCODING 198
SWIDTH 940 0
DWIDTH 47 0
BBX 45 34 1 0
BITMAP
0003FFFFFFE0
0003FFFFFFE0
0001FFFFFFE0
00007FF81FE0
00007FF803E0
00007BF801E0
00007BF801E0
0000F3F800E0
0000E3F800F0
0001E3F80000
0001C3F80000
0003C3F80000
000783F80E00
000783F81E00
000F03F81E00
000E03F81E00
001E03F87E00
001FFFFFFE00
003FFFFFFE00
007FFFF8FE00
007803F83E00
00F003F81E00
00E003F81E00
01E003F81E00
01C003F80000
03C003F80078
078003F80078
078003FC0078
0F0003FC00F8
1F8003FC01F8
3F8007FE07F0
FFE01FFFFFF0
FFE03FFFFFF0
FFE03FFFFFF0
ENDCHAR
STARTCHAR 00C7
ENCODING 199
SWIDTH 640 0
DWIDTH 32 0
BBX 28 46 2 -12
BITMAP
001FFE00
007FFFC0
01FFFFF0
03F80FF0
0FF003E0
0FE003E0
1FC001E0
3F8001E0
3F8001E0
7F0001E0
7F0001C0
FF000000
FF000000
FF000000
FF000000
FF000000
FF000000
FF000000
FF000000
FF000000
FF000000
FF000000
FF800000
7F800000
7F800000
3FC00000
3FE00000
1FF00000
1FF80030
0FFC00F0
07FFDFF0
01FFFFE0
00FFFF80
003FFC00
00038000
00038000
00078000
000FE000
0007F000
0001F000
0000F000
0000F000
0000F000
0001F000
000FE000
00078000
ENDCHAR
STARTCHAR 00C8
ENCODING 200
SWIDTH 620 0
DWIDTH 31 0
BBX 28 44 2 0
BITMAP
00F80000
01F80000
00FC0000
007C0000
003C0000
001E0000
001F0000
00000000
00000000
00000000
FFFFFF80
FFFFFF80
FFFFFF80
3FE03F80
1FE00F80
0FE007C0
0FE003C0
0FE003C0
0FE003C0
0FE00000
0FE00000
0FE01800
0FE03800
0FE07800
0FE07800
0FE3F800
0FFFF800
0FFFF800
0FFFF800
0FE07800
0FE07800
0FE03800
0FE03800
0FE00000
0FE00080
0FE000E0
0FE001F0
0FE001E0
0FF003E0
1FF007E0
1FF81FE0
FFFFFFE0
FFFFFFC0
FFFFFFC0
ENDCHAR
STARTCHAR 00C9
ENCODING 201
SWIDTH 620 0
DWIDTH 31 0
BBX 28 44 2 0
BITMAP
0007F000
0007E000
000FC000
000F8000
000F0000
001E0000
001E0000
00000000
00000000
00000000
FFFFFF80
FFFFFF80
FFFFFF80
3FE03F80
1FE00F80
0FE007C0
0FE003C0
0FE003C0
0FE003C0
0FE00000
0FE00000
0FE01800
0FE03800
0FE07800
0FE07800
0FE3F800
0FFFF800
0FFFF800
0FFFF800
0FE07800
0FE07800
0FE03800
0FE03800
0FE00000
0FE00080
0FE000E0
0FE001F0
0FE001E0
0FF003E0
1FF007E0
1FF81FE0
FFFFFFE0
FFFFFFC0
FFFFFFC0
ENDCHAR
STARTCHAR 00CA
ENCODING 202
SWIDTH 620 0
DWIDTH 31 0
BBX 28 44 2 0
BITMAP
001F0000
003F8000
007FC000
01FFE000
03F7F000
0FE1FC00
07807800
02002000
00000000
00000000
FFFFFF80
FFFFFF80
FFFFFF80
3FE03F80
1FE00F80
0FE007C0
0FE003C0
0FE003C0
0FE003C0
0FE00000
0FE00000
0FE01800
0FE03800
0FE07800
0FE07800
0FE3F800
0FFFF800
0FFFF800
0FFFF800
0FE07800
0FE07800
0FE03800
0FE03800
0FE00000
0FE00080
0FE000E0
0FE001F0
0FE001E0
0FF003E0
1FF007E0
1FF81FE0
FFFFFFE0
FFFFFFC0
FFFFFFC0
ENDCHAR
STARTCHAR 00CB
ENCODING 203
SWIDTH 620 0
DWIDTH 31 0
BBX 28 43 2 0
BITMAP
07C0F800
0FE1FC00
0FE1FE00
0FE1FE00
0FE1FC00
0FC0FC00
03807000
00000000
00000000
FFFFFF80
FFFFFF80
FFFFFF80
3FE03F80
1FE00F80
0FE007C0
0FE003C0
0FE003C0
0FE003C0
0FE00000
0FE00000
0FE01800
0FE03800
0FE07800
0FE07800
0FE3F800
0FFFF800
0FFFF800
0FFFF800
0FE07800
0FE07800
0FE03800
0FE03800
0FE00000
0FE00080
0FE000E0
0FE001F0
0FE001E0
0FF003E0
1FF007E0
1FF81FE0
FFFFFFE0
FFFFFFC0
FFFFFFC0
ENDCHAR
STARTCHAR 00CC
ENCODING 204
SWIDTH 380 0
DWIDTH 19 0
BBX 15 44 2 0
BITMAP
1E00
7F00
3F00
1F80
0F80
07C0
03C0
0000
0000
0000
FFFE
FFFE
FFFE
3FF8
1FF0
0FE0
0FE0
0FE0
0FE0
0FE0
0FE0
0FE0
0FE0
0FE0
0FE0
0FE0
0FE0
0FE0
0FE0
0FE0
0FE0
0FE0
0FE0
0FE0
0FE0
0FE0
0FE0
0FE0
0FE0
1FF0
1FF0
FFFE
FFFE
FFFE
ENDCHAR
STARTCHAR 00CD
ENCODING 205
SWIDTH 380 0
DWIDTH 19 0
BBX 15 44 2 0
BITMAP
00FC
01F8
01F0
03F0
03E0
07C0
0780
0000
0000
0000
FFFE
FFFE
FFFE
3FF8
1FF0
0FE0
0FE0
0FE0
0FE0
0FE0
0FE0
0FE0
0FE0
0FE0
0FE0
0FE0
0FE0
0FE0
0FE0
0FE0
0FE0
0FE0
0FE0
0FE0
0FE0
0FE0
0FE0
0FE0
0FE0
1FF0
1FF0
FFFE
FFFE
FFFE
ENDCHAR
STARTCHAR 00CE
ENCODING 206
SWIDTH 380 0
DWIDTH 19 0
BBX 15 44 2 0
BITMAP
03C0
07C0
0FE0
1FF0
3FF8
7DFC
F87E
703C
2000
0000
FFFE
FFFE
FFFE
3FF8
1FF0
0FE0
0FE0
0FE0
0FE0
0FE0
0FE0
0FE0
0FE0
0FE0
0FE0
0FE0
0FE0
0FE0
0FE0
0FE0
0FE0
0FE0
0FE0
0FE0
0FE0
0FE0
0FE0
0FE0
0FE0
1FF0
1FF0
FFFE
FFFE
FFFE
ENDCHAR
STARTCHAR 00CF
ENCODING 207
SWIDTH 380 0
DWIDTH 19 0
BBX 17 43 1 0
BITMAP
3C1E00
7E3F00
FE7F80
FF7F80
FE3F80
7E3F00
3C1E00
000000
000000
7FFF00
7FFF00
7FFF00
1FFC00
0FF800
07F000
07F000
07F000
07F000
07F000
07F000
07F000
07F000
07F000
07F000
07F000
07F000
07F000
07F000
07F000
07F000
07F000
07F000
07F000
07F000
07F000
07F000
07F000
07F000
0FF800
0FF800
7FFF00
7FFF00
7FFF00
ENDCHAR
STARTCHAR 00D0
ENCODING 208
SWIDTH 720 0
DWIDTH 36 0
BBX 34 34 1 0
BITMAP
7FFFF80000
7FFFFF8000
7FFFFFE000
1FF01FF800
0FF007FC00
07F003FE00
07F001FF00
07F000FF00
07F0007F80
07F0007F80
07F0007F80
07F0003FC0
07F0003FC0
07F0003FC0
07F0003FC0
7FFFE03FC0
7FFFE03FC0
FFFFE03FC0
FFFFE03FC0
07F0003FC0
07F0003FC0
07F0003F80
07F0003F80
07F0003F80
07F0007F00
07F0007F00
07F000FE00
07F000FE00
07F801FC00
0FF803F800
0FFC0FF000
7FFFFFC000
7FFFFF0000
7FFFF80000
ENDCHAR
STARTCHAR 00D1
ENCODING 209
SWIDTH 720 0
DWIDTH 36 0
BBX 33 43 2 0
BITMAP
003F818000
007FF7C000
00FFFF8000
01FFFF0000
01C1FE0000
0080780000
0000000000
0000000000
0000000000
FFC003FF80
FFE003FF00
FFE003FF00
3FF000FE00
1FF8007C00
0FFC003C00
0FFC003800
0FFE003800
0FFF003800
0FFF803800
0EFF803800
0E7FC03800
0E7FE03800
0E3FF03800
0E1FF03800
0E0FF83800
0E0FFC3800
0E07FC3800
0E03FE3800
0E01FF3800
0E01FFB800
0E00FFB800
0E007FF800
0E003FF800
0E003FF800
0E001FF800
0E000FF800
0E0007F800
1E0007F800
1F0003F800
3F8001F800
FFE000F800
FFE000F800
FFE0007800
ENDCHAR
STARTCHAR 00D2
ENCODING 210
SWIDTH 740 0
DWIDTH 37 0
BBX 34 44 2 0
BITMAP
000F000000
001F800000
000F800000
000FC00000
0007C00000
0003E00000
0001E00000
0000000000
0000000000
0000000000
001FFC0000
007FFF8000
01FFFFE000
03F81FF000
0FE007F800
0FC003FC00
1FC003FE00
3F8001FE00
3F8000FF00
7F0000FF00
7F00007F80
FF00007F80
FF00007F80
FF00007F80
FF00007F80
FF00003FC0
FF00003FC0
FF00003FC0
FF00003FC0
FF00003F80
FF00003F80
FF00007F80
FF00007F80
7F80007F00
7F80007F00
3F8000FF00
3FC000FE00
1FE000FC00
1FE001FC00
0FF003F800
07FC0FF000
01FFFFE000
00FFFF8000
003FFE0000
ENDCHAR
STARTCHAR 00D3
ENCODING 211
SWIDTH 740 0
DWIDTH 37 0
BBX 34 44 2 0
BITMAP
00007E0000
0000FC0000
0000FC0000
0000F80000
0001F00000
0001E00000
0003C00000
0000000000
0000000000
0000000000
001FFC0000
007FFF8000
01FFFFE000
03F81FF000
0FE007F800
0FC003FC00
1FC003FE00
3F8001FE00
3F8000FF00
7F0000FF00
7F00007F80
FF00007F80
FF00007F80
FF00007F80
FF00007F80
FF00003FC0
FF00003FC0
FF00003FC0
FF00003FC0
FF00003F80
FF00003F80
FF00007F80
FF00007F80
7F80007F00
7F80007F00
3F8000FF00
3FC000FE00
1FE000FC00
1FE001FC00
0FF003F800
07FC0FF000
01FFFFE000
00FFFF8000
003FFE0000
ENDCHAR
STARTCHAR 00D4
ENCODING 212
SWIDTH 740 0
DWIDTH 37 0
BBX 34 44 2 0
BITMAP
0001E00000
0003F00000
000FF80000
001FFE0000
007FFF0000
00FC3F8000
00700F0000
0000020000
0000000000
0000000000
001FFC0000
007FFF8000
01FFFFE000
03F81FF000
0FE007F800
0FC003FC00
1FC003FE00
3F8001FE00
3F8000FF00
7F0000FF00
7F00007F80
FF00007F80
FF00007F80
FF00007F80
FF00007F80
FF00003FC0
FF00003FC0
FF00003FC0
FF00003FC0
FF00003F80
FF00003F80
FF00007F80
FF00007F80
7F80007F00
7F80007F00
3F8000FF00
3FC000FE00
1FE000FC00
1FE001FC00
0FF003F800
07FC0FF000
01FFFFE000
00FFFF8000
003FFE0000
ENDCHAR
STARTCHAR 00D5
ENCODING 213
SWIDTH 740 0
DWIDTH 37 0
BBX 34 43 2 0
BITMAP
003F818000
007FF7C000
00FFFF8000
01FFFF0000
00C1FE0000
00807C0000
0000000000
0000000000
0000000000
001FFC0000
007FFF8000
01FFFFE000
03F81FF000
0FE007F800
0FC003FC00
1FC003FE00
3F8001FE00
3F8000FF00
7F0000FF00
7F00007F80
FF00007F80
FF00007F80
FF00007F80
FF00007F80
FF00003FC0
FF00003FC0
FF00003FC0
FF00003FC0
FF00003F80
FF00003F80
FF00007F80
FF00007F80
7F80007F00
7F80007F00
3F8000FF00
3FC000FE00
1FE000FC00
1FE001FC00
0FF003F800
07FC0FF000
01FFFFE000
00FFFF8000
003FFE0000
ENDCHAR
STARTCHAR 00D6
ENCODING 214
SWIDTH 740 0
DWIDTH 37 0
BBX 34 43 2 0
BITMAP
00FC0F8000
00FC1FC000
01FE3FC000
01FE3FC000
01FE1FC000
00FC1F8000
0078070000
0000000000
0000000000
001FFC0000
007FFF8000
01FFFFE000
03F81FF000
0FE007F800
0FC003FC00
1FC003FE00
3F8001FE00
3F8000FF00
7F0000FF00
7F00007F80
FF00007F80
FF00007F80
FF00007F80
FF00007F80
FF00003FC0
FF00003FC0
FF00003FC0
FF00003FC0
FF00003F80
FF00003F80
FF00007F80
FF00007F80
7F80007F00
7F80007F00
3F8000FF00
3FC000FE00
1FE000FC00
1FE001FC00
0FF003F800
07FC0FF000
01FFFFE000
00FFFF8000
003FFE0000
ENDCHAR
STARTCHAR 00D7
ENCODING 215
SWIDTH 540 0
DWIDTH 27 0
BBX 24 24 2 1
BITMAP
00000C
F0001F
F8003E
7C007C
3E00F8
1F01F0
0F83E0
07C7C0
03E780
01FF00
00FE00
007C00
007C00
00FE00
01FF00
03EF80
07C7C0
0783E0
0F01F0
1E00F8
3C007C
7C003E
F8001F
70000C
ENDCHAR
STARTCHAR 00D8
ENCODING 216
SWIDTH 740 0
DWIDTH 37 0
BBX 34 36 2 -1
BITMAP
0000000F00
001FFC0F00
007FFF9F00
01FFFFFE00
03F81FFC00
0FE007F800
0FC003FC00
1FC001FE00
3F8003FE00
3F8007FF00
7F000FFF00
7F000F7F80
FF001E7F80
FF003E7F80
FF007C7F80
FF00783F80
FF00F03FC0
FF01F03FC0
FF03E03FC0
FF07C03FC0
FF07803F80
FF0F803F80
FF1F007F80
FF3E007F80
7FBC007F00
7FF8007F00
3FF800FF00
3FF000FE00
1FE000FC00
1FE001FC00
0FF003F800
0FFC0FF000
1FFFFFE000
3EFFFF8000
7C1FFE0000
7800000000
ENDCHAR
STARTCHAR 00D9
ENCODING 217
SWIDTH 680 0
DWIDTH 34 0
BBX 31 44 2 0
BITMAP
00078000
001F8000
000FC000
0007C000
0003E000
0001E000
0001F000
00000000
00000000
00000000
FFFC0FFE
FFFC0FFC
FFFC0FFC
7FF003F8
1FE001F0
1FE000E0
1FC000E0
1FC000E0
1FC000E0
1FC000E0
1FC000E0
1FC000E0
1FC000E0
1FC000E0
1FC000E0
1FC000E0
1FC000E0
1FC000E0
1FC000E0
1FC000E0
1FC000E0
1FC000E0
1FC000E0
1FE000E0
1FE000E0
1FE000E0
1FE001E0
0FE001E0
0FF001C0
0FF803C0
07FC0F80
03FFFF00
01FFFE00
007FFC00
ENDCHAR
STARTCHAR 00DA
ENCODING 218
SWIDTH 680 0
DWIDTH 34 0
BBX 31 44 2 0
BITMAP
00007F00
00007E00
00007C00
0000F800
0000F000
0001F000
0001E000
00000000
00000000
00000000
FFFC0FFE
FFFC0FFC
FFFC0FFC
7FF003F8
1FE001F0
1FE000E0
1FC000E0
1FC000E0
1FC000E0
1FC000E0
1FC000E0
1FC000E0
1FC000E0
1FC000E0
1FC000E0
1FC000E0
1FC000E0
1FC000E0
1FC000E0
1FC000E0
1FC000E0
1FC000E0
1FC000E0
1FE000E0
1FE000E0
1FE000E0
1FE001E0
0FE001E0
0FF001C0
0FF803C0
07FC0F80
03FFFF00
01FFFE00
007FFC00
ENDCHAR
STARTCHAR 00DB
ENCODING 219
SWIDTH 680 0
DWIDTH 34 0
BBX 31 44 2 0
BITMAP
0001F000
0003F800
0007FC00
001FFE00
003FFF00
007E1FC0
00780780
00200200
00000000
00000000
FFFC0FFE
FFFC0FFC
FFFC0FFC
7FF003F8
1FE001F0
1FE000E0
1FC000E0
1FC000E0
1FC000E0
1FC000E0
1FC000E0
1FC000E0
1FC000E0
1FC000E0
1FC000E0
1FC000E0
1FC000E0
1FC000E0
1FC000E0
1FC000E0
1FC000E0
1FC000E0
1FC000E0
1FE000E0
1FE000E0
1FE000E0
1FE001E0
0FE001E0
0FF001C0
0FF803C0
07FC0F80
03FFFF00
01FFFE00
007FFC00
ENDCHAR
STARTCHAR 00DC
ENCODING 220
SWIDTH 680 0
DWIDTH 34 0
BBX 31 43 2 0
BITMAP
007C0F80
00FE1FC0
00FE1FE0
00FE1FE0
00FE1FC0
00FE0FC0
00380700
00000000
00000000
FFFC0FFE
FFFC0FFC
FFFC0FFC
7FF003F8
1FE001F0
1FE000E0
1FC000E0
1FC000E0
1FC000E0
1FC000E0
1FC000E0
1FC000E0
1FC000E0
1FC000E0
1FC000E0
1FC000E0
1FC000E0
1FC000E0
1FC000E0
1FC000E0
1FC000E0
1FC000E0
1FC000E0
1FE000E0
1FE000E0
1FE000E0
1FE001E0
0FE001E0
0FF001C0
0FF803C0
07FC0F80
03FFFF00
01FFFE00
007FFC00
ENDCHAR
STARTCHAR 00DD
ENCODING 221
SWIDTH 620 0
DWIDTH 31 0
BBX 30 44 1 0
BITMAP
00007F00
00007E00
0000FC00
0000F800
0000F000
0001E000
0001E000
00000000
00000000
00000000
FFFC0FFC
FFFC0FFC
FFFC0FFC
3FF003F0
1FF001E0
1FF001C0
0FF803C0
0FF80380
07F80780
07FC0700
03FC0700
03FE0E00
01FE0E00
01FF1E00
00FF1C00
00FFBC00
007FB800
007FB800
003FF000
003FF000
001FE000
001FE000
001FE000
001FE000
001FE000
001FE000
001FE000
001FE000
001FE000
001FE000
003FF000
03FFFE00
03FFFF00
03FFFF00
ENDCHAR
STARTCHAR 00DE
ENCODING 222
SWIDTH 620 0
DWIDTH 31 0
BBX 28 34 2 0
BITMAP
FFFE0000
FFFE0000
FFFE0000
3FF80000
1FF00000
0FE00000
0FE00000
0FFFFC00
0FFFFF00
0FFFFFC0
0FE07FC0
0FE01FE0
0FE00FF0
0FE00FF0
0FE007F0
0FE007F0
0FE007F0
0FE007F0
0FE007F0
0FE007F0
0FE00FE0
0FE00FE0
0FE01FC0
0FE5FF80
0FE7FF00
0FE7FC00
0FE0C000
0FE00000
0FF00000
1FF00000
1FFC0000
FFFF0000
FFFF8000
FFFF8000
ENDCHAR
STARTCHAR 00DF
ENCODING 223
SWIDTH 680 0
DWIDTH 34 0
BBX 30 36 2 0
BITMAP
0007E000
007FFC00
00FFFF00
01FDFF80
03F03F80
07E01FC0
07E00FC0
0FE00FC0
0FE00FC0
0FE00F80
0FE01F80
1FE01F00
1FE07E00
1FE0F800
FFE1F000
FFE3F000
FFE3F000
1FE7F800
1FE7FC00
1FE7FF00
1FE3FFC0
1FE3FFE0
1FE1FFF0
1FE0FFF8
1FE07FFC
1FE01FFC
1FE007FC
1FE003FC
1FE781FC
1FE781FC
1FE781FC
1FE7C1FC
3FE7C1F8
FFE7FFF0
FFE7FFE0
FFE1FF80
ENDCHAR
STARTCHAR 00E0
ENCODING 224
SWIDTH 540 0
DWIDTH 27 0
BBX 24 36 3 0
BITMAP
078000
1F8000
0FC000
07C000
07E000
03E000
01E000
00F000
00F000
000000
000000
000000
000000
00FF80
03FFC0
07FFE0
1E3FF0
3E0FF0
7E0FF0
7E07F0
FE07F0
FE07F0
000FF0
003FF0
01FFF0
07E7F0
1F87F0
7F07F0
7E07F0
7E07F0
FF07F8
FF07FC
7F8FFF
7FFFFF
3FF7FF
1FE3F8
ENDCHAR
STARTCHAR 00E1
ENCODING 225
SWIDTH 540 0
DWIDTH 27 0
BBX 24 36 3 0
BITMAP
001F80
001F80
003F00
003E00
003C00
007C00
007800
00F000
00F000
000000
000000
000000
000000
00FF80
03FFC0
07FFE0
1E3FF0
3E0FF0
7E0FF0
7E07F0
FE07F0
FE07F0
000FF0
003FF0
01FFF0
07E7F0
1F87F0
7F07F0
7E07F0
7E07F0
FF07F8
FF07FC
7F8FFF
7FFFFF
3FF7FF
1FE3F8
ENDCHAR
STARTCHAR 00E2
ENCODING 226
SWIDTH 540 0
DWIDTH 27 0
BBX 24 36 3 0
BITMAP
003000
00F800
01FC00
03FE00
07FF00
0FFF80
1F1FC0
7E07E0
7803E0
3000C0
000000
000000
000000
00FF80
03FFC0
07FFE0
1E3FF0
3E0FF0
7E0FF0
7E07F0
FE07F0
FE07F0
000FF0
003FF0
01FFF0
07E7F0
1F87F0
7F07F0
7E07F0
7E07F0
FF07F8
FF07FC
7F8FFF
7FFFFF
3FF7FF
1FE3F8
ENDCHAR
STARTCHAR 00E3
ENCODING 227
SWIDTH 540 0
DWIDTH 27 0
BBX 24 34 3 0
BITMAP
078000
1FE0E0
3FFFE0
7FFFC0
FBFF80
607F00
400E00
000000
000000
000000
000000
00FF80
03FFC0
07FFE0
1E3FF0
3E0FF0
7E0FF0
7E07F0
FE07F0
FE07F0
000FF0
003FF0
01FFF0
07E7F0
1F87F0
7F07F0
7E07F0
7E07F0
FF07F8
FF07FC
7F8FFF
7FFFFF
3FF7FF
1FE3F8
ENDCHAR
STARTCHAR 00E4
ENCODING 228
SWIDTH 540 0
DWIDTH 27 0
BBX 24 33 3 0
BITMAP
3C0780
7E0FE0
7F0FE0
FF0FE0
FF0FE0
7E0FE0
3C07C0
000000
000000
000000
00FF80
03FFC0
07FFE0
1E3FF0
3E0FF0
7E0FF0
7E07F0
FE07F0
FE07F0
000FF0
003FF0
01FFF0
07E7F0
1F87F0
7F07F0
7E07F0
7E07F0
FF07F8
FF07FC
7F8FFF
7FFFFF
3FF7FF
1FE3F8
ENDCHAR
STARTCHAR 00E5
ENCODING 229
SWIDTH 540 0
DWIDTH 27 0
BBX 24 36 3 0
BITMAP
01F800
03FC00
07BE00
0F1F00
0F0F00
0F0F00
0F0F00
0FFE00
07FC00
01F000
000000
000000
000000
00FF80
03FFC0
07FFE0
1E3FF0
3E0FF0
7E0FF0
7E07F0
FE07F0
FE07F0
000FF0
003FF0
01FFF0
07E7F0
1F87F0
7F07F0
7E07F0
7E07F0
FF07F8
FF07FC
7F8FFF
7FFFFF
3FF7FF
1FE3F8
ENDCHAR
STARTCHAR 00E6
ENCODING 230
SWIDTH 720 0
DWIDTH 36 0
BBX 33 23 2 0
BITMAP
0FFC1FF000
7FFF3FF800
7FFFFFFC00
3E1FF87E00
3E0FF07E00
3C0FF03F00
3C07F03F00
3C07F03F00
0007F03F00
000FFFFF80
03FFFFFF00
0FFFFFFF00
3FE7F00000
7F07F00000
7E0FF00000
FC0FF00000
FC0FF80000
FC0FF80000
FE1FFC0700
FFFDFF3F00
FFF8FFFF00
7FF07FFE00
3FC01FF000
ENDCHAR
STARTCHAR 00E7
ENCODING 231
SWIDTH 460 0
DWIDTH 23 0
BBX 20 35 2 -12
BITMAP
01FF80
07FFE0
0FFFE0
1F87E0
3F03E0
7F01E0
7E01E0
FE01E0
FE0100
FE0000
FE0000
FE0000
FE0000
FE0000
FE0000
FF0000
FF0000
7F8000
7FC030
3FF1F0
1FFFF0
0FFFE0
03FF80
003800
007000
00F000
00FC00
00FE00
003F00
000F00
000F00
000F00
003E00
00FC00
00F000
ENDCHAR
STARTCHAR 00E8
ENCODING 232
SWIDTH 500 0
DWIDTH 25 0
BBX 22 36 2 0
BITMAP
01E000
0FE000
07E000
03F000
01F000
00F000
00F800
007800
003C00
000000
000000
000000
000000
01FF00
07FFC0
1FFFE0
3F87F0
3F03F0
7F03F8
7E01F8
FE01F8
FE01FC
FE01FC
FFFFFC
FFFFF8
FFFFF8
FE0000
FE0000
FF0000
FF0000
7F8000
7FC018
3FF0FC
1FFFF8
0FFFE0
03FFC0
ENDCHAR
STARTCHAR 00E9
ENCODING 233
SWIDTH 500 0
DWIDTH 25 0
BBX 22 36 2 0
BITMAP
0007E0
000FC0
000F80
001F80
001F00
001E00
003C00
003C00
007800
000800
000000
000000
000000
01FF00
07FFC0
1FFFE0
3F87F0
3F03F0
7F03F8
7E01F8
FE01F8
FE01FC
FE01FC
FFFFFC
FFFFF8
FFFFF8
FE0000
FE0000
FF0000
FF0000
7F8000
7FC018
3FF0FC
1FFFF8
0FFFE0
03FFC0
ENDCHAR
STARTCHAR 00EA
ENCODING 234
SWIDTH 500 0
DWIDTH 25 0
BBX 22 36 2 0
BITMAP
001C00
003C00
007E00
00FF00
03FF80
07FFC0
0FC7E0
1F03F0
3E00F8
180070
000000
000000
000000
01FF00
07FFC0
1FFFE0
3F87F0
3F03F0
7F03F8
7E01F8
FE01F8
FE01FC
FE01FC
FFFFFC
FFFFF8
FFFFF8
FE0000
FE0000
FF0000
FF0000
7F8000
7FC018
3FF0FC
1FFFF8
0FFFE0
03FFC0
ENDCHAR
STARTCHAR 00EB
ENCODING 235
SWIDTH 500 0
DWIDTH 25 0
BBX 22 33 2 0
BITMAP
0F01E0
3F83F0
3F87F8
3F87F8
3F87F8
3F83F0
1F01E0
000000
000000
000000
01FF00
07FFC0
1FFFE0
3F87F0
3F03F0
7F03F8
7E01F8
FE01F8
FE01FC
FE01FC
FFFFFC
FFFFF8
FFFFF8
FE0000
FE0000
FF0000
FF0000
7F8000
7FC018
3FF0FC
1FFFF8
0FFFE0
03FFC0
ENDCHAR
STARTCHAR 00EC
ENCODING 236
SWIDTH 340 0
DWIDTH 17 0
BBX 15 36 1 0
BITMAP
1E00
FE00
7F00
3F00
1F00
0F80
0780
07C0
03C0
0000
0000
0000
0000
00E0
7FE0
7FF0
7FF0
1FF0
0FF0
0FF0
0FF0
0FF0
0FF0
0FF0
0FF0
0FF0
0FF0
0FF0
0FF0
0FF0
0FF0
0FF0
1FF8
7FFE
7FFE
7FFE
ENDCHAR
STARTCHAR 00ED
ENCODING 237
SWIDTH 340 0
DWIDTH 17 0
BBX 14 36 2 0
BITMAP
00FC
01F8
01F8
01F0
03E0
03C0
07C0
0780
0700
0100
0000
0000
0000
01C0
FFC0
FFE0
FFE0
3FE0
1FE0
1FE0
1FE0
1FE0
1FE0
1FE0
1FE0
1FE0
1FE0
1FE0
1FE0
1FE0
1FE0
1FE0
3FF0
FFFC
FFFC
FFFC
ENDCHAR
STARTCHAR 00EE
ENCODING 238
SWIDTH 340 0
DWIDTH 17 0
BBX 15 36 1 0
BITMAP
0180
07C0
07E0
0FF0
1FF0
3FF8
7CFC
F87C
F03E
601C
0000
0000
0000
00E0
7FE0
7FF0
7FF0
1FF0
0FF0
0FF0
0FF0
0FF0
0FF0
0FF0
0FF0
0FF0
0FF0
0FF0
0FF0
0FF0
0FF0
0FF0
1FF8
7FFE
7FFE
7FFE
ENDCHAR
STARTCHAR 00EF
ENCODING 239
SWIDTH 340 0
DWIDTH 17 0
BBX 17 33 0 0
BITMAP
3C1E00
7E3F80
FE3F80
FF7F80
FE3F80
FE3F80
3C1F00
000000
000000
000000
007000
3FF000
3FF800
3FF800
0FF800
07F800
07F800
07F800
07F800
07F800
07F800
07F800
07F800
07F800
07F800
07F800
07F800
07F800
07F800
0FFC00
3FFF00
3FFF00
3FFF00
ENDCHAR
STARTCHAR 00F0
ENCODING 240
SWIDTH 560 0
DWIDTH 28 0
BBX 24 36 2 0
BITMAP
003000
07FC00
07FE04
07FF1E
03FFFE
00FFFC
003FF0
003FF0
00FFF8
01FFF8
01E3FC
0181FC
0001FE
01FEFE
07FFFE
0FFFFF
1FC1FF
3F807F
7F007F
7F007F
FE007F
FE007F
FE007F
FE007F
FE007F
FE007F
FE007F
FE007F
FE007F
FF00FE
7F00FE
7F81FC
3FC1FC
1FFFF8
0FFFE0
03FF80
ENDCHAR
STARTCHAR 00F1
ENCODING 241
SWIDTH 640 0
DWIDTH 32 0
BBX 29 34 2 0
BITMAP
007C0000
00FF0700
03FFFF00
07FFFE00
079FFC00
0603F800
0000E000
00000000
00000000
00000000
00000000
01C1FC00
FFC7FF00
FFCFFF80
FFDFFF80
3FFEFFC0
1FE03FC0
1FE01FC0
1FE01FC0
1FE01FC0
1FE01FC0
1FE01FC0
1FE01FC0
1FE01FC0
1FE01FC0
1FE01FC0
1FE01FC0
1FE01FC0
1FE01FC0
1FE01FE0
3FF03FE0
FFFCFFF8
FFFCFFF8
FFFCFFF8
ENDCHAR
STARTCHAR 00F2
ENCODING 242
SWIDTH 560 0
DWIDTH 28 0
BBX 25 36 2 0
BITMAP
01E00000
07F00000
03F00000
01F00000
00F80000
00F80000
007C0000
003C0000
001E0000
00000000
00000000
00000000
00000000
01FFC000
07FFF000
0FFFF800
1F83FC00
3F01FE00
7F00FF00
7F00FF00
FE007F00
FE007F80
FE007F80
FE007F80
FE007F80
FE007F80
FE007F80
FF007F00
FF007F00
FF007F00
7F807E00
7F80FE00
3FC1FC00
1FFFF800
0FFFF000
01FFC000
ENDCHAR
STARTCHAR 00F3
ENCODING 243
SWIDTH 560 0
DWIDTH 28 0
BBX 25 36 2 0
BITMAP
0007F000
0007E000
0007C000
000F8000
000F8000
001F0000
001E0000
001E0000
003C0000
00000000
00000000
00000000
00000000
01FFC000
07FFF000
0FFFF800
1F83FC00
3F01FE00
7F00FF00
7F00FF00
FE007F00
FE007F80
FE007F80
FE007F80
FE007F80
FE007F80
FE007F80
FF007F00
FF007F00
FF007F00
7F807E00
7F80FE00
3FC1FC00
1FFFF800
0FFFF000
01FFC000
ENDCHAR
STARTCHAR 00F4
ENCODING 244
SWIDTH 560 0
DWIDTH 28 0
BBX 25 36 2 0
BITMAP
000C0000
003E0000
007F0000
00FF8000
01FFC000
03FFE000
07E3F000
1F81F800
1E007C00
0C003000
00000000
00000000
00000000
01FFC000
07FFF000
0FFFF800
1F83FC00
3F01FE00
7F00FF00
7F00FF00
FE007F00
FE007F80
FE007F80
FE007F80
FE007F80
FE007F80
FE007F80
FF007F00
FF007F00
FF007F00
7F807E00
7F80FE00
3FC1FC00
1FFFF800
0FFFF000
01FFC000
ENDCHAR
STARTCHAR 00F5
ENCODING 245
SWIDTH 560 0
DWIDTH 28 0
BBX 25 34 2 0
BITMAP
01E00000
07F83C00
0FFFF800
1FFFF800
1E7FF000
181FE000
00078000
00000000
00000000
00000000
00000000
01FFC000
07FFF000
0FFFF800
1F83FC00
3F01FE00
7F00FF00
7F00FF00
FE007F00
FE007F80
FE007F80
FE007F80
FE007F80
FE007F80
FE007F80
FF007F00
FF007F00
FF007F00
7F807E00
7F80FE00
3FC1FC00
1FFFF800
0FFFF000
01FFC000
ENDCHAR
STARTCHAR 00F6
ENCODING 246
SWIDTH 560 0
DWIDTH 28 0
BBX 25 33 2 0
BITMAP
0F00F000
1FC3F800
1FC3F800
1FC3FC00
1FC3F800
1FC3F800
0F81F000
00000000
00000000
00000000
01FFC000
07FFF000
0FFFF800
1F83FC00
3F01FE00
7F00FF00
7F00FF00
FE007F00
FE007F80
FE007F80
FE007F80
FE007F80
FE007F80
FE007F80
FF007F00
FF007F00
FF007F00
7F807E00
7F80FE00
3FC1FC00
1FFFF800
0FFFF000
01FFC000
ENDCHAR
STARTCHAR 00F7
ENCODING 247
SWIDTH 540 0
DWIDTH 27 0
BBX 24 24 2 1
BITMAP
003C00
007E00
00FE00
00FE00
00FE00
007E00
003800
000000
000000
000000
FFFFFF
FFFFFF
FFFFFE
FF800E
000000
000000
000000
003C00
007E00
00FE00
00FE00
007E00
007C00
001000
ENDCHAR
STARTCHAR 00F8
ENCODING 248
SWIDTH 560 0
DWIDTH 28 0
BBX 26 26 1 -2
BITMAP
000003C0
00FFE780
03FFFF80
07FFFF00
0FC1FE00
1F80FF00
3F80FF80
3F81FF80
7F03FF80
7F07FFC0
7F07BFC0
7F0F3FC0
7F1E3FC0
7F3E3FC0
7F7C3FC0
7FF83F80
7FF03F80
7FE03F80
3FC03F00
3FC07F00
1FE0FE00
1FFFFC00
3FFFF800
7DFFE000
F8000000
10000000
ENDCHAR
STARTCHAR 00F9
ENCODING 249
SWIDTH 600 0
DWIDTH 30 0
BBX 28 36 1 0
BITMAP
00780000
01FC0000
00FC0000
007C0000
007E0000
003E0000
001E0000
000F0000
000F0000
00000000
00000000
00000000
00000000
03C00780
FFC1FF80
FFC1FF80
FFC3FF80
3FC07F80
1FC03F80
1FC03F80
1FC03F80
1FC03F80
1FC03F80
1FC03F80
1FC03F80
1FC03F80
1FC03F80
1FC03F80
1FC03F80
1FC03F80
1FE03FC0
1FF03FE0
0FFEFFF0
0FFFFFF0
07FFBFF0
03FE3C00
ENDCHAR
STARTCHAR 00FA
ENCODING 250
SWIDTH 600 0
DWIDTH 30 0
BBX 28 36 1 0
BITMAP
0001FC00
0001F800
0003F000
0003E000
0003C000
0007C000
00078000
000F0000
000F0000
00000000
00000000
00000000
00000000
03C00780
FFC1FF80
FFC1FF80
FFC3FF80
3FC07F80
1FC03F80
1FC03F80
1FC03F80
1FC03F80
1FC03F80
1FC03F80
1FC03F80
1FC03F80
1FC03F80
1FC03F80
1FC03F80
1FC03F80
1FE03FC0
1FF03FE0
0FFEFFF0
0FFFFFF0
07FFBFF0
03FE3C00
ENDCHAR
STARTCHAR 00FB
ENCODING 251
SWIDTH 600 0
DWIDTH 30 0
BBX 28 36 1 0
BITMAP
00030000
000F8000
001FC000
003FE000
007FF000
00FFF800
01F1FC00
07E07E00
07801F00
03000C00
00000000
00000000
00000000
03C00780
FFC1FF80
FFC1FF80
FFC3FF80
3FC07F80
1FC03F80
1FC03F80
1FC03F80
1FC03F80
1FC03F80
1FC03F80
1FC03F80
1FC03F80
1FC03F80
1FC03F80
1FC03F80
1FC03F80
1FE03FC0
1FF03FE0
0FFEFFF0
0FFFFFF0
07FFBFF0
03FE3C00
ENDCHAR
STARTCHAR 00FC
ENCODING 252
SWIDTH 600 0
DWIDTH 30 0
BBX 28 33 1 0
BITMAP
03C07C00
07E0FE00
07F0FE00
0FF0FE00
07F0FE00
07F0FE00
03E07C00
00000000
00000000
00000000
03C00780
FFC1FF80
FFC1FF80
FFC3FF80
3FC07F80
1FC03F80
1FC03F80
1FC03F80
1FC03F80
1FC03F80
1FC03F80
1FC03F80
1FC03F80
1FC03F80
1FC03F80
1FC03F80
1FC03F80
1FE03FC0
1FF03FE0
0FFEFFF0
0FFFFFF0
07FFBFF0
03FE3C00
ENDCHAR
STARTCHAR 00FD
ENCODING 253
SWIDTH 560 0
DWIDTH 28 0
BBX 26 48 1 -12
BITMAP
0000FE00
0000FC00
0001F800
0001F000
0001F000
0003E000
0003C000
00078000
00078000
00000000
00000000
00000000
00000000
FFFC7FC0
FFFC7FC0
FFFC7FC0
7FF01F80
3FE01F00
1FE01E00
0FE01E00
0FF01C00
0FF03C00
07F83800
07F83800
03FC7800
03FC7000
01FEF000
01FEE000
00FEE000
00FFC000
007FC000
007FC000
003F8000
003F8000
003F0000
001F0000
001F0000
000E0000
001E0000
001C0000
003C0000
00780000
7BF80000
7FF00000
7FF00000
7FE00000
7FC00000
3F800000
ENDCHAR
STARTCHAR 00FE
ENCODING 254
SWIDTH 620 0
DWIDTH 31 0
BBX 28 48 1 -12
BITMAP
00400000
0FE00000
7FE00000
FFE00000
FFE00000
1FE00000
0FE00000
0FE00000
0FE00000
0FE00000
0FE00000
0FE00000
0FE00000
0FE1FE00
0FE7FF80
0FEFFFC0
0FFFFFE0
0FFC1FE0
0FF80FF0
0FF00FF0
0FF007F0
0FF007F0
0FE007F0
0FE007F0
0FE007F0
0FE007F0
0FE007F0
0FE007F0
0FE007E0
0FE00FE0
0FE00FC0
0FE01FC0
0FF03F80
0FFFFF00
0FFFFC00
0FFFF000
0FE00000
0FE00000
0FE00000
0FE00000
0FE00000
0FE00000
0FF00000
0FF00000
1FF80000
7FFF0000
FFFF0000
FFFF0000
ENDCHAR
STARTCHAR 00FF
ENCODING 255
SWIDTH 560 0
DWIDTH 28 0
BBX 26 45 1 -12
BITMAP
01E03E00
03F87F00
03F87F00
07F87F00
03F87F00
03F87F00
01F03E00
00000000
00000000
00000000
FFFC7FC0
FFFC7FC0
FFFC7FC0
7FF01F80
3FE01F00
1FE01E00
0FE01E00
0FF01C00
0FF03C00
07F83800
07F83800
03FC7800
03FC7000
01FEF000
01FEE000
00FEE000
00FFC000
007FC000
007FC000
003F8000
003F8000
003F0000
001F0000
001F0000
000E0000
001E0000
001C0000
003C0000
00780000
7BF80000
7FF00000
7FF00000
7FE00000
7FC00000
3F800000
ENDCHAR
STARTCHAR 0100
ENCODING 256
SWIDTH 700 0
DWIDTH 35 0
BBX 34 41 1 0
BITMAP
01FFFFC000
01FFFFC000
01FFFF8000
0000000000
0000000000
0000000000
0000000000
0001C00000
0003C00000
0003E00000
0007E00000
0007F00000
0007F00000
000FF80000
000FF80000
001FFC0000
001FFC0000
001DFC0000
0039FE0000
0039FE0000
0070FF0000
0070FF0000
00707F8000
00E07F8000
00E07FC000
01E03FC000
01C03FC000
03C01FE000
03801FE000
03FFFFF000
07FFFFF000
07FF8FF800
0F0007F800
0E0007FC00
0E0003FC00
1E0003FE00
1E0003FE00
3E0003FF00
FF800FFF80
FFC00FFFC0
FFC00FFFC0
ENDCHAR
STARTCHAR 0101
ENCODING 257
SWIDTH 540 0
DWIDTH 27 0
BBX 24 32 3 0
BITMAP
7FFFE0
7FFFE0
7FFFE0
000000
000000
000000
000000
000000
000000
00FF80
03FFC0
07FFE0
1E3FF0
3E0FF0
7E0FF0
7E07F0
FE07F0
FE07F0
000FF0
003FF0
01FFF0
07E7F0
1F87F0
7F07F0
7E07F0
7E07F0
FF07F8
FF07FC
7F8FFF
7FFFFF
3FF7FF
1FE3F8
ENDCHAR
STARTCHAR 0102
ENCODING 258
SWIDTH 700 0
DWIDTH 35 0
BBX 34 44 1 0
BITMAP
0070070000
00F0078000
00F80F0000
00FF7F0000
007FFF0000
007FFE0000
001FFC0000
0003E00000
0000000000
0000000000
0001C00000
0003C00000
0003E00000
0007E00000
0007F00000
0007F00000
000FF80000
000FF80000
001FFC0000
001FFC0000
001DFC0000
0039FE0000
0039FE0000
0070FF0000
0070FF0000
00707F8000
00E07F8000
00E07FC000
01E03FC000
01C03FC000
03C01FE000
03801FE000
03FFFFF000
07FFFFF000
07FF8FF800
0F0007F800
0E0007FC00
0E0003FC00
1E0003FE00
1E0003FE00
3E0003FF00
FF800FFF80
FFC00FFFC0
FFC00FFFC0
ENDCHAR
STARTCHAR 0103
ENCODING 259
SWIDTH 540 0
DWIDTH 27 0
BBX 24 35 3 1
BITMAP
F000E0
F800E0
7C01E0
7E03E0
7FFFC0
3FFFC0
1FFF80
0FFF00
03F800
000000
000000
000000
00FF80
03FFC0
07FFE0
1E3FF0
3E0FF0
7E0FF0
7E07F0
FE07F0
FE07F0
000FF0
003FF0
01FFF0
07E7F0
1F87F0
7F07F0
7E07F0
7E07F0
FF07F8
FF07FC
7F8FFF
7FFFFF
3FF7FF
1FE3F8
ENDCHAR
STARTCHAR 0104
ENCODING 260
SWIDTH 700 0
DWIDTH 35 0
BBX 34 46 1 -12
BITMAP
0001C00000
0003C00000
0003E00000
0007E00000
0007F00000
0007F00000
000FF80000
000FF80000
001FFC0000
001FFC0000
001DFC0000
0039FE0000
0039FE0000
0070FF0000
0070FF0000
00707F8000
00E07F8000
00E07FC000
01E03FC000
01C03FC000
03C01FE000
03801FE000
03FFFFF000
07FFFFF000
07FF8FF800
0F0007F800
0E0007FC00
0E0003FC00
1E0003FE00
1E0003FE00
3E0003FF00
FF800FFF80
FFC00FFFC0
FFC00FFFC0
000000F000
000003E000
000007C000
00000F8000
00001F8000
00001F8000
00001FC000
00001FFC00
00001FFE00
00001FFE00
00000FF800
000007E000
ENDCHAR
STARTCHAR 0105
ENCODING 261
SWIDTH 540 0
DWIDTH 27 0
BBX 24 35 3 -12
BITMAP
00FF80
03FFC0
07FFE0
1E3FF0
3E0FF0
7E0FF0
7E07F0
FE07F0
FE07F0
000FF0
003FF0
01FFF0
07E7F0
1F87F0
7F07F0
7E07F0
7E07F0
FF07F8
FF07FC
7F8FFF
7FFFFF
3FF7FF
1FE3F8
0001E0
0007C0
000F80
001F80
001F80
001F80
001FC0
001FFC
001FFE
001FFE
000FF8
0007E0
ENDCHAR
STARTCHAR 0106
ENCODING 262
SWIDTH 640 0
DWIDTH 32 0
BBX 28 44 2 0
BITMAP
00007E00
00007C00
0000FC00
0000F800
0001F000
0001E000
0003C000
00000000
00000000
00000000
001FFE00
007FFFC0
01FFFFF0
03F80FF0
0FF003E0
0FE003E0
1FC001E0
3F8001E0
3F8001E0
7F0001E0
7F0001C0
FF000000
FF000000
FF000000
FF000000
FF000000
FF000000
FF000000
FF000000
FF000000
FF000000
FF000000
FF800000
7F800000
7F800000
3FC00000
3FE00000
1FF00000
1FF80030
0FFC00F0
07FFDFF0
01FFFFE0
00FFFF80
001FFE00
ENDCHAR
STARTCHAR 0107
ENCODING 263
SWIDTH 460 0
DWIDTH 23 0
BBX 20 36 2 0
BITMAP
0007E0
000FC0
000F80
001F00
001F00
003E00
003C00
003C00
007800
000000
000000
000000
000000
01FF80
07FFE0
0FFFE0
1F87E0
3F03E0
7F01E0
7E01E0
FE01E0
FE0100
FE0000
FE0000
FE0000
FE0000
FE0000
FE0000
FF0000
FF0000
7F8000
7FC030
3FF1F0
1FFFF0
0FFFE0
03FF80
ENDCHAR
STARTCHAR 0108
ENCODING 264
SWIDTH 640 0
DWIDTH 32 0
BBX 28 44 2 0
BITMAP
0001E000
0003F000
000FFC00
001FFE00
007FFF00
00FC3F80
00700F80
00000000
00000000
00000000
001FFE00
007FFFC0
01FFFFF0
03F80FF0
0FF003E0
0FE003E0
1FC001E0
3F8001E0
3F8001E0
7F0001E0
7F0001C0
FF000000
FF000000
FF000000
FF000000
FF000000
FF000000
FF000000
FF000000
FF000000
FF000000
FF000000
FF800000
7F800000
7F800000
3FC00000
3FE00000
1FF00000
1FF80030
0FFC00F0
07FFDFF0
01FFFFE0
00FFFF80
001FFE00
ENDCHAR
STARTCHAR 0109
ENCODING 265
SWIDTH 460 0
DWIDTH 23 0
BBX 21 36 2 0
BITMAP
001C00
003C00
007E00
01FF00
03FF80
07FFC0
0FC7E0
1F03F0
3C00F8
180070
000000
000000
000000
01FF80
07FFE0
0FFFE0
1F87E0
3F03E0
7F01E0
7E01E0
FE01E0
FE0100
FE0000
FE0000
FE0000
FE0000
FE0000
FE0000
FF0000
FF0000
7F8000
7FC030
3FF1F0
1FFFF0
0FFFE0
03FF80
ENDCHAR
STARTCHAR 010A
ENCODING 266
SWIDTH 640 0
DWIDTH 32 0
BBX 28 43 2 0
BITMAP
0003E000
0007F000
0007F800
0007F800
0007F800
0007F000
0003E000
00000000
00000000
001FFE00
007FFFC0
01FFFFF0
03F80FF0
0FF003E0
0FE003E0
1FC001E0
3F8001E0
3F8001E0
7F0001E0
7F0001C0
FF000000
FF000000
FF000000
FF000000
FF000000
FF000000
FF000000
FF000000
FF000000
FF000000
FF000000
FF800000
7F800000
7F800000
3FC00000
3FE00000
1FF00000
1FF80030
0FFC00F0
07FFDFF0
01FFFFE0
00FFFF80
001FFE00
ENDCHAR
STARTCHAR 010B
ENCODING 267
SWIDTH 460 0
DWIDTH 23 0
BBX 20 33 2 0
BITMAP
00FC00
01FE00
01FE00
01FE00
01FE00
00FE00
007800
000000
000000
000000
01FF80
07FFE0
0FFFE0
1F87E0
3F03E0
7F01E0
7E01E0
FE01E0
FE0100
FE0000
FE0000
FE0000
FE0000
FE0000
FE0000
FF0000
FF0000
7F8000
7FC030
3FF1F0
1FFFF0
0FFFE0
03FF80
ENDCHAR
STARTCHAR 010C
ENCODING 268
SWIDTH 640 0
DWIDTH 32 0
BBX 28 44 2 0
BITMAP
00700300
00FC0F80
007F3F00
003FFE00
001FF800
000FF000
0007E000
00020000
00000000
00000000
001FFE00
007FFFC0
01FFFFF0
03F80FF0
0FF003E0
0FE003E0
1FC001E0
3F8001E0
3F8001E0
7F0001E0
7F0001C0
FF000000
FF000000
FF000000
FF000000
FF000000
FF000000
FF000000
FF000000
FF000000
FF000000
FF000000
FF800000
7F800000
7F800000
3FC00000
3FE00000
1FF00000
1FF80030
0FFC00F0
07FFDFF0
01FFFFE0
00FFFF80
001FFE00
ENDCHAR
STARTCHAR 010D
ENCODING 269
SWIDTH 460 0
DWIDTH 23 0
BBX 20 36 2 0
BITMAP
080000
1C00F0
3F01F0
1F87E0
0FEFC0
07FF80
03FF00
01FE00
00FC00
007800
000000
000000
000000
01FF80
07FFE0
0FFFE0
1F87E0
3F03E0
7F01E0
7E01E0
FE01E0
FE0100
FE0000
FE0000
FE0000
FE0000
FE0000
FE0000
FF0000
FF0000
7F8000
7FC030
3FF1F0
1FFFF0
0FFFE0
03FF80
ENDCHAR
STARTCHAR 010E
ENCODING 270
SWIDTH 720 0
DWIDTH 36 0
BBX 33 44 2 0
BITMAP
00E00E0000
01F83F0000
00FEFE0000
007FF80000
003FF00000
001FE00000
000F800000
0004000000
0000000000
0000000000
FFFFF00000
FFFFFF0000
FFFFFFC000
3FE03FF000
1FE00FF800
0FE007FC00
0FE003FE00
0FE001FE00
0FE000FF00
0FE000FF00
0FE000FF00
0FE0007F80
0FE0007F80
0FE0007F80
0FE0007F80
0FE0007F80
0FE0007F80
0FE0007F80
0FE0007F80
0FE0007F80
0FE0007F80
0FE0007F00
0FE0007F00
0FE0007F00
0FE000FE00
0FE000FE00
0FE001FC00
0FE001FC00
0FF003F800
1FF007F000
1FF81FE000
FFFFFF8000
FFFFFE0000
FFFFF00000
ENDCHAR
STARTCHAR 010F
ENCODING 271
SWIDTH 740 0
DWIDTH 37 0
BBX 34 36 2 0
BITMAP
0000020180
00007F1FC0
0003FF1FC0
0007FF1FC0
0007FF3FC0
0000FF3FC0
00007F07C0
00007F07C0
00007F07C0
00007F0780
00007F0780
00007F0F00
00007F0E00
00FFFF1E00
03FFFF0000
0FFFFF0000
1FC0FF0000
3F807F0000
3F007F0000
7F007F0000
7F007F0000
FE007F0000
FE007F0000
FE007F0000
FE007F0000
FE007F0000
FE007F0000
FE007F0000
FF00FF0000
FF00FF0000
FF81FF8000
7F83FFC000
7FFFBFE000
3FFF3FE000
1FFE3FE000
07FC3C0000
ENDCHAR
STARTCHAR 0110
ENCODING 272
SWIDTH 720 0
DWIDTH 36 0
BBX 34 34 1 0
BITMAP
7FFFF80000
7FFFFF8000
7FFFFFE000
1FF01FF800
0FF007FC00
07F003FE00
07F001FF00
07F000FF00
07F0007F80
07F0007F80
07F0007F80
07F0003FC0
07F0003FC0
07F0003FC0
07F0003FC0
7FFFE03FC0
7FFFE03FC0
FFFFE03FC0
FFFFE03FC0
07F0003FC0
07F0003FC0
07F0003F80
07F0003F80
07F0003F80
07F0007F00
07F0007F00
07F000FE00
07F000FE00
07F801FC00
0FF803F800
0FFC0FF000
7FFFFFC000
7FFFFF0000
7FFFF80000
ENDCHAR
STARTCHAR 0111
ENCODING 273
SWIDTH 600 0
DWIDTH 30 0
BBX 27 36 2 0
BITMAP
00000200
00007F00
0003FF00
0007FF00
0007FF00
0000FF00
00007F00
00007F00
001FFFE0
001FFFE0
00007F00
00007F00
00007F00
00FFFF00
03FFFF00
0FFFFF00
1FC0FF00
3F807F00
3F007F00
7F007F00
7F007F00
FE007F00
FE007F00
FE007F00
FE007F00
FE007F00
FE007F00
FF007F00
FF007F00
FF007F00
FF807F00
7FC07FC0
7FF1FFE0
3FFFFFE0
1FFF7FE0
07FC7800
ENDCHAR
STARTCHAR 0112
ENCODING 274
SWIDTH 620 0
DWIDTH 31 0
BBX 28 41 2 0
BITMAP
0FFFFE00
0FFFFC00
0FFFFC00
00000000
00000000
00000000
00000000
FFFFFF80
FFFFFF80
FFFFFF80
3FE03F80
1FE00F80
0FE007C0
0FE003C0
0FE003C0
0FE003C0
0FE00000
0FE00000
0FE01800
0FE03800
0FE07800
0FE07800
0FE3F800
0FFFF800
0FFFF800
0FFFF800
0FE07800
0FE07800
0FE03800
0FE03800
0FE00000
0FE00080
0FE000E0
0FE001F0
0FE001E0
0FF003E0
1FF007E0
1FF81FE0
FFFFFFE0
FFFFFFC0
FFFFFFC0
ENDCHAR
STARTCHAR 0113
ENCODING 275
SWIDTH 500 0
DWIDTH 25 0
BBX 22 32 2 0
BITMAP
3FFFF8
3FFFF8
3FFFF0
000000
000000
000000
000000
000000
000000
01FF00
07FFC0
1FFFE0
3F87F0
3F03F0
7F03F8
7E01F8
FE01F8
FE01FC
FE01FC
FFFFFC
FFFFF8
FFFFF8
FE0000
FE0000
FF0000
FF0000
7F8000
7FC018
3FF0FC
1FFFF8
0FFFE0
03FFC0
ENDCHAR
STARTCHAR 0114
ENCODING 276
SWIDTH 620 0
DWIDTH 31 0
BBX 28 44 2 0
BITMAP
03803800
07803800
07C07800
07FBF800
03FFF000
03FFF000
01FFC000
001E0000
00000000
00000000
FFFFFF80
FFFFFF80
FFFFFF80
3FE03F80
1FE00F80
0FE007C0
0FE003C0
0FE003C0
0FE003C0
0FE00000
0FE00000
0FE01800
0FE03800
0FE07800
0FE07800
0FE3F800
0FFFF800
0FFFF800
0FFFF800
0FE07800
0FE07800
0FE03800
0FE03800
0FE00000
0FE00080
0FE000E0
0FE001F0
0FE001E0
0FF003E0
1FF007E0
1FF81FE0
FFFFFFE0
FFFFFFC0
FFFFFFC0
ENDCHAR
STARTCHAR 0115
ENCODING 277
SWIDTH 500 0
DWIDTH 25 0
BBX 22 36 2 0
BITMAP
000020
3C0078
3C0078
3E00F0
3F01F0
1FFFF0
1FFFE0
0FFFC0
07FF80
00FE00
000000
000000
000000
01FF00
07FFC0
1FFFE0
3F87F0
3F03F0
7F03F8
7E01F8
FE01F8
FE01FC
FE01FC
FFFFFC
FFFFF8
FFFFF8
FE0000
FE0000
FF0000
FF0000
7F8000
7FC018
3FF0FC
1FFFF8
0FFFE0
03FFC0
ENDCHAR
STARTCHAR 0116
ENCODING 278
SWIDTH 620 0
DWIDTH 31 0
BBX 28 43 2 0
BITMAP
001F0000
007F8000
007F8000
007F8000
007F8000
007F8000
003F0000
00000000
00000000
FFFFFF80
FFFFFF80
FFFFFF80
3FE03F80
1FE00F80
0FE007C0
0FE003C0
0FE003C0
0FE003C0
0FE00000
0FE00000
0FE01800
0FE03800
0FE07800
0FE07800
0FE3F800
0FFFF800
0FFFF800
0FFFF800
0FE07800
0FE07800
0FE03800
0FE03800
0FE00000
0FE00080
0FE000E0
0FE001F0
0FE001E0
0FF003E0
1FF007E0
1FF81FE0
FFFFFFE0
FFFFFFC0
FFFFFFC0
ENDCHAR
STARTCHAR 0117
ENCODING 279
SWIDTH 500 0
DWIDTH 25 0
BBX 22 33 2 0
BITMAP
00FC00
01FE00
01FE00
01FE00
01FE00
00FE00
007800
000000
000000
000000
01FF00
07FFC0
1FFFE0
3F87F0
3F03F0
7F03F8
7E01F8
FE01F8
FE01FC
FE01FC
FFFFFC
FFFFF8
FFFFF8
FE0000
FE0000
FF0000
FF0000
7F8000
7FC018
3FF0FC
1FFFF8
0FFFE0
03FFC0
ENDCHAR
STARTCHAR 0118
ENCODING 280
SWIDTH 620 0
DWIDTH 31 0
BBX 28 46 2 -12
BITMAP
FFFFFF80
FFFFFF80
FFFFFF80
3FE03F80
1FE00F80
0FE007C0
0FE003C0
0FE003C0
0FE003C0
0FE00000
0FE00000
0FE01800
0FE03800
0FE07800
0FE07800
0FE3F800
0FFFF800
0FFFF800
0FFFF800
0FE07800
0FE07800
0FE03800
0FE03800
0FE00000
0FE00080
0FE000E0
0FE001F0
0FE001E0
0FF003E0
1FF007E0
1FF81FE0
FFFFFFE0
FFFFFFC0
FFFFFFC0
00003C00
0000F800
0001F000
0003E000
0007E000
0007E000
0007F000
0007FF00
0007FF80
0007FF80
0003FF00
0001F800
ENDCHAR
STARTCHAR 0119
ENCODING 281
SWIDTH 500 0
DWIDTH 25 0
BBX 22 35 2 -12
BITMAP
01FF00
07FFC0
1FFFE0
3F87F0
3F03F0
7F03F8
7E01F8
FE01F8
FE01FC
FE01FC
FFFFFC
FFFFF8
FFFFF8
FE0000
FE0000
FF0000
FF0000
7F8000
7FC018
3FF0FC
1FFFF8
0FFFF0
03FFC0
000780
000F00
001E00
003E00
007E00
007E00
007F00
007FF8
007FF8
007FF8
003FF0
001F80
ENDCHAR
STARTCHAR 011A
ENCODING 282
SWIDTH 620 0
DWIDTH 31 0
BBX 28 44 2 0
BITMAP
07803800
0FC0F800
07FBF000
03FFE000
00FF8000
007F0000
003E0000
00100000
00000000
00000000
FFFFFF80
FFFFFF80
FFFFFF80
3FE03F80
1FE00F80
0FE007C0
0FE003C0
0FE003C0
0FE003C0
0FE00000
0FE00000
0FE01800
0FE03800
0FE07800
0FE07800
0FE3F800
0FFFF800
0FFFF800
0FFFF800
0FE07800
0FE07800
0FE03800
0FE03800
0FE00000
0FE00080
0FE000E0
0FE001F0
0FE001E0
0FF003E0
1FF007E0
1FF81FE0
FFFFFFE0
FFFFFFC0
FFFFFFC0
ENDCHAR
STARTCHAR 011B
ENCODING 283
SWIDTH 500 0
DWIDTH 25 0
BBX 22 36 2 0
BITMAP
080000
1C00F0
3F01F0
1F87E0
0FEFC0
07FF80
03FF00
01FE00
00FC00
007800
000000
000000
000000
01FF00
07FFC0
1FFFE0
3F87F0
3F03F0
7F03F8
7E01F8
FE01F8
FE01FC
FE01FC
FFFFFC
FFFFF8
FFFFF8
FE0000
FE0000
FF0000
FF0000
7F8000
7FC018
3FF0FC
1FFFF8
0FFFE0
03FFC0
ENDCHAR
STARTCHAR 011C
ENCODING 284
SWIDTH 700 0
DWIDTH 35 0
BBX 31 44 2 0
BITMAP
0001F000
0003F800
0007FC00
001FFE00
003FFF00
00FE1FC0
00780780
00200200
00000000
00000000
000FFF00
007FFFE0
01FFFFF8
03FC07F8
0FF001F8
1FE000F8
1FC000F8
3F8000F8
7F800078
7F800078
7F000040
FF000000
FF000000
FF000000
FF000000
FF000000
FF000000
FF000000
FF003FFE
FF003FFE
FF001FFE
FF0003F8
FF0003F8
7F8001F8
7F8001F8
7FC001F8
3FC001F8
1FE001F8
1FF001F8
0FF803F8
07FC07FC
03FFFFF8
00FFFFE0
001FFF00
ENDCHAR
STARTCHAR 011D
ENCODING 285
SWIDTH 540 0
DWIDTH 27 0
BBX 25 48 1 -12
BITMAP
000C0000
003E0000
007F0000
00FF8000
01FFC000
03FFE000
0FC7F000
1F01F800
1E00F800
08003000
00000000
00000000
00000000
03FFFF80
0FFFFF80
1FEFFF80
3F83F980
3F81FC00
7F01FC00
7F01FC00
7F01FE00
7F00FE00
7F81FC00
3F81FC00
3F81FC00
1FC3F800
1FFFF000
07FFE000
0FFF0000
1F000000
3E000000
3F000000
3FFFF000
3FFFFC00
3FFFFF00
3FFFFF00
1FFFFF00
1FFFFF80
3E3FFF80
7E003F00
7C003F00
7C003F00
FC003E00
7E007E00
7F01FC00
7FFFF000
3FFFE000
0FFF0000
ENDCHAR
STARTCHAR 011E
ENCODING 286
SWIDTH 700 0
DWIDTH 35 0
BBX 31 44 2 0
BITMAP
00380380
00780380
007C0780
007FBF80
003FFF00
003FFF00
001FFE00
0001E000
00000000
00000000
000FFF00
007FFFE0
01FFFFF8
03FC07F8
0FF001F8
1FE000F8
1FC000F8
3F8000F8
7F800078
7F800078
7F000040
FF000000
FF000000
FF000000
FF000000
FF000000
FF000000
FF000000
FF003FFE
FF003FFE
FF001FFE
FF0003F8
FF0003F8
7F8001F8
7F8001F8
7FC001F8
3FC001F8
1FE001F8
1FF001F8
0FF803F8
07FC07FC
03FFFFF8
00FFFFE0
001FFF00
ENDCHAR
STARTCHAR 011F
ENCODING 287
SWIDTH 540 0
DWIDTH 27 0
BBX 25 47 1 -11
BITMAP
3C003800
3E007800
3E007800
1F81F800
1FFFF000
0FFFF000
0FFFE000
03FFC000
00FE0000
00000000
00000000
00000000
03FFFF80
0FFFFF80
1FEFFF80
3F83F980
3F81FC00
7F01FC00
7F01FC00
7F01FE00
7F00FE00
7F81FC00
3F81FC00
3F81FC00
1FC3F800
1FFFF000
07FFE000
0FFF0000
1F000000
3E000000
3F000000
3FFFF000
3FFFFC00
3FFFFF00
3FFFFF00
1FFFFF00
1FFFFF80
3E3FFF80
7E003F00
7C003F00
7C003F00
FC003E00
7E007E00
7F01FC00
7FFFF000
3FFFE000
0FFF0000
ENDCHAR
STARTCHAR 0120
ENCODING 288
SWIDTH 700 0
DWIDTH 35 0
BBX 31 43 2 0
BITMAP
0001F000
0007F800
0007F800
0007F800
0007F800
0007F800
0003F000
00000000
00000000
000FFF00
007FFFE0
01FFFFF8
03FC07F8
0FF001F8
1FE000F8
1FC000F8
3F8000F8
7F800078
7F800078
7F000040
FF000000
FF000000
FF000000
FF000000
FF000000
FF000000
FF000000
FF003FFE
FF003FFE
FF001FFE
FF0003F8
FF0003F8
7F8001F8
7F8001F8
7FC001F8
3FC001F8
1FE001F8
1FF001F8
0FF803F8
07FC07FC
03FFFFF8
00FFFFE0
001FFF00
ENDCHAR
STARTCHAR 0121
ENCODING 289
SWIDTH 540 0
DWIDTH 27 0
BBX 25 45 1 -12
BITMAP
007E0000
00FE0000
01FF0000
01FF0000
00FF0000
00FE0000
007C0000
00000000
00000000
00000000
03FFFF80
0FFFFF80
1FEFFF80
3F83F980
3F81FC00
7F01FC00
7F01FC00
7F01FE00
7F00FE00
7F81FC00
3F81FC00
3F81FC00
1FC3F800
1FFFF000
07FFE000
0FFF0000
1F000000
3E000000
3F000000
3FFFF000
3FFFFC00
3FFFFF00
3FFFFF00
1FFFFF00
1FFFFF80
3E3FFF80
7E003F00
7C003F00
7C003F00
FC003E00
7E007E00
7F01FC00
7FFFF000
3FFFE000
0FFF0000
ENDCHAR
STARTCHAR 0122
ENCODING 290
SWIDTH 700 0
DWIDTH 35 0
BBX 31 49 2 -15
BITMAP
000FFF00
007FFFE0
01FFFFF8
03FC07F8
0FF001F8
1FE000F8
1FC000F8
3F8000F8
7F800078
7F800078
7F000040
FF000000
FF000000
FF000000
FF000000
FF000000
FF000000
FF000000
FF003FFE
FF003FFE
FF001FFE
FF0003F8
FF0003F8
7F8001F8
7F8001F8
7FC001F8
3FC001F8
1FE001F8
1FF001F8
0FF803F8
07FC07FC
03FFFFF8
00FFFFE0
001FFF00
00000000
00000000
00003000
0003F800
0007F800
0007F800
0007F800
0007F800
0001F800
0000F000
0001F000
0001E000
0003C000
00078000
00030000
ENDCHAR
STARTCHAR 0123
ENCODING 291
SWIDTH 540 0
DWIDTH 27 0
BBX 25 48 1 -12
BITMAP
001E0000
003C0000
007C0000
00780000
00F80000
00FE0000
00FF0000
01FE0000
00FE0000
00FE0000
00400000
00000000
00000000
03FFFF80
0FFFFF80
1FEFFF80
3F83F980
3F81FC00
7F01FC00
7F01FC00
7F01FE00
7F00FE00
7F81FC00
3F81FC00
3F81FC00
1FC3F800
1FFFF000
07FFE000
0FFF0000
1F000000
3E000000
3F000000
3FFFF000
3FFFFC00
3FFFFF00
3FFFFF00
1FFFFF00
1FFFFF80
3E3FFF80
7E003F00
7C003F00
7C003F00
FC003E00
7E007E00
7F01FC00
7FFFF000
3FFFE000
0FFF0000
ENDCHAR
STARTCHAR 0124
ENCODING 292
SWIDTH 760 0
DWIDTH 38 0
BBX 35 44 2 0
BITMAP
0000F00000
0003F80000
0007FC0000
000FFE0000
003FFF8000
007E1FC000
0078078000
0000000000
0000000000
0000000000
FFFE0FFFE0
FFFE0FFFE0
FFFE0FFFE0
3FF803FF80
1FF001FF00
0FE001FE00
0FE000FE00
0FE000FE00
0FE000FE00
0FE000FE00
0FE000FE00
0FE000FE00
0FE000FE00
0FE000FE00
0FE000FE00
0FFFFFFE00
0FFFFFFE00
0FFFFFFE00
0FF000FE00
0FE000FE00
0FE000FE00
0FE000FE00
0FE000FE00
0FE000FE00
0FE000FE00
0FE000FE00
0FE000FE00
0FE000FE00
0FE000FE00
1FF001FF00
1FF001FF00
FFFE0FFFE0
FFFE0FFFE0
FFFE0FFFE0
ENDCHAR
STARTCHAR 0125
ENCODING 293
SWIDTH 640 0
DWIDTH 32 0
BBX 30 44 1 0
BITMAP
000F8000
001FC000
003FE000
00FFF000
01FFF800
07F0FE00
03C03C00
01001000
00400000
0FE00000
7FE00000
FFE00000
FFE00000
1FE00000
0FE00000
0FE00000
0FE00000
0FE00000
0FE00000
0FE00000
0FE00000
0FE0FE00
0FE3FF00
0FEFFF80
0FFFFFC0
0FFEFFC0
0FE01FE0
0FE01FE0
0FE00FE0
0FE00FE0
0FE00FE0
0FE00FE0
0FE00FE0
0FE00FE0
0FE00FE0
0FE00FE0
0FE00FE0
0FE00FE0
0FE00FE0
0FF01FE0
1FF01FF0
7FFC7FFC
FFFC7FFC
FFFC7FFC
ENDCHAR
STARTCHAR 0126
ENCODING 294
SWIDTH 760 0
DWIDTH 38 0
BBX 35 34 2 0
BITMAP
FFFE0FFFE0
FFFE0FFFE0
FFFE0FFFE0
3FF803FF80
1FF001FF00
0FE001FE00
0FE000FE00
0FE000FE00
7FFFFFFFC0
7FFFFFFFC0
FFFFFFFFC0
FFF800FE00
0FE000FE00
0FE000FE00
0FE000FE00
0FFFFFFE00
0FFFFFFE00
0FFFFFFE00
0FF000FE00
0FE000FE00
0FE000FE00
0FE000FE00
0FE000FE00
0FE000FE00
0FE000FE00
0FE000FE00
0FE000FE00
0FE000FE00
0FE000FE00
1FF001FF00
1FF001FF00
FFFE0FFFE0
FFFE0FFFE0
FFFE0FFFE0
ENDCHAR
STARTCHAR 0127
ENCODING 295
SWIDTH 640 0
DWIDTH 32 0
BBX 31 36 0 0
BITMAP
00200000
07F00000
3FF00000
7FF00000
7FF00000
0FF00000
07F00000
07F00000
7FFF8000
FFFF8000
FFFF8000
E7F00000
07F00000
07F07F00
07F1FF80
07F7FFC0
07FFFFE0
07FF7FE0
07F00FF0
07F00FF0
07F007F0
07F007F0
07F007F0
07F007F0
07F007F0
07F007F0
07F007F0
07F007F0
07F007F0
07F007F0
07F007F0
07F80FF0
0FF80FF8
3FFE3FFE
7FFE3FFE
7FFE3FFE
ENDCHAR
STARTCHAR 0128
ENCODING 296
SWIDTH 380 0
DWIDTH 19 0
BBX 17 43 1 0
BITMAP
0F8200
3FC780
7FFF80
7FFF00
FFFE00
60FC00
000000
000000
000000
7FFF00
7FFF00
7FFF00
1FFC00
0FF800
07F000
07F000
07F000
07F000
07F000
07F000
07F000
07F000
07F000
07F000
07F000
07F000
07F000
07F000
07F000
07F000
07F000
07F000
07F000
07F000
07F000
07F000
07F000
07F000
0FF800
0FF800
7FFF00
7FFF00
7FFF00
ENDCHAR
STARTCHAR 0129
ENCODING 297
SWIDTH 340 0
DWIDTH 17 0
BBX 17 33 0 1
BITMAP
1F8180
3FFF80
7FFF80
7FFF00
FFFF00
E0FE00
407C00
000000
000000
000000
007000
3FF000
3FF800
3FF800
0FF800
07F800
07F800
07F800
07F800
07F800
07F800
07F800
07F800
07F800
07F800
07F800
07F800
07F800
07F800
0FFC00
3FFF00
3FFF00
3FFF00
ENDCHAR
STARTCHAR 012A
ENCODING 298
SWIDTH 380 0
DWIDTH 19 0
BBX 15 41 2 0
BITMAP
FFFE
FFFE
FFFE
0000
0000
0000
0000
FFFE
FFFE
FFFE
3FF8
1FF0
0FE0
0FE0
0FE0
0FE0
0FE0
0FE0
0FE0
0FE0
0FE0
0FE0
0FE0
0FE0
0FE0
0FE0
0FE0
0FE0
0FE0
0FE0
0FE0
0FE0
0FE0
0FE0
0FE0
0FE0
1FF0
1FF0
FFFE
FFFE
FFFE
ENDCHAR
STARTCHAR 012B
ENCODING 299
SWIDTH 340 0
DWIDTH 17 0
BBX 15 32 1 0
BITMAP
7FFC
7FFC
FFFC
FFF0
0000
0000
0000
0000
0000
00E0
7FE0
7FF0
7FF0
1FF0
0FF0
0FF0
0FF0
0FF0
0FF0
0FF0
0FF0
0FF0
0FF0
0FF0
0FF0
0FF0
0FF0
0FF0
1FF8
7FFE
7FFE
7FFE
ENDCHAR
STARTCHAR 012C
ENCODING 300
SWIDTH 380 0
DWIDTH 19 0
BBX 15 44 2 0
BITMAP
6004
E00E
F00E
F81E
FFFE
7FFC
3FF8
1FF0
0000
0000
FFFE
FFFE
FFFE
3FF8
1FF0
0FE0
0FE0
0FE0
0FE0
0FE0
0FE0
0FE0
0FE0
0FE0
0FE0
0FE0
0FE0
0FE0
0FE0
0FE0
0FE0
0FE0
0FE0
0FE0
0FE0
0FE0
0FE0
0FE0
0FE0
1FF0
1FF0
FFFE
FFFE
FFFE
ENDCHAR
STARTCHAR 012D
ENCODING 301
SWIDTH 340 0
DWIDTH 17 0
BBX 17 36 0 0
BITMAP
000200
F00780
F80780
780700
7C0F00
7FFF00
3FFE00
3FFE00
1FFC00
03E000
000000
000000
000000
007000
3FF000
3FF800
3FF800
0FF800
07F800
07F800
07F800
07F800
07F800
07F800
07F800
07F800
07F800
07F800
07F800
07F800
07F800
07F800
0FFC00
3FFF00
3FFF00
3FFF00
ENDCHAR
STARTCHAR 012E
ENCODING 302
SWIDTH 380 0
DWIDTH 19 0
BBX 15 46 2 -12
BITMAP
FFFE
FFFE
FFFE
3FF8
1FF0
0FE0
0FE0
0FE0
0FE0
0FE0
0FE0
0FE0
0FE0
0FE0
0FE0
0FE0
0FE0
0FE0
0FE0
0FE0
0FE0
0FE0
0FE0
0FE0
0FE0
0FE0
0FE0
0FE0
0FE0
1FF0
1FF0
FFFE
FFFE
FFFE
03C0
0F80
1F00
3E00
7E00
7E00
7F00
7FF8
7FF8
7FF8
3FF0
1F80
ENDCHAR
STARTCHAR 012F
ENCODING 303
SWIDTH 340 0
DWIDTH 17 0
BBX 14 47 2 -12
BITMAP
0200
1FC0
1FC0
3FE0
3FE0
1FC0
1FC0
0700
0000
0000
0000
0000
01C0
FFC0
FFE0
FFE0
3FE0
1FE0
1FE0
1FE0
1FE0
1FE0
1FE0
1FE0
1FE0
1FE0
1FE0
1FE0
1FE0
1FE0
1FE0
3FF0
FFFC
FFFC
FFFC
0780
0F00
3E00
3E00
7E00
7E00
FE00
FFF0
7FF0
7FF8
3FE0
1F80
ENDCHAR
STARTCHAR 0130
ENCODING 304
SWIDTH 380 0
DWIDTH 19 0
BBX 15 43 2 0
BITMAP
07C0
0FE0
1FF0
1FF0
1FF0
0FE0
07C0
0000
0000
FFFE
FFFE
FFFE
3FF8
1FF0
0FE0
0FE0
0FE0
0FE0
0FE0
0FE0
0FE0
0FE0
0FE0
0FE0
0FE0
0FE0
0FE0
0FE0
0FE0
0FE0
0FE0
0FE0
0FE0
0FE0
0FE0
0FE0
0FE0
0FE0
1FF0
1FF0
FFFE
FFFE
FFFE
ENDCHAR
STARTCHAR 0131
ENCODING 305
SWIDTH 340 0
DWIDTH 17 0
BBX 14 23 2 0
BITMAP
01C0
FFC0
FFE0
FFE0
3FE0
1FE0
1FE0
1FE0
1FE0
1FE0
1FE0
1FE0
1FE0
1FE0
1FE0
1FE0
1FE0
1FE0
1FE0
3FF0
FFFC
FFFC
FFFC
ENDCHAR
STARTCHAR 0132
ENCODING 306
SWIDTH 680 0
DWIDTH 34 0
BBX 31 46 2 -12
BITMAP
FFFEFFFE
FFFEFFFE
FFFEFFFE
3FF83FF8
1FF01FF0
0FE01FE0
0FE00FE0
0FE00FE0
0FE00FE0
0FE00FE0
0FE00FE0
0FE00FE0
0FE00FE0
0FE00FE0
0FE00FE0
0FE00FE0
0FE00FE0
0FE00FE0
0FE00FE0
0FE00FE0
0FE00FE0
0FE00FE0
0FE00FE0
0FE00FE0
0FE00FE0
0FE00FE0
0FE00FE0
0FE00FE0
0FE00FE0
1FF00FE0
1FF00FE0
FFFE0FE0
FFFE0FE0
FFFE0FE0
00001FE0
00001FC0
00001FC0
00001FC0
00001F80
00003F80
00007F00
00007E00
0000FC00
0001F800
0003E000
0001C000
ENDCHAR
STARTCHAR 0133
ENCODING 307
SWIDTH 580 0
DWIDTH 29 0
BBX 25 47 2 -12
BITMAP
02000800
1FC03F00
1FC07F80
3FE07F80
3FE07F80
1FC07F80
1FC07F00
07001C00
00000000
00000000
00000000
00000000
01C00700
FFC3FF80
FFE3FF80
FFE3FF80
3FE0FF80
1FE07F80
1FE03F80
1FE03F80
1FE03F80
1FE03F80
1FE03F80
1FE03F80
1FE03F80
1FE03F80
1FE03F80
1FE03F80
1FE03F80
1FE03F80
1FE03F80
3FF03F80
FFFC3F80
FFFC3F80
FFFC3F80
00003F00
00007F00
00007F00
00007E00
00007E00
0000FC00
0000FC00
0001F800
0003F000
0007E000
0007C000
00030000
ENDCHAR
STARTCHAR 0134
ENCODING 308
SWIDTH 360 0
DWIDTH 18 0
BBX 16 56 0 -12
BITMAP
00E0
01F0
07F8
0FFC
1FFC
3F7E
7C3F
380F
0000
0000
7FFF
3FFF
3FFF
0FFC
07F8
07F8
07F8
07F8
07F8
07F8
07F8
07F8
07F8
07F8
07F8
07F8
07F8
07F8
07F8
07F8
07F8
07F8
07F8
07F8
07F8
07F8
07F8
07F8
07F8
07F8
07F8
07F0
07F0
07F0
07F0
07F0
07F0
0FE0
0FE0
0FC0
1F80
3F80
7F00
FC00
F800
E000
ENDCHAR
STARTCHAR 0135
ENCODING 309
SWIDTH 300 0
DWIDTH 15 0
BBX 15 48 1 -12
BITMAP
0180
07C0
0FE0
0FE0
1FF0
3FF8
7CFC
F87C
F03E
6018
0000
0000
0000
01E0
7FE0
7FE0
7FE0
1FE0
0FE0
0FE0
0FE0
0FE0
0FE0
0FE0
0FE0
0FE0
0FE0
0FE0
0FE0
0FE0
0FE0
0FE0
0FE0
0FE0
0FE0
0FE0
0FE0
0FE0
0FC0
0FC0
1FC0
1F80
3F00
3F00
7E00
FC00
F000
E000
ENDCHAR
STARTCHAR 0136
ENCODING 310
SWIDTH 720 0
DWIDTH 36 0
BBX 33 49 2 -15
BITMAP
FFFE0FFE00
FFFE0FFE00
FFFE0FFE00
3FF807F800
1FF007E000
0FE007C000
0FE00F8000
0FE01F0000
0FE03E0000
0FE07C0000
0FE0F80000
0FE1F00000
0FE3E00000
0FE7C00000
0FEFC00000
0FFFC00000
0FFFE00000
0FFFF00000
0FFFF80000
0FEFFC0000
0FE7FC0000
0FE3FE0000
0FE1FF0000
0FE0FF8000
0FE0FF8000
0FE07FC000
0FE03FE000
0FE03FE000
0FE01FF000
1FF00FF800
1FF00FFE00
FFFE07FF80
FFFE03FF80
FFFE03FF80
0000000000
0000000000
0000600000
0007F00000
000FF00000
000FF00000
000FF00000
000FF00000
0003F00000
0001E00000
0003E00000
0003C00000
0007800000
000F000000
0006000000
ENDCHAR
STARTCHAR 0137
ENCODING 311
SWIDTH 600 0
DWIDTH 30 0
BBX 29 51 1 -15
BITMAP
00400000
0FE00000
7FE00000
FFE00000
FFE00000
1FE00000
0FE00000
0FE00000
0FE00000
0FE00000
0FE00000
0FE00000
0FE00000
0FE07FF0
0FE07FF0
0FE07FF0
0FE03FC0
0FE03E00
0FE03C00
0FE07800
0FE0F000
0FE3E000
0FE7E000
0FEFF000
0FEFF000
0FE7F800
0FE3FC00
0FE3FE00
0FE1FF00
0FE0FF00
0FE07F80
0FE03FC0
1FF03FF0
7FFC1FF8
FFFC0FF8
FFFC07F8
00000000
00000000
00018000
001FC000
003FC000
003FC000
003FC000
003FC000
000FC000
00078000
000F8000
000F0000
001E0000
003C0000
00180000
ENDCHAR
STARTCHAR 0138
ENCODING 312
SWIDTH 600 0
DWIDTH 30 0
BBX 28 23 2 0
BITMAP
01C1FFC0
FFC1FFC0
FFE1FFC0
FFE0FE00
3FE0F800
1FE1F000
1FE3E000
1FE7C000
1FEF8000
1FFF8000
1FFFC000
1FFFE000
1FFFF000
1FEFF000
1FEFF800
1FE7FC00
1FE3FE00
1FE1FF00
1FE0FF00
3FE0FFC0
FFF87FF0
FFF83FF0
FFF81FE0
ENDCHAR
STARTCHAR 0139
ENCODING 313
SWIDTH 600 0
DWIDTH 30 0
BBX 27 44 2 0
BITMAP
00FC0000
01F80000
01F00000
01F00000
03E00000
03C00000
07800000
00000000
00000000
00000000
FFFE0000
FFFE0000
FFFE0000
3FF80000
1FF00000
0FE00000
0FE00000
0FE00000
0FE00000
0FE00000
0FE00000
0FE00000
0FE00000
0FE00000
0FE00000
0FE00000
0FE00000
0FE00000
0FE00000
0FE00000
0FE00000
0FE00000
0FE00000
0FE00000
0FE00000
0FE001E0
0FE001E0
0FE003E0
0FF003E0
1FF007C0
1FF81FC0
FFFFFFC0
FFFFFFC0
FFFFFFC0
ENDCHAR
STARTCHAR 013A
ENCODING 314
SWIDTH 340 0
DWIDTH 17 0
BBX 15 46 1 0
BITMAP
0010
00FC
01F8
01F0
03E0
03C0
07C0
0380
0000
0000
0040
0FE0
7FE0
FFE0
FFE0
1FE0
0FE0
0FE0
0FE0
0FE0
0FE0
0FE0
0FE0
0FE0
0FE0
0FE0
0FE0
0FE0
0FE0
0FE0
0FE0
0FE0
0FE0
0FE0
0FE0
0FE0
0FE0
0FE0
0FE0
0FE0
0FE0
0FF0
1FF0
7FFC
FFFE
FFFE
ENDCHAR
STARTCHAR 013B
ENCODING 315
SWIDTH 600 0
DWIDTH 30 0
BBX 27 49 2 -15
BITMAP
FFFE0000
FFFE0000
FFFE0000
3FF80000
1FF00000
0FE00000
0FE00000
0FE00000
0FE00000
0FE00000
0FE00000
0FE00000
0FE00000
0FE00000
0FE00000
0FE00000
0FE00000
0FE00000
0FE00000
0FE00000
0FE00000
0FE00000
0FE00000
0FE00000
0FE00000
0FE001E0
0FE001E0
0FE003E0
0FF003E0
1FF007C0
1FF81FC0
FFFFFFC0
FFFFFFC0
FFFFFFC0
00000000
00000000
00030000
003F8000
007F8000
007F8000
007F8000
007F8000
001F8000
000F0000
000F0000
001E0000
003C0000
00780000
00300000
ENDCHAR
STARTCHAR 013C
ENCODING 316
SWIDTH 340 0
DWIDTH 17 0
BBX 15 51 1 -15
BITMAP
0040
0FE0
7FE0
FFE0
FFE0
1FE0
0FE0
0FE0
0FE0
0FE0
0FE0
0FE0
0FE0
0FE0
0FE0
0FE0
0FE0
0FE0
0FE0
0FE0
0FE0
0FE0
0FE0
0FE0
0FE0
0FE0
0FE0
0FE0
0FE0
0FE0
0FE0
0FF0
1FF0
7FFC
FFFE
FFFE
0000
0000
00C0
0FE0
0FE0
1FE0
1FE0
0FE0
03E0
03E0
03C0
0780
0780
0F00
0C00
ENDCHAR
STARTCHAR 013D
ENCODING 317
SWIDTH 600 0
DWIDTH 30 0
BBX 27 36 2 0
BITMAP
000001C0
00001FC0
FFFE1FE0
FFFE1FE0
FFFE1FE0
3FF81FE0
1FF007E0
0FE003C0
0FE003C0
0FE003C0
0FE00780
0FE00780
0FE00F00
0FE00E00
0FE00000
0FE00000
0FE00000
0FE00000
0FE00000
0FE00000
0FE00000
0FE00000
0FE00000
0FE00000
0FE00000
0FE00000
0FE00000
0FE001E0
0FE001E0
0FE003E0
0FF003E0
1FF007C0
1FF81FC0
FFFFFFC0
FFFFFFC0
FFFFFFC0
ENDCHAR
STARTCHAR 013E
ENCODING 318
SWIDTH 480 0
DWIDTH 24 0
BBX 22 36 1 0
BITMAP
004018
0FE1FC
7FE1FC
FFE3FC
FFE3FC
1FE3FC
0FE0FC
0FE07C
0FE07C
0FE078
0FE078
0FE0F0
0FE0E0
0FE1C0
0FE000
0FE000
0FE000
0FE000
0FE000
0FE000
0FE000
0FE000
0FE000
0FE000
0FE000
0FE000
0FE000
0FE000
0FE000
0FE000
0FE000
0FF000
1FF000
7FFC00
FFFE00
FFFE00
ENDCHAR
STARTCHAR 013F
ENCODING 319
SWIDTH 600 0
DWIDTH 30 0
BBX 27 34 2 0
BITMAP
FFFE0000
FFFE0000
FFFE0000
3FF80000
1FF00000
0FE00000
0FE00000
0FE00000
0FE00000
0FE00000
0FE00000
0FE00000
0FE00000
0FE00780
0FE00FC0
0FE01FC0
0FE01FC0
0FE00FC0
0FE00780
0FE00000
0FE00000
0FE00000
0FE00000
0FE00000
0FE00000
0FE001E0
0FE001E0
0FE003E0
0FF003E0
1FF007C0
1FF81FC0
FFFFFFC0
FFFFFFC0
FFFFFFC0
ENDCHAR
STARTCHAR 0140
ENCODING 320
SWIDTH 340 0
DWIDTH 17 0
BBX 20 36 1 0
BITMAP
004000
0FE000
7FE000
FFE000
FFE000
1FE000
0FE000
0FE000
0FE000
0FE000
0FE000
0FE000
0FE000
0FE000
0FE000
0FE080
0FE3E0
0FE7E0
0FE7F0
0FE7E0
0FE3E0
0FE080
0FE000
0FE000
0FE000
0FE000
0FE000
0FE000
0FE000
0FE000
0FE000
0FF000
1FF000
7FFC00
FFFE00
FFFE00
ENDCHAR
STARTCHAR 0141
ENCODING 321
SWIDTH 600 0
DWIDTH 30 0
BBX 28 34 1 0
BITMAP
7FFF0000
7FFF0000
7FFF0000
1FFC0000
0FF80000
07F00000
07F00000
07F00000
07F00000
07F00000
07F00000
07F00000
07F38000
07F78000
07FF8000
07FF0000
07FC0000
07F80000
1FF00000
3FF00000
FFF00000
FFF00000
F7F00000
47F00000
07F00000
07F000F0
07F000F0
07F001F0
07F801F0
0FF803E0
0FFC0FE0
7FFFFFE0
7FFFFFE0
7FFFFFE0
ENDCHAR
STARTCHAR 0142
ENCODING 322
SWIDTH 340 0
DWIDTH 17 0
BBX 17 36 0 0
BITMAP
002000
07F000
3FF000
7FF000
7FF000
0FF000
07F000
07F000
07F000
07F000
07F000
07F000
07F000
07F080
07F380
07FF80
07FF80
07FF00
07FC00
07F800
1FF000
3FF000
FFF000
FFF000
F7F000
47F000
07F000
07F000
07F000
07F000
07F000
07F800
0FF800
3FFE00
7FFF00
7FFF00
ENDCHAR
STARTCHAR 0143
ENCODING 323
SWIDTH 720 0
DWIDTH 36 0
BBX 33 44 2 0
BITMAP
00007E0000
0000FC0000
0000F80000
0001F00000
0001F00000
0003E00000
0003C00000
0000000000
0000000000
0000000000
FFC003FF80
FFE003FF00
FFE003FF00
3FF000FE00
1FF8007C00
0FFC003C00
0FFC003800
0FFE003800
0FFF003800
0FFF803800
0EFF803800
0E7FC03800
0E7FE03800
0E3FF03800
0E1FF03800
0E0FF83800
0E0FFC3800
0E07FC3800
0E03FE3800
0E01FF3800
0E01FFB800
0E00FFB800
0E007FF800
0E003FF800
0E003FF800
0E001FF800
0E000FF800
0E0007F800
1E0007F800
1F0003F800
3F8001F800
FFE000F800
FFE000F800
FFE0007800
ENDCHAR
STARTCHAR 0144
ENCODING 324
SWIDTH 640 0
DWIDTH 32 0
BBX 29 36 2 0
BITMAP
0000FC00
0001F800
0001F800
0001F000
0003E000
0003C000
0003C000
00078000
00070000
00010000
00000000
00000000
00000000
01C1FC00
FFC7FF00
FFCFFF80
FFDFFF80
3FFEFFC0
1FE03FC0
1FE01FC0
1FE01FC0
1FE01FC0
1FE01FC0
1FE01FC0
1FE01FC0
1FE01FC0
1FE01FC0
1FE01FC0
1FE01FC0
1FE01FC0
1FE01FC0
1FE01FE0
3FF03FE0
FFFCFFF8
FFFCFFF8
FFFCFFF8
ENDCHAR
STARTCHAR 0145
ENCODING 325
SWIDTH 720 0
DWIDTH 36 0
BBX 33 49 2 -15
BITMAP
FFC003FF80
FFE003FF00
FFE003FF00
3FF000FE00
1FF8007C00
0FFC003C00
0FFC003800
0FFE003800
0FFF003800
0FFF803800
0EFF803800
0E7FC03800
0E7FE03800
0E3FF03800
0E1FF03800
0E0FF83800
0E0FFC3800
0E07FC3800
0E03FE3800
0E01FF3800
0E01FFB800
0E00FFB800
0E007FF800
0E003FF800
0E003FF800
0E001FF800
0E000FF800
0E0007F800
1E0007F800
1F0003F800
3F8001F800
FFE000F800
FFE000F800
FFE0007800
0000000000
0000000000
0000300000
0003F80000
0003F80000
0003FC0000
0007FC0000
0003F80000
0000F80000
0000F80000
0000F00000
0001F00000
0001E00000
0003C00000
0003800000
ENDCHAR
STARTCHAR 0146
ENCODING 326
SWIDTH 640 0
DWIDTH 32 0
BBX 29 38 2 -15
BITMAP
01C1FC00
FFC7FF00
FFCFFF80
FFDFFF80
3FFEFFC0
1FE03FC0
1FE01FC0
1FE01FC0
1FE01FC0
1FE01FC0
1FE01FC0
1FE01FC0
1FE01FC0
1FE01FC0
1FE01FC0
1FE01FC0
1FE01FC0
1FE01FC0
1FE01FE0
3FF03FE0
FFFCFFF8
FFFCFFF8
FFFCFFF8
00000000
00000000
00018000
001FC000
001FC000
001FE000
003FE000
001FC000
0007C000
0007C000
00078000
000F8000
000F0000
001E0000
001C0000
ENDCHAR
STARTCHAR 0147
ENCODING 327
SWIDTH 720 0
DWIDTH 36 0
BBX 33 44 2 0
BITMAP
0070070000
01FC1F8000
00FF7F0000
003FFC0000
001FF80000
000FE00000
0007C00000
0002000000
0000000000
0000000000
FFC003FF80
FFE003FF00
FFE003FF00
3FF000FE00
1FF8007C00
0FFC003C00
0FFC003800
0FFE003800
0FFF003800
0FFF803800
0EFF803800
0E7FC03800
0E7FE03800
0E3FF03800
0E1FF03800
0E0FF83800
0E0FFC3800
0E07FC3800
0E03FE3800
0E01FF3800
0E01FFB800
0E00FFB800
0E007FF800
0E003FF800
0E003FF800
0E001FF800
0E000FF800
0E0007F800
1E0007F800
1F0003F800
3F8001F800
FFE000F800
FFE000F800
FFE0007800
ENDCHAR
STARTCHAR 0148
ENCODING 328
SWIDTH 640 0
DWIDTH 32 0
BBX 29 36 2 0
BITMAP
00000400
03800E00
03E03F00
03F87C00
00FDF800
007FF000
003FE000
003FC000
001F8000
000F0000
00000000
00000000
00000000
01C1FC00
FFC7FF00
FFCFFF80
FFDFFF80
3FFEFFC0
1FE03FC0
1FE01FC0
1FE01FC0
1FE01FC0
1FE01FC0
1FE01FC0
1FE01FC0
1FE01FC0
1FE01FC0
1FE01FC0
1FE01FC0
1FE01FC0
1FE01FC0
1FE01FE0
3FF03FE0
FFFCFFF8
FFFCFFF8
FFFCFFF8
ENDCHAR
STARTCHAR 0149
ENCODING 329
SWIDTH 840 0
DWIDTH 42 0
BBX 38 36 3 0
BITMAP
0600000000
7F00000000
7F00000000
7F00000000
FF00000000
FF00000000
3F00000000
1F00000000
1F00000000
1E00000000
1E00000000
3C00000000
3C00000000
7801E1FC00
F07FE7FF00
20FFEFFF80
00FFFFFFC0
003FFEFFC0
001FE03FC0
000FE01FE0
000FE01FE0
000FE01FE0
000FE00FE0
000FE00FE0
000FE00FE0
000FE00FE0
000FE00FE0
000FE00FE0
000FE00FE0
000FE00FE0
000FE01FE0
001FE01FE0
001FF03FF0
00FFFC7FF8
00FFFCFFFC
00FFFCFFFC
ENDCHAR
STARTCHAR 014A
ENCODING 330
SWIDTH 680 0
DWIDTH 34 0
BBX 30 46 2 -12
BITMAP
00E07F80
7FE1FFE0
FFE7FFF0
FFEFFFF8
3FEFFFF8
1FFE07FC
0FFC03FC
0FF803FC
0FF001FC
0FF001FC
0FF001FC
0FE001FC
0FE001FC
0FE001FC
0FE001FC
0FE001FC
0FE001FC
0FE001FC
0FE001FC
0FE001FC
0FE001FC
0FE001FC
0FE001FC
0FE001FC
0FE001FC
0FE001FC
0FE001FC
0FE001FC
0FE001FC
1FF001FC
1FF001FC
FFFE01FC
FFFE01FC
FFFE01FC
000001FC
000001FC
000001F8
000001F8
000003F0
000003F0
0003DFE0
0003FFE0
0003FFC0
0003FF80
0003FF00
0001FE00
ENDCHAR
STARTCHAR 014B
ENCODING 331
SWIDTH 620 0
DWIDTH 31 0
BBX 26 35 2 -12
BITMAP
01C1FC00
FFC7FF00
FFEFFF80
FFDFFF80
3FFEFFC0
1FF83FC0
1FF01FC0
1FE01FC0
1FE01FC0
1FE01FC0
1FE01FC0
1FE01FC0
1FE01FC0
1FE01FC0
1FE01FC0
1FE01FC0
1FE01FC0
1FE01FC0
1FE01FC0
3FF01FC0
FFFC1FC0
FFFC1FC0
FFFC1FC0
00001FC0
00001F80
00001F80
00001F80
00001F00
00003F00
003DFE00
003FFE00
003FFC00
003FF800
003FF000
001FE000
ENDCHAR
STARTCHAR 014C
ENCODING 332
SWIDTH 740 0
DWIDTH 37 0
BBX 34 41 2 0
BITMAP
00FFFFC000
01FFFFC000
01FFFFC000
0000000000
0000000000
0000000000
0000000000
001FFC0000
007FFF8000
01FFFFE000
03F81FF000
0FE007F800
0FC003FC00
1FC003FE00
3F8001FE00
3F8000FF00
7F0000FF00
7F00007F80
FF00007F80
FF00007F80
FF00007F80
FF00007F80
FF00003FC0
FF00003FC0
FF00003FC0
FF00003FC0
FF00003F80
FF00003F80
FF00007F80
FF00007F80
7F80007F00
7F80007F00
3F8000FF00
3FC000FE00
1FE000FC00
1FE001FC00
0FF003F800
07FC0FF000
01FFFFE000
00FFFF8000
003FFE0000
ENDCHAR
STARTCHAR 014D
ENCODING 333
SWIDTH 560 0
DWIDTH 28 0
BBX 25 32 2 0
BITMAP
1FFFF800
1FFFF800
1FFFF800
00000000
00000000
00000000
00000000
00000000
00000000
01FFC000
07FFF000
0FFFF800
1F83FC00
3F01FE00
7F00FF00
7F00FF00
FE007F00
FE007F80
FE007F80
FE007F80
FE007F80
FE007F80
FE007F80
FF007F00
FF007F00
FF007F00
7F807E00
7F80FE00
3FC1FC00
1FFFF800
0FFFF000
01FFC000
ENDCHAR
STARTCHAR 014E
ENCODING 334
SWIDTH 740 0
DWIDTH 37 0
BBX 34 44 2 0
BITMAP
0070038000
00F8078000
0078078000
007FBF8000
007FFF0000
003FFE0000
001FFC0000
0003E00000
0000000000
0000000000
001FFC0000
007FFF8000
01FFFFE000
03F81FF000
0FE007F800
0FC003FC00
1FC003FE00
3F8001FE00
3F8000FF00
7F0000FF00
7F00007F80
FF00007F80
FF00007F80
FF00007F80
FF00007F80
FF00003FC0
FF00003FC0
FF00003FC0
FF00003FC0
FF00003F80
FF00003F80
FF00007F80
FF00007F80
7F80007F00
7F80007F00
3F8000FF00
3FC000FE00
1FE000FC00
1FE001FC00
0FF003F800
07FC0FF000
01FFFFE000
00FFFF8000
003FFE0000
ENDCHAR
STARTCHAR 014F
ENCODING 335
SWIDTH 560 0
DWIDTH 28 0
BBX 25 35 2 1
BITMAP
1E003800
1E003800
1F007800
1F80F800
0FFFF800
0FFFF000
07FFE000
03FFC000
00FE0000
00000000
00000000
00000000
01FFC000
07FFF000
0FFFF800
1F83FC00
3F01FE00
7F00FF00
7F00FF00
FE007F00
FE007F80
FE007F80
FE007F80
FE007F80
FE007F80
FE007F80
FF007F00
FF007F00
FF007F00
7F807E00
7F80FE00
3FC1FC00
1FFFF800
0FFFF000
01FFC000
ENDCHAR
STARTCHAR 0150
ENCODING 336
SWIDTH 740 0
DWIDTH 37 0
BBX 34 44 2 0
BITMAP
000FE7F000
000FC7E000
001F8FC000
001F0F8000
001E0F0000
003C1E0000
003C1E0000
0000000000
0000000000
0000000000
001FFC0000
007FFF8000
01FFFFE000
03F81FF000
0FE007F800
0FC003FC00
1FC003FE00
3F8001FE00
3F8000FF00
7F0000FF00
7F00007F80
FF00007F80
FF00007F80
FF00007F80
FF00007F80
FF00003FC0
FF00003FC0
FF00003FC0
FF00003FC0
FF00003F80
FF00003F80
FF00007F80
FF00007F80
7F80007F00
7F80007F00
3F8000FF00
3FC000FE00
1FE000FC00
1FE001FC00
0FF003F800
07FC0FF000
01FFFFE000
00FFFF8000
003FFE0000
ENDCHAR
STARTCHAR 0151
ENCODING 337
SWIDTH 560 0
DWIDTH 28 0
BBX 25 36 2 0
BITMAP
007E3F00
00FC7E00
00F87C00
01F0FC00
01F0F800
01E0F000
03C1E000
03C1E000
0783C000
00004000
00000000
00000000
00000000
01FFC000
07FFF000
0FFFF800
1F83FC00
3F01FE00
7F00FF00
7F00FF00
FE007F00
FE007F80
FE007F80
FE007F80
FE007F80
FE007F80
FE007F80
FF007F00
FF007F00
FF007F00
7F807E00
7F80FE00
3FC1FC00
1FFFF800
0FFFF000
01FFC000
ENDCHAR
STARTCHAR 0152
ENCODING 338
SWIDTH 980 0
DWIDTH 49 0
BBX 46 34 2 0
BITMAP
001FFFFFFFF0
00FFFFFFFFF0
01FFFFFFFFF0
07F83FE007F0
0FE00FF001F0
1FC007F800F0
1FC003F800F0
3F8003FC0078
7F8001FC0078
7F0001FE0000
7F0001FE0000
FF0000FE0000
FF0000FF0700
FE0000FF0700
FE0000FF0F00
FE0000FF1F00
FE0000FFFF00
FE0000FFFF00
FE0000FFFF00
FF0000FF0F00
FF0000FF0F00
FF0000FE0700
FF0000FE0700
7F0000FE0000
7F8000FE0000
7F8001FC003C
3FC001FC003C
3FC003F8007C
1FE003F0007C
0FF007F000F8
07F80FE003F8
03FFFFFFFFF8
00FFFFFFFFF8
003FFFFFFFF8
ENDCHAR
STARTCHAR 0153
ENCODING 339
SWIDTH 820 0
DWIDTH 41 0
BBX 38 23 2 0
BITMAP
01FF81FF00
07FFE7FFC0
1FFFFFFFE0
3F83FF87F0
3F01FF83F0
7F01FF03F8
7F00FF03F8
FE00FF01F8
FE00FE01F8
FE00FE01FC
FE00FFFFFC
FE00FFFFF8
FE00FFFFF8
FE00FF0000
FE00FF0000
FF00FF0000
7F00FF8000
7F00FF8000
3F81FFC038
3FC3FFF8F8
1FFFFFFFF8
0FFFE7FFE0
03FF81FF80
ENDCHAR
STARTCHAR 0154
ENCODING 340
SWIDTH 700 0
DWIDTH 35 0
BBX 32 44 2 0
BITMAP
0003F800
0003F000
0003E000
0007C000
00078000
000F8000
000F0000
00000000
00000000
00000000
FFFFF800
FFFFFF00
FFFFFFC0
3FE07FE0
1FE01FE0
0FE00FF0
0FE00FF0
0FE007F0
0FE007F8
0FE007F8
0FE007F0
0FE007F0
0FE00FF0
0FE00FF0
0FE01FE0
0FE03FC0
0FE1FF80
0FFFFF00
0FFFFC00
0FFFFC00
0FE3FE00
0FE1FF00
0FE0FF00
0FE07F80
0FE07FC0
0FE03FC0
0FE03FE0
0FE01FE0
0FE01FF0
1FF00FF8
1FF00FFC
FFFC07FF
FFFC07FF
FFFC03FF
ENDCHAR
STARTCHAR 0155
ENCODING 341
SWIDTH 460 0
DWIDTH 23 0
BBX 21 36 2 0
BITMAP
000FC0
001F80
001F80
001F00
003E00
003C00
003C00
007800
007800
001000
000000
000000
000000
01C1F0
FFC7F8
FFCFF8
FFDFF8
3FDFF0
1FFFF0
1FE0F0
1FE0F0
1FE0F0
1FE000
1FE000
1FE000
1FE000
1FE000
1FE000
1FE000
1FE000
1FE000
1FE000
3FF800
FFFF00
FFFF00
FFFF00
ENDCHAR
STARTCHAR 0156
ENCODING 342
SWIDTH 700 0
DWIDTH 35 0
BBX 32 49 2 -15
BITMAP
FFFFF800
FFFFFF00
FFFFFFC0
3FE07FE0
1FE01FE0
0FE00FF0
0FE00FF0
0FE007F0
0FE007F8
0FE007F8
0FE007F0
0FE007F0
0FE00FF0
0FE00FF0
0FE01FE0
0FE03FC0
0FE1FF80
0FFFFF00
0FFFFC00
0FFFFC00
0FE3FE00
0FE1FF00
0FE0FF00
0FE07F80
0FE07FC0
0FE03FC0
0FE03FE0
0FE01FE0
0FE01FF0
1FF00FF8
1FF00FFC
FFFC07FF
FFFC07FF
FFFC03FF
00000000
00000000
00006000
0007F000
0007F000
0007F800
0007F800
0007F000
0001F000
0001F000
0001E000
0003E000
0003C000
00078000
00070000
ENDCHAR
STARTCHAR 0157
ENCODING 343
SWIDTH 460 0
DWIDTH 23 0
BBX 21 38 2 -15
BITMAP
01C1F0
FFC7F8
FFCFF8
FFDFF8
3FDFF0
1FFFF0
1FE0F0
1FE0F0
1FE0F0
1FE000
1FE000
1FE000
1FE000
1FE000
1FE000
1FE000
1FE000
1FE000
1FE000
3FF800
FFFF00
FFFF00
FFFF00
000000
000000
004000
0FE000
0FF000
0FF000
0FF000
0FF000
03E000
03E000
03C000
03C000
078000
0F0000
0E0000
ENDCHAR
STARTCHAR 0158
ENCODING 344
SWIDTH 700 0
DWIDTH 35 0
BBX 32 44 2 0
BITMAP
03C01C00
07F07C00
03FDF800
01FFF000
007FE000
003F8000
001F0000
00080000
00000000
00000000
FFFFF800
FFFFFF00
FFFFFFC0
3FE07FE0
1FE01FE0
0FE00FF0
0FE00FF0
0FE007F0
0FE007F8
0FE007F8
0FE007F0
0FE007F0
0FE00FF0
0FE00FF0
0FE01FE0
0FE03FC0
0FE1FF80
0FFFFF00
0FFFFC00
0FFFFC00
0FE3FE00
0FE1FF00
0FE0FF00
0FE07F80
0FE07FC0
0FE03FC0
0FE03FE0
0FE01FE0
0FE01FF0
1FF00FF8
1FF00FFC
FFFC07FF
FFFC07FF
FFFC03FF
ENDCHAR
STARTCHAR 0159
ENCODING 345
SWIDTH 460 0
DWIDTH 23 0
BBX 21 36 2 0
BITMAP
000040
3C00E0
3E03F0
1F87C0
0FDF80
07FF00
03FE00
03FC00
01F800
00F000
000000
000000
000000
01C1F0
FFC7F8
FFCFF8
FFDFF8
3FDFF0
1FFFF0
1FE0F0
1FE0F0
1FE0F0
1FE000
1FE000
1FE000
1FE000
1FE000
1FE000
1FE000
1FE000
1FE000
1FE000
3FF800
FFFF00
FFFF00
FFFF00
ENDCHAR
STARTCHAR 015A
ENCODING 346
SWIDTH 540 0
DWIDTH 27 0
BBX 24 44 2 0
BITMAP
000FE0
000FC0
000F80
001F00
001E00
003E00
003C00
000000
000000
000000
01FFC0
07FFF8
0FFFFC
1F83FC
3F00FC
3E00FC
7E007C
7E007C
7F007C
7F0078
7F8000
7FE000
7FF000
3FFE00
3FFF80
1FFFC0
0FFFF0
07FFF8
03FFFC
00FFFE
003FFE
000FFF
0003FF
3800FF
7C007F
7C007F
7C007F
7C007F
7E007E
7E00FE
7F01FC
FFFFF8
3FFFF0
07FFC0
ENDCHAR
STARTCHAR 015B
ENCODING 347
SWIDTH 460 0
DWIDTH 23 0
BBX 19 36 2 0
BITMAP
001F80
003F00
003E00
007E00
007C00
007800
00F000
00F000
01E000
002000
000000
000000
000000
0FFF00
1FFF80
7FFF80
7E0F80
FE0780
FE07C0
FE03C0
FF8000
FFE000
7FF800
3FFE00
1FFF80
0FFFC0
01FFE0
007FE0
F01FE0
F00FE0
F80FE0
F80FE0
FC1FE0
FFFFC0
FFFF80
3FFE00
ENDCHAR
STARTCHAR 015C
ENCODING 348
SWIDTH 540 0
DWIDTH 27 0
BBX 24 44 2 0
BITMAP
003E00
007F00
00FF80
03FFC0
07FFE0
0FC3F8
0F00F0
040040
000000
000000
01FFC0
07FFF8
0FFFFC
1F83FC
3F00FC
3E00FC
7E007C
7E007C
7F007C
7F0078
7F8000
7FE000
7FF000
3FFE00
3FFF80
1FFFC0
0FFFF0
07FFF8
03FFFC
00FFFE
003FFE
000FFF
0003FF
3800FF
7C007F
7C007F
7C007F
7C007F
7E007E
7E00FE
7F01FC
FFFFF8
3FFFF0
07FFC0
ENDCHAR
STARTCHAR 015D
ENCODING 349
SWIDTH 460 0
DWIDTH 23 0
BBX 19 36 2 0
BITMAP
007000
00F000
01F800
03FC00
0FFE00
1FFF00
3F1F80
7C0FC0
F803E0
6001C0
000000
000000
000000
0FFF00
1FFF80
7FFF80
7E0F80
FE0780
FE07C0
FE03C0
FF8000
FFE000
7FF800
3FFE00
1FFF80
0FFFC0
01FFE0
007FE0
F01FE0
F00FE0
F80FE0
F80FE0
FC1FE0
FFFFC0
FFFF80
3FFE00
ENDCHAR
STARTCHAR 015E
ENCODING 350
SWIDTH 540 0
DWIDTH 27 0
BBX 24 46 2 -12
BITMAP
01FFC0
07FFF8
0FFFFC
1F83FC
3F00FC
3E00FC
7E007C
7E007C
7F007C
7F0078
7F8000
7FE000
7FF000
3FFE00
3FFF80
1FFFC0
0FFFF0
07FFF8
03FFFC
00FFFE
003FFE
000FFF
0003FF
3800FF
7C007F
7C007F
7C007F
7C007F
7E007E
7E00FE
7F01FC
FFFFF8
3FFFF0
07FFC0
003800
007800
007800
00FE00
007F00
003F00
000F00
000F00
000F00
001F00
00FE00
00F800
ENDCHAR
STARTCHAR 015F
ENCODING 351
SWIDTH 460 0
DWIDTH 23 0
BBX 19 35 2 -12
BITMAP
0FFF00
1FFF80
7FFF80
7E0F80
FE0780
FE07C0
FE03C0
FF8000
FFE000
7FF800
3FFE00
1FFF80
0FFFC0
01FFE0
007FE0
F01FE0
F00FE0
F80FE0
F80FE0
FC1FE0
FFFFC0
FFFF80
3FFE00
01C000
03C000
03C000
07F000
03F800
01F800
007800
007800
007800
00F800
07F000
07C000
ENDCHAR
STARTCHAR 0160
ENCODING 352
SWIDTH 540 0
DWIDTH 27 0
BBX 24 44 2 0
BITMAP
0F0070
1FC1F0
0FF7F0
07FFC0
01FF80
00FE00
007C00
002000
000000
000000
01FFC0
07FFF8
0FFFFC
1F83FC
3F00FC
3E00FC
7E007C
7E007C
7F007C
7F0078
7F8000
7FE000
7FF000
3FFE00
3FFF80
1FFFC0
0FFFF0
07FFF8
03FFFC
00FFFE
003FFE
000FFF
0003FF
3800FF
7C007F
7C007F
7C007F
7C007F
7E007E
7E00FE
7F01FC
FFFFF8
3FFFF0
07FFC0
ENDCHAR
STARTCHAR 0161
ENCODING 353
SWIDTH 460 0
DWIDTH 23 0
BBX 19 36 2 0
BITMAP
200000
7003C0
FC07C0
7E1F80
3FBF00
1FFE00
0FFC00
07F800
03F000
01E000
000000
000000
000000
0FFF00
1FFF80
7FFF80
7E0F80
FE0780
FE07C0
FE03C0
FF8000
FFE000
7FF800
3FFE00
1FFF80
0FFFC0
01FFE0
007FE0
F01FE0
F00FE0
F80FE0
F80FE0
FC1FE0
FFFFC0
FFFF80
3FFE00
ENDCHAR
STARTCHAR 0162
ENCODING 354
SWIDTH 640 0
DWIDTH 32 0
BBX 30 46 1 -12
BITMAP
7FFFFFFC
7FFFFFFC
7FFFFFFC
7F8FE1FC
7C0FE07C
780FE07C
780FE03C
F80FE03C
F00FE03C
000FE000
000FE000
000FE000
000FE000
000FE000
000FE000
000FE000
000FE000
000FE000
000FE000
000FE000
000FE000
000FE000
000FE000
000FE000
000FE000
000FE000
000FE000
000FE000
001FE000
001FF000
003FF800
01FFFF00
01FFFF00
01FFFF00
00070000
000E0000
000F0000
001FC000
000FE000
0007E000
0001E000
0001E000
0001E000
0003C000
001F8000
001E0000
ENDCHAR
STARTCHAR 0163
ENCODING 355
SWIDTH 360 0
DWIDTH 18 0
BBX 17 43 1 -12
BITMAP
00C000
01C000
1FC000
1FC000
1FC000
1FC000
1FC000
1FC000
1FC000
FFFF00
FFFF00
FFFF00
1FC000
1FC000
1FC000
1FC000
1FC000
1FC000
1FC000
1FC000
1FC000
1FC000
1FC000
1FC000
1FC000
1FE000
0FE000
0FF100
0FFF80
07FF80
03FE00
00E000
01C000
03C000
03F000
03F800
00FC00
003C00
003C00
003C00
00F800
03F000
03C000
ENDCHAR
STARTCHAR 0164
ENCODING 356
SWIDTH 640 0
DWIDTH 32 0
BBX 30 44 1 0
BITMAP
00E00E00
01F83F00
01FEFE00
007FF800
003FF000
001FE000
000F8000
00040000
00000000
00000000
7FFFFFFC
7FFFFFFC
7FFFFFFC
7F8FE1FC
7C0FE07C
780FE07C
780FE03C
F80FE03C
F00FE03C
000FE000
000FE000
000FE000
000FE000
000FE000
000FE000
000FE000
000FE000
000FE000
000FE000
000FE000
000FE000
000FE000
000FE000
000FE000
000FE000
000FE000
000FE000
000FE000
001FE000
001FF000
003FF800
01FFFF00
01FFFF00
01FFFF00
ENDCHAR
STARTCHAR 0165
ENCODING 357
SWIDTH 520 0
DWIDTH 26 0
BBX 26 36 1 0
BITMAP
00000380
00003F80
00003F80
00003FC0
00003FC0
00C03FC0
01C00F80
1FC00F80
1FC00F80
1FC00F00
1FC00F00
1FC00E00
1FC01E00
1FC03C00
FFFF0000
FFFF0000
FFFF0000
1FC00000
1FC00000
1FC00000
1FC00000
1FC00000
1FC00000
1FC00000
1FC00000
1FC00000
1FC00000
1FC00000
1FC00000
1FC00000
1FE00000
0FE00000
0FF10000
0FFF8000
07FF8000
03FE0000
ENDCHAR
STARTCHAR 0166
ENCODING 358
SWIDTH 640 0
DWIDTH 32 0
BBX 30 34 1 0
BITMAP
7FFFFFFC
7FFFFFFC
7FFFFFFC
7F8FE1FC
7C0FE07C
780FE07C
780FE03C
F80FE03C
F00FE03C
000FE000
000FE000
000FE000
000FE000
000FE000
000FE000
03FFFF80
03FFFF80
03FFFF80
038FE000
000FE000
000FE000
000FE000
000FE000
000FE000
000FE000
000FE000
000FE000
000FE000
001FE000
001FF000
003FF800
01FFFF00
01FFFF00
01FFFF00
ENDCHAR
STARTCHAR 0167
ENCODING 359
SWIDTH 360 0
DWIDTH 18 0
BBX 18 31 0 0
BITMAP
006000
00E000
0FE000
0FE000
0FE000
0FE000
0FE000
0FE000
0FE000
7FFF80
7FFF80
7FFF80
0FE000
0FE000
0FE000
0FE000
0FE000
FFFF00
FFFF00
FFFE00
0FE000
0FE000
0FE000
0FE000
0FE000
0FF000
07F000
07F880
07FFC0
03FFC0
01FF00
ENDCHAR
STARTCHAR 0168
ENCODING 360
SWIDTH 680 0
DWIDTH 34 0
BBX 31 43 2 0
BITMAP
001FC0C0
007FFBC0
00FFFFC0
00FFFF80
00E1FF00
00007C00
00000000
00000000
00000000
FFFC0FFE
FFFC0FFC
FFFC0FFC
7FF003F8
1FE001F0
1FE000E0
1FC000E0
1FC000E0
1FC000E0
1FC000E0
1FC000E0
1FC000E0
1FC000E0
1FC000E0
1FC000E0
1FC000E0
1FC000E0
1FC000E0
1FC000E0
1FC000E0
1FC000E0
1FC000E0
1FC000E0
1FE000E0
1FE000E0
1FE000E0
1FE001E0
0FE001E0
0FF001C0
0FF803C0
07FC0F80
03FFFF00
01FFFE00
007FFC00
ENDCHAR
STARTCHAR 0169
ENCODING 361
SWIDTH 600 0
DWIDTH 30 0
BBX 28 34 1 0
BITMAP
00780000
01FE0E00
03FFFE00
07FFFC00
0F9FFC00
0607F000
0400E000
00000000
00000000
00000000
00000000
03C00780
FFC1FF80
FFC1FF80
FFC3FF80
3FC07F80
1FC03F80
1FC03F80
1FC03F80
1FC03F80
1FC03F80
1FC03F80
1FC03F80
1FC03F80
1FC03F80
1FC03F80
1FC03F80
1FC03F80
1FE03FC0
1FF03FE0
0FFEFFF0
0FFFFFF0
07FFBFF0
03FE3C00
ENDCHAR
STARTCHAR 016A
ENCODING 362
SWIDTH 680 0
DWIDTH 34 0
BBX 31 41 2 0
BITMAP
00FFFFE0
00FFFFE0
00FFFFC0
00000000
00000000
00000000
00000000
FFFC0FFE
FFFC0FFC
FFFC0FFC
7FF003F8
1FE001F0
1FE000E0
1FC000E0
1FC000E0
1FC000E0
1FC000E0
1FC000E0
1FC000E0
1FC000E0
1FC000E0
1FC000E0
1FC000E0
1FC000E0
1FC000E0
1FC000E0
1FC000E0
1FC000E0
1FC000E0
1FC000E0
1FE000E0
1FE000E0
1FE000E0
1FE001E0
0FE001E0
0FF001C0
0FF803C0
07FC0F80
03FFFF00
01FFFE00
007FFC00
ENDCHAR
STARTCHAR 016B
ENCODING 363
SWIDTH 600 0
DWIDTH 30 0
BBX 28 32 1 0
BITMAP
07FFFE00
07FFFE00
07FFFE00
00000000
00000000
00000000
00000000
00000000
00000000
03C00780
FFC1FF80
FFC1FF80
FFC3FF80
3FC07F80
1FC03F80
1FC03F80
1FC03F80
1FC03F80
1FC03F80
1FC03F80
1FC03F80
1FC03F80
1FC03F80
1FC03F80
1FC03F80
1FC03F80
1FE03FC0
1FF03FE0
0FFEFFF0
0FFFFFF0
07FFBFF0
03FE3C00
ENDCHAR
STARTCHAR 016C
ENCODING 364
SWIDTH 680 0
DWIDTH 34 0
BBX 31 44 2 0
BITMAP
00380380
00780380
007C0780
007FBF80
003FFF80
003FFF00
000FFE00
0001E000
00000000
00000000
FFFC0FFE
FFFC0FFC
FFFC0FFC
7FF003F8
1FE001F0
1FE000E0
1FC000E0
1FC000E0
1FC000E0
1FC000E0
1FC000E0
1FC000E0
1FC000E0
1FC000E0
1FC000E0
1FC000E0
1FC000E0
1FC000E0
1FC000E0
1FC000E0
1FC000E0
1FC000E0
1FC000E0
1FE000E0
1FE000E0
1FE000E0
1FE001E0
0FE001E0
0FF001C0
0FF803C0
07FC0F80
03FFFF00
01FFFE00
007FFC00
ENDCHAR
STARTCHAR 016D
ENCODING 365
SWIDTH 600 0
DWIDTH 30 0
BBX 28 35 1 1
BITMAP
07000E00
07800E00
07C01E00
07E03E00
07FFFC00
03FFFC00
01FFF800
00FFF000
001F8000
00000000
00000000
00000000
03C00780
FFC1FF80
FFC1FF80
FFC3FF80
3FC07F80
1FC03F80
1FC03F80
1FC03F80
1FC03F80
1FC03F80
1FC03F80
1FC03F80
1FC03F80
1FC03F80
1FC03F80
1FC03F80
1FC03F80
1FE03FC0
1FF03FE0
0FFEFFF0
0FFFFFF0
07FFBFF0
03FE3C00
ENDCHAR
STARTCHAR 016E
ENCODING 366
SWIDTH 680 0
DWIDTH 34 0
BBX 31 44 2 0
BITMAP
0003F800
000FFC00
000E1E00
000E1E00
000E1E00
000F1C00
000FFC00
0003F000
00000000
00000000
FFFC0FFE
FFFC0FFC
FFFC0FFC
7FF003F8
1FE001F0
1FE000E0
1FC000E0
1FC000E0
1FC000E0
1FC000E0
1FC000E0
1FC000E0
1FC000E0
1FC000E0
1FC000E0
1FC000E0
1FC000E0
1FC000E0
1FC000E0
1FC000E0
1FC000E0
1FC000E0
1FC000E0
1FE000E0
1FE000E0
1FE000E0
1FE001E0
0FE001E0
0FF001C0
0FF803C0
07FC0F80
03FFFF00
01FFFE00
007FFC00
ENDCHAR
STARTCHAR 016F
ENCODING 367
SWIDTH 600 0
DWIDTH 30 0
BBX 28 36 1 0
BITMAP
001F8000
003FE000
007BE000
00F0F000
00F0F000
00F0F000
00F0F000
007FE000
007FC000
001F0000
00000000
00000000
00000000
03C00780
FFC1FF80
FFC1FF80
FFC3FF80
3FC07F80
1FC03F80
1FC03F80
1FC03F80
1FC03F80
1FC03F80
1FC03F80
1FC03F80
1FC03F80
1FC03F80
1FC03F80
1FC03F80
1FC03F80
1FE03FC0
1FF03FE0
0FFEFFF0
0FFFFFF0
07FFBFF0
03FE3C00
ENDCHAR
STARTCHAR 0170
ENCODING 368
SWIDTH 680 0
DWIDTH 34 0
BBX 31 44 2 0
BITMAP
0007E3F0
000FC7E0
000F87C0
001F07C0
001F0F80
001E0F00
003C0E00
00000000
00000000
00000000
FFFC0FFE
FFFC0FFC
FFFC0FFC
7FF003F8
1FE001F0
1FE000E0
1FC000E0
1FC000E0
1FC000E0
1FC000E0
1FC000E0
1FC000E0
1FC000E0
1FC000E0
1FC000E0
1FC000E0
1FC000E0
1FC000E0
1FC000E0
1FC000E0
1FC000E0
1FC000E0
1FC000E0
1FE000E0
1FE000E0
1FE000E0
1FE001E0
0FE001E0
0FF001C0
0FF803C0
07FC0F80
03FFFF00
01FFFE00
007FFC00
ENDCHAR
STARTCHAR 0171
ENCODING 369
SWIDTH 600 0
DWIDTH 30 0
BBX 28 36 1 0
BITMAP
003F8FC0
003F1F80
007E1F00
007C3E00
007C3E00
00F87C00
00F07800
01E0F800
01E0F000
00000000
00000000
00000000
00000000
03C00780
FFC1FF80
FFC1FF80
FFC3FF80
3FC07F80
1FC03F80
1FC03F80
1FC03F80
1FC03F80
1FC03F80
1FC03F80
1FC03F80
1FC03F80
1FC03F80
1FC03F80
1FC03F80
1FC03F80
1FE03FC0
1FF03FE0
0FFEFFF0
0FFFFFF0
07FFBFF0
03FE3C00
ENDCHAR
STARTCHAR 0172
ENCODING 370
SWIDTH 680 0
DWIDTH 34 0
BBX 31 46 2 -12
BITMAP
FFFC0FFE
FFFC0FFC
FFFC0FFC
7FF003F8
1FE001F0
1FE000E0
1FC000E0
1FC000E0
1FC000E0
1FC000E0
1FC000E0
1FC000E0
1FC000E0
1FC000E0
1FC000E0
1FC000E0
1FC000E0
1FC000E0
1FC000E0
1FC000E0
1FC000E0
1FC000E0
1FC000E0
1FE000E0
1FE000E0
1FE000E0
1FE001E0
0FE001E0
0FF001C0
0FF803C0
07FC0F80
03FFFF00
01FFFE00
007FFC00
00007800
0001F000
0003E000
0003E000
0007E000
0007E000
0007F000
0007FF00
0007FF80
0007FF80
0003FF00
0001F800
ENDCHAR
STARTCHAR 0173
ENCODING 371
SWIDTH 600 0
DWIDTH 30 0
BBX 28 35 1 -12
BITMAP
03C00780
FFC1FF80
FFC1FF80
FFC3FF80
3FC07F80
1FC03F80
1FC03F80
1FC03F80
1FC03F80
1FC03F80
1FC03F80
1FC03F80
1FC03F80
1FC03F80
1FC03F80
1FC03F80
1FC03F80
1FE03FC0
1FF03FE0
0FFEFFF0
0FFFFFF0
07FFBFF0
03FE3FC0
00000F00
00001E00
00007C00
00007C00
0000FC00
0000FC00
0000FE00
0000FFF0
0000FFF0
0000FFF0
00007FE0
00003F00
ENDCHAR
STARTCHAR 0174
ENCODING 372
SWIDTH 980 0
DWIDTH 49 0
BBX 48 44 1 0
BITMAP
000000F00000
000001F80000
000007FE0000
00000FFF0000
00003FFF8000
00007E1FC000
00003807C000
000000000000
000000000000
000000000000
FFFC00F007FF
FFFC00F007FF
FFFC01F007FF
7FF001F801FE
3FE001F800FC
1FE003FC0078
1FE003FC0078
1FF003FC0070
0FF007FE0070
0FF007FE00E0
0FF007FE00E0
07F80EFF00E0
07F80EFF01E0
07F81EFF81C0
03FC1C7F81C0
03FC1C7F81C0
03FC3C3FC380
01FE383FC380
01FE383FC380
01FE781FE700
00FF701FE700
00FF701FF700
00FFF00FFF00
007FE00FFE00
007FE007FE00
007FE007FE00
003FC007FC00
003FC003FC00
003FC003FC00
003F8003F800
001F8001F800
001F8001F800
001F0001F000
000F0000F000
ENDCHAR
STARTCHAR 0175
ENCODING 373
SWIDTH 780 0
DWIDTH 39 0
BBX 38 36 1 0
BITMAP
0000060000
00001F0000
00003F8000
00007FC000
0000FFC000
0001FFE000
0007E3F000
000F80F800
000F007C00
000C001800
0000000000
0000000000
0000000000
FFF81E0FFC
FFF81E0FFC
FFF83E07F8
7FE03F03F0
3FC03F01E0
1FE07F81E0
1FE07F81C0
0FE0FFC1C0
0FF0FFC1C0
0FF0FFC380
07F1FFE380
07F1CFE380
07FBCFE700
03FB87F700
03FB87F700
03FF07FE00
01FF03FE00
01FF03FE00
01FE01FC00
00FE01FC00
00FC01FC00
00FC00F800
007800F800
ENDCHAR
STARTCHAR 0176
ENCODING 374
SWIDTH 620 0
DWIDTH 31 0
BBX 30 44 1 0
BITMAP
0001F000
0003F800
0007FC00
001FFE00
003F7F00
00FE1FC0
00780780
00200200
00000000
00000000
FFFC0FFC
FFFC0FFC
FFFC0FFC
3FF003F0
1FF001E0
1FF001C0
0FF803C0
0FF80380
07F80780
07FC0700
03FC0700
03FE0E00
01FE0E00
01FF1E00
00FF1C00
00FFBC00
007FB800
007FB800
003FF000
003FF000
001FE000
001FE000
001FE000
001FE000
001FE000
001FE000
001FE000
001FE000
001FE000
001FE000
003FF000
03FFFE00
03FFFF00
03FFFF00
ENDCHAR
STARTCHAR 0177
ENCODING 375
SWIDTH 560 0
DWIDTH 28 0
BBX 26 48 1 -12
BITMAP
00018000
0007C000
000FE000
001FF000
003FF800
007FFC00
00F87E00
03F03F00
03C00F80
01800600
00000000
00000000
00000000
FFFC7FC0
FFFC7FC0
FFFC7FC0
7FF01F80
3FE01F00
1FE01E00
0FE01E00
0FF01C00
0FF03C00
07F83800
07F83800
03FC7800
03FC7000
01FEF000
01FEE000
00FEE000
00FFC000
007FC000
007FC000
003F8000
003F8000
003F0000
001F0000
001F0000
000E0000
001E0000
001C0000
003C0000
00780000
7BF80000
7FF00000
7FF00000
7FE00000
7FC00000
3F800000
ENDCHAR
STARTCHAR 0178
ENCODING 376
SWIDTH 620 0
DWIDTH 31 0
BBX 30 43 1 0
BITMAP
007C0F80
00FE1FC0
00FE1FE0
00FE1FE0
00FE1FC0
00FC0FC0
00380700
00000000
00000000
FFFC0FFC
FFFC0FFC
FFFC0FFC
3FF003F0
1FF001E0
1FF001C0
0FF803C0
0FF80380
07F80780
07FC0700
03FC0700
03FE0E00
01FE0E00
01FF1E00
00FF1C00
00FFBC00
007FB800
007FB800
003FF000
003FF000
001FE000
001FE000
001FE000
001FE000
001FE000
001FE000
001FE000
001FE000
001FE000
001FE000
003FF000
03FFFE00
03FFFF00
03FFFF00
ENDCHAR
STARTCHAR 0179
ENCODING 377
SWIDTH 600 0
DWIDTH 30 0
BBX 26 44 2 0
BITMAP
0003F000
0003E000
0007E000
0007C000
000F8000
000F0000
001E0000
00000000
00000000
00000000
3FFFFF80
3FFFFF80
3FFFFF80
3F80FF80
3E00FF00
3E01FF00
3C01FE00
3C03FE00
7C07FC00
3807FC00
000FF800
000FF800
001FF000
001FF000
003FE000
003FC000
007FC000
00FF8000
00FF8000
01FF0000
01FF0000
03FE0000
07FC0000
07FC0000
0FF80000
0FF803C0
1FF007C0
1FE007C0
3FE00780
7FC00F80
7FC03F80
FFFFFF80
FFFFFF80
7FFFFF80
ENDCHAR
STARTCHAR 017A
ENCODING 378
SWIDTH 500 0
DWIDTH 25 0
BBX 22 36 2 0
BITMAP
000FC0
000FC0
001F80
001F00
001E00
003E00
003C00
007800
007800
000000
000000
000000
000000
7FFFF8
7FFFF8
7FFFF8
7E0FF0
7C1FF0
781FE0
783FC0
787FC0
007F80
00FF00
01FF00
01FE00
03FC00
07FC00
0FF838
0FF03C
1FF07C
3FE07C
3FC07C
7F80FC
FFFFFC
FFFFFC
7FFFFC
ENDCHAR
STARTCHAR 017B
ENCODING 379
SWIDTH 600 0
DWIDTH 30 0
BBX 26 43 2 0
BITMAP
001F0000
003F8000
003FC000
007FC000
003FC000
003F8000
001F0000
00000000
00000000
3FFFFF80
3FFFFF80
3FFFFF80
3F80FF80
3E00FF00
3E01FF00
3C01FE00
3C03FE00
7C07FC00
3807FC00
000FF800
000FF800
001FF000
001FF000
003FE000
003FC000
007FC000
00FF8000
00FF8000
01FF0000
01FF0000
03FE0000
07FC0000
07FC0000
0FF80000
0FF803C0
1FF007C0
1FE007C0
3FE00780
7FC00F80
7FC03F80
FFFFFF80
FFFFFF80
7FFFFF80
ENDCHAR
STARTCHAR 017C
ENCODING 380
SWIDTH 500 0
DWIDTH 25 0
BBX 22 33 2 0
BITMAP
00FC00
01FE00
01FE00
03FE00
01FE00
01FC00
007800
000000
000000
000000
7FFFF8
7FFFF8
7FFFF8
7E0FF0
7C1FF0
781FE0
783FC0
787FC0
007F80
00FF00
01FF00
01FE00
03FC00
07FC00
0FF838
0FF03C
1FF07C
3FE07C
3FC07C
7F80FC
FFFFFC
FFFFFC
7FFFFC
ENDCHAR
STARTCHAR 017D
ENCODING 381
SWIDTH 600 0
DWIDTH 30 0
BBX 26 44 2 0
BITMAP
03803800
07E07C00
03FBF800
01FFF000
00FFC000
007F8000
003F0000
00100000
00000000
00000000
3FFFFF80
3FFFFF80
3FFFFF80
3F80FF80
3E00FF00
3E01FF00
3C01FE00
3C03FE00
7C07FC00
3807FC00
000FF800
000FF800
001FF000
001FF000
003FE000
003FC000
007FC000
00FF8000
00FF8000
01FF0000
01FF0000
03FE0000
07FC0000
07FC0000
0FF80000
0FF803C0
1FF007C0
1FE007C0
3FE00780
7FC00F80
7FC03F80
FFFFFF80
FFFFFF80
7FFFFF80
ENDCHAR
STARTCHAR 017E
ENCODING 382
SWIDTH 500 0
DWIDTH 25 0
BBX 22 36 2 0
BITMAP
000040
3C00E0
3E03F0
1F87E0
0FFF80
07FF00
03FE00
01FC00
01F800
00F000
000000
000000
000000
7FFFF8
7FFFF8
7FFFF8
7E0FF0
7C1FF0
781FE0
783FC0
787FC0
007F80
00FF00
01FF00
01FE00
03FC00
07FC00
0FF838
0FF03C
1FF07C
3FE07C
3FC07C
7F80FC
FFFFFC
FFFFFC
7FFFFC
ENDCHAR
STARTCHAR 017F
ENCODING 383
SWIDTH 360 0
DWIDTH 18 0
BBX 21 36 2 0
BITMAP
000F80
007FF8
00FFF8
03FFF8
03F1F8
07E0F8
0FE0F8
0FE0F8
0FE0E0
0FE000
1FE000
1FE000
1FE000
1FE000
FFE000
FFE000
FFE000
1FE000
1FE000
1FE000
1FE000
1FE000
1FE000
1FE000
1FE000
1FE000
1FE000
1FE000
1FE000
1FE000
1FE000
1FE000
3FF800
FFFF00
FFFF00
FFFF00
ENDCHAR
STARTCHAR 018E
ENCODING 398
SWIDTH 620 0
DWIDTH 31 0
BBX 27 34 2 0
BITMAP
3FFFFFE0
3FFFFFE0
3FFFFFE0
3F80FF80
3E00FF00
3C00FF00
3C00FE00
7800FE00
7800FE00
0000FE00
0000FE00
0300FE00
03C0FE00
03C0FE00
03C0FE00
03F8FE00
03FFFE00
03FFFE00
03FFFE00
03E0FE00
03C0FE00
03C0FE00
0380FE00
0000FE00
0000FE00
E000FE00
F000FE00
F000FE00
F800FF00
FC01FF00
FF03FF80
7FFFFFE0
7FFFFFE0
7FFFFFE0
ENDCHAR
STARTCHAR 018F
ENCODING 399
SWIDTH 660 0
DWIDTH 33 0
BBX 30 34 2 0
BITMAP
03FFE000
1FFFFC00
7FFFFE00
3F01FF80
3E007FC0
3C003FC0
3C001FE0
3C000FF0
78000FF0
380007F8
000007F8
000007F8
000007F8
000003FC
000003FC
000003FC
7FFFFFFC
FFFFFFFC
FFFFFFFC
FE0007FC
FE0003F8
FE0003F8
FF0003F8
FF0007F8
7F0007F0
7F0007F0
7F0007E0
3F800FE0
3F800FC0
1FC01F80
0FE07F00
07FFFE00
03FFF800
00FFE000
ENDCHAR
STARTCHAR 0192
ENCODING 402
SWIDTH 400 0
DWIDTH 20 0
BBX 35 48 -9 -12
BITMAP
0000003F00
000003FFE0
000007FFC0
00000FEFC0
00001F87C0
00003F87C0
00003F0380
00007F0380
00007F0200
0000FF0000
0000FE0000
0000FE0000
0000FE0000
0001FE0000
001FFFF000
001FFFE000
001FFFE000
0001FC0000
0001FC0000
0003FC0000
0003FC0000
0003F80000
0003F80000
0003F80000
0003F80000
0003F80000
0003F80000
0007F00000
0007F00000
0007F00000
0007F00000
0007F00000
0007F00000
0007E00000
0007E00000
000FE00000
000FE00000
000FC00000
000FC00000
000FC00000
381F800000
781F800000
781F000000
7C3F000000
7C7E000000
7FFC000000
FFF8000000
FFE0000000
ENDCHAR
STARTCHAR 019D
ENCODING 413
SWIDTH 720 0
DWIDTH 36 0
BBX 41 46 -6 -12
BITMAP
00FFC003FF80
00FFE003FF00
00FFE003FF00
003FF000FE00
001FF8007C00
000FFC003C00
000FFC003800
000FFE003800
000FFF003800
000FFF803800
000EFF803800
000E7FC03800
000E7FE03800
000E3FF03800
000E1FF03800
000E0FF83800
000E0FFC3800
000E07FC3800
000E03FE3800
000E01FF3800
000E01FFB800
000E00FFB800
000E007FF800
000E003FF800
000E003FF800
000E001FF800
000E000FF800
000E0007F800
000E0007F800
000E0003F800
000E0001F800
000E0000F800
000E0000F800
000E00007800
000E00000000
001E00000000
001C00000000
001C00000000
003C00000000
007C00000000
F7F800000000
FFF800000000
FFF000000000
FFE000000000
FFC000000000
7F8000000000
ENDCHAR
STARTCHAR 01A0
ENCODING 416
SWIDTH 740 0
DWIDTH 37 0
BBX 34 40 2 0
BITMAP
0000000F00
0000000F80
0000000F80
0000000F80
0000000F80
0000001F00
001FFFFF00
007FFFFE00
01FFFFF000
03F81FF000
0FE007F800
0FC003FC00
1FC003FE00
3F8001FE00
3F8000FF00
7F0000FF00
7F00007F80
FF00007F80
FF00007F80
FF00007F80
FF00007F80
FF00003FC0
FF00003FC0
FF00003FC0
FF00003FC0
FF00003F80
FF00003F80
FF00007F80
FF00007F80
7F80007F00
7F80007F00
3F8000FF00
3FC000FE00
1FE000FC00
1FE001FC00
0FF003F800
07FC0FF000
01FFFFE000
00FFFF8000
003FFE0000
ENDCHAR
STARTCHAR 01A1
ENCODING 417
SWIDTH 600 0
DWIDTH 30 0
BBX 26 29 2 0
BITMAP
00000380
00000780
000007C0
000007C0
000007C0
00000F80
01FFFF80
07FFFE00
0FFFF800
1F83FC00
3F01FE00
7F00FF00
7F00FF00
FE007F00
FE007F80
FE007F80
FE007F80
FE007F80
FE007F80
FE007F80
FF007F00
FF007F00
FF007F00
7F807E00
7F80FE00
3FC1FC00
1FFFF800
0FFFF000
01FFC000
ENDCHAR
STARTCHAR 01AF
ENCODING 431
SWIDTH 760 0
DWIDTH 38 0
BBX 35 40 2 0
BITMAP
00000003E0
00000003E0
00000003E0
00000003E0
00000003E0
00000007E0
FFFC0FFFC0
FFFC0FFFC0
FFFC0FFF00
7FF003F800
1FE001F000
1FE000E000
1FC000E000
1FC000E000
1FC000E000
1FC000E000
1FC000E000
1FC000E000
1FC000E000
1FC000E000
1FC000E000
1FC000E000
1FC000E000
1FC000E000
1FC000E000
1FC000E000
1FC000E000
1FC000E000
1FC000E000
1FE000E000
1FE000E000
1FE000E000
1FE001E000
0FE001E000
0FF001C000
0FF803C000
07FC0F8000
03FFFF0000
01FFFE0000
007FFC0000
ENDCHAR
STARTCHAR 01B0
ENCODING 432
SWIDTH 660 0
DWIDTH 33 0
BBX 30 29 1 0
BITMAP
00000078
0000007C
0000007C
0000007C
0000007C
000000F8
03C007F8
FFC1FFE0
FFC1FF80
FFC3FF80
3FC07F80
1FC03F80
1FC03F80
1FC03F80
1FC03F80
1FC03F80
1FC03F80
1FC03F80
1FC03F80
1FC03F80
1FC03F80
1FC03F80
1FC03F80
1FE03FC0
1FF03FE0
0FFEFFF0
0FFFFFF0
07FFBFF0
03FE3C00
ENDCHAR
STARTCHAR 01B7
ENCODING 439
SWIDTH 600 0
DWIDTH 30 0
BBX 25 34 3 0
BITMAP
7FFFFF00
7FFFFF00
7FFFFF00
7E01FF00
FC03FE00
F803FC00
F807FC00
F007F800
F00FF800
F01FF000
003FE000
003FC000
007FC000
00FF8000
01FF0000
01FF8000
01FFF000
01FFFC00
000FFE00
0001FF00
0000FF80
00007F80
00007F80
10007F80
F0007F80
F0007F80
F0007F80
F8007F80
F800FF00
FC00FF00
FE03FE00
FFFFFC00
7FFFF000
1FFFC000
ENDCHAR
STARTCHAR 01C4
ENCODING 452
SWIDTH 1340 0
DWIDTH 67 0
BBX 63 44 2 0
BITMAP
00000000001C01C0
00000000003F07E0
00000000003FDFC0
00000000000FFF00
000000000007FE00
000000000003FC00
000000000001F000
0000000000008000
0000000000000000
0000000000000000
FFFFF00001FFFFFC
FFFFFF0001FFFFFC
FFFFFFC001FFFFFC
3FE03FF001FC07FC
1FE00FF801F00FF8
0FE007FC01E00FF8
0FE003FE03E01FF0
0FE001FE03E01FF0
0FE000FF03C03FE0
0FE000FF03C03FE0
0FE000FF00007FC0
0FE0007F80007F80
0FE0007F8000FF80
0FE0007F8001FF00
0FE0007F8001FF00
0FE0007F8003FE00
0FE0007F8003FE00
0FE0007F8007FC00
0FE0007F8007FC00
0FE0007F800FF800
0FE0007F801FF000
0FE0007F001FF000
0FE0007F003FE000
0FE0007F003FE000
0FE000FE007FC000
0FE000FE00FF803E
0FE001FC00FF803E
0FE001FC01FF003C
0FF003F801FF007C
1FF007F003FE007C
1FF81FE007FC01FC
FFFFFF8007FFFFFC
FFFFFE0007FFFFFC
FFFFF00007FFFFFC
ENDCHAR
STARTCHAR 01C5
ENCODING 453
SWIDTH 1240 0
DWIDTH 62 0
BBX 59 36 2 0
BITMAP
0000000000800200
0000000001C00700
FFFFF00003F01F00
FFFFFF0001F83E00
FFFFFFC000FEFC00
3FE03FF0007FF800
1FE00FF8003FF000
0FE007FC001FE000
0FE003FE000FC000
0FE001FE00078000
0FE000FF00000000
0FE000FF00000000
0FE000FF00000000
0FE0007F83FFFF80
0FE0007F83FFFFC0
0FE0007F83FFFFC0
0FE0007F83F07F80
0FE0007F83C0FF80
0FE0007F83C1FF00
0FE0007F87C1FE00
0FE0007F8783FE00
0FE0007F8007FC00
0FE0007F8007F800
0FE0007F000FF800
0FE0007F001FF000
0FE0007F001FE000
0FE000FE003FC000
0FE000FE007FC380
0FE001FC00FF83C0
0FE001FC00FF03C0
0FF003F801FF03C0
1FF007F003FE03C0
1FF81FE003FC0FC0
FFFFFF8007FFFFC0
FFFFFE0007FFFFE0
FFFFF00003FFFFC0
ENDCHAR
STARTCHAR 01C6
ENCODING 454
SWIDTH 1100 0
DWIDTH 55 0
BBX 52 36 2 0
BITMAP
00000200200000
00007F007003C0
0003FF00FC07C0
0007FF007E1F80
0007FF003FBF00
0000FF001FFE00
00007F000FFC00
00007F0007F800
00007F0003F000
00007F0001E000
00007F00000000
00007F00000000
00007F00000000
00FFFF01FFFFE0
03FFFF01FFFFE0
0FFFFF01FFFFF0
1FC0FF01F81FE0
3F807F01F03FC0
3F007F01F07FC0
7F007F01E0FF80
7F007F01E0FF00
FE007F0001FF00
FE007F0003FE00
FE007F0003FC00
FE007F0007FC00
FE007F000FF800
FE007F000FF000
FF007F001FE0C0
FF007F003FE0F0
FF007F007FC0F0
FF807F007F80F0
7FC07FC0FF81F0
7FF1FFE1FF03F0
3FFFFFE1FFFFF0
1FFF7FE1FFFFF0
07FC7801FFFFF0
ENDCHAR
STARTCHAR 01C7
ENCODING 455
SWIDTH 960 0
DWIDTH 48 0
BBX 44 46 2 -12
BITMAP
FFFE0003FFF0
FFFE0003FFF0
FFFE0003FFF0
3FF80000FFC0
1FF000007F80
0FE000007F80
0FE000007F80
0FE000007F80
0FE000007F80
0FE000007F80
0FE000007F80
0FE000007F80
0FE000007F80
0FE000007F80
0FE000007F80
0FE000007F80
0FE000007F80
0FE000007F80
0FE000007F80
0FE000007F80
0FE000007F80
0FE000007F80
0FE000007F80
0FE000007F80
0FE000007F80
0FE001E07F80
0FE001E07F80
0FE003E07F80
0FF003E07F80
1FF007C07F80
1FF81FC07F80
FFFFFFC07F80
FFFFFFC07F00
FFFFFFC07F00
000000007F00
000000007F00
000000007F00
000000007E00
00000000FE00
00000000FC00
00000001FC00
00000003F800
00000007F000
0000000FC000
0000000F8000
0000000E0000
ENDCHAR
STARTCHAR 01C8
ENCODING 456
SWIDTH 900 0
DWIDTH 45 0
BBX 41 47 2 -12
BITMAP
000000000800
FFFE00007F00
FFFE00007F00
FFFE0000FF80
3FF80000FF80
1FF000007F00
0FE000007F00
0FE000001C00
0FE000000000
0FE000000000
0FE000000000
0FE000000000
0FE000000F00
0FE00003FF00
0FE00003FF80
0FE00003FF80
0FE00000FF80
0FE000007F80
0FE000007F80
0FE000007F80
0FE000007F80
0FE000007F80
0FE000007F80
0FE000007F80
0FE000007F80
0FE000007F80
0FE001E07F80
0FE001E07F80
0FE003E07F80
0FF003E07F80
1FF007C07F80
1FF81FC07F80
FFFFFFC07F00
FFFFFFC07F00
FFFFFFC07F00
000000007F00
000000007F00
000000007F00
000000007E00
00000000FE00
00000000FC00
00000001F800
00000001F800
00000003F000
00000007E000
00000007C000
000000070000
ENDCHAR
STARTCHAR 01C9
ENCODING 457
SWIDTH 640 0
DWIDTH 32 0
BBX 29 48 1 -12
BITMAP
00400000
0FE001C0
7FE007F0
FFE007F0
FFE00FF8
1FE00FF8
0FE00FF0
0FE007F0
0FE001C0
0FE00000
0FE00000
0FE00000
0FE00000
0FE000F0
0FE03FF0
0FE03FF0
0FE03FF0
0FE00FF0
0FE007F0
0FE007F0
0FE007F0
0FE007F0
0FE007F0
0FE007F0
0FE007F0
0FE007F0
0FE007F0
0FE007F0
0FE007F0
0FE007F0
0FE007F0
0FF007F0
1FF007F0
7FFC07F0
FFFE07F0
FFFE07F0
000007F0
000007F0
000007E0
000007E0
00000FE0
00000FC0
00001F80
00001F80
00003F00
00007E00
00007800
00007000
ENDCHAR
STARTCHAR 01CA
ENCODING 458
SWIDTH 1080 0
DWIDTH 54 0
BBX 51 46 2 -12
BITMAP
FFC003FF8FFFE0
FFE003FF0FFFE0
FFE003FF0FFFC0
3FF000FE03FF80
1FF8007C01FE00
0FFC003C01FE00
0FFC003801FE00
0FFE003801FE00
0FFF003801FE00
0FFF803801FE00
0EFF803801FE00
0E7FC03801FE00
0E7FE03801FE00
0E3FF03801FE00
0E1FF03801FE00
0E0FF83801FE00
0E0FFC3801FE00
0E07FC3801FE00
0E03FE3801FE00
0E01FF3801FE00
0E01FFB801FE00
0E00FFB801FE00
0E007FF801FE00
0E003FF801FE00
0E003FF801FE00
0E001FF801FE00
0E000FF801FE00
0E0007F801FE00
1E0007F801FE00
1F0003F801FE00
3F8001F801FE00
FFE000F801FE00
FFE000F801FE00
FFE0007801FE00
0000000001FC00
0000000001FC00
0000000001FC00
0000000001F800
0000000003F800
0000000003F000
0000000007F000
0000000007E000
000000000FC000
000000003F8000
000000003E0000
00000000380000
ENDCHAR
STARTCHAR 01CB
ENCODING 459
SWIDTH 1020 0
DWIDTH 51 0
BBX 47 47 2 -12
BITMAP
000000000020
FFC003FF80FC
FFE003FF01FE
FFE003FF01FE
3FF000FE03FE
1FF8007C01FE
0FFC003C01FC
0FFC00380070
0FFE00380000
0FFF00380000
0FFF80380000
0EFF80380000
0E7FC038001C
0E7FE0380FFE
0E3FF0380FFE
0E1FF0380FFE
0E0FF83803FE
0E0FFC3801FE
0E07FC3801FE
0E03FE3800FE
0E01FF3800FE
0E01FFB800FE
0E00FFB800FE
0E007FF800FE
0E003FF800FE
0E003FF800FE
0E001FF800FE
0E000FF800FE
0E0007F800FE
1E0007F800FE
1F0003F800FE
3F8001F800FE
FFE000F800FE
FFE000F800FE
FFE0007800FC
0000000000FC
0000000001FC
0000000001FC
0000000001F8
0000000001F8
0000000003F0
0000000003F0
0000000007E0
000000000FC0
000000001F80
000000001F00
000000000C00
ENDCHAR
STARTCHAR 01CC
ENCODING 460
SWIDTH 960 0
DWIDTH 48 0
BBX 44 47 2 -12
BITMAP
000000000100
000000000FE0
000000001FE0
000000001FF0
000000001FF0
000000001FE0
000000000FE0
000000000380
000000000000
000000000000
000000000000
000000000000
01C1FC0001E0
FFC7FF007FE0
FFCFFF807FE0
FFDFFF807FE0
3FFEFFC03FE0
1FE03FC00FE0
1FE01FC00FE0
1FE01FC00FE0
1FE01FC00FE0
1FE01FC00FE0
1FE01FC00FE0
1FE01FC00FE0
1FE01FC00FE0
1FE01FC00FE0
1FE01FC00FE0
1FE01FC00FE0
1FE01FC00FE0
1FE01FC00FE0
1FE01FE00FE0
3FF03FE00FE0
FFFCFFF80FE0
FFFCFFF80FE0
FFFCFFF80FE0
000000000FE0
000000000FE0
000000000FC0
000000000FC0
000000001F80
000000001F80
000000003F00
000000003E00
000000007E00
00000000FC00
00000000F000
00000000E000
ENDCHAR
STARTCHAR 01CD
ENCODING 461
SWIDTH 700 0
DWIDTH 35 0
BBX 34 44 1 0
BITMAP
00F0070000
01FC1F0000
00FF7F0000
007FFC0000
001FF80000
000FE00000
0007C00000
0002000000
0000000000
0000000000
0001C00000
0003C00000
0003E00000
0007E00000
0007F00000
0007F00000
000FF80000
000FF80000
001FFC0000
001FFC0000
001DFC0000
0039FE0000
0039FE0000
0070FF0000
0070FF0000
00707F8000
00E07F8000
00E07FC000
01E03FC000
01C03FC000
03C01FE000
03801FE000
03FFFFF000
07FFFFF000
07FF8FF800
0F0007F800
0E0007FC00
0E0003FC00
1E0003FE00
1E0003FE00
3E0003FF00
FF800FFF80
FFC00FFFC0
FFC00FFFC0
ENDCHAR
STARTCHAR 01CE
ENCODING 462
SWIDTH 540 0
DWIDTH 27 0
BBX 24 36 3 0
BITMAP
000080
7801C0
7C03E0
3F0FC0
1FFF00
0FFE00
07FC00
03F800
01F000
01E000
000000
000000
000000
00FF80
03FFC0
07FFE0
1E3FF0
3E0FF0
7E0FF0
7E07F0
FE07F0
FE07F0
000FF0
003FF0
01FFF0
07E7F0
1F87F0
7F07F0
7E07F0
7E07F0
FF07F8
FF07FC
7F8FFF
7FFFFF
3FF7FF
1FE3F8
ENDCHAR
STARTCHAR 01CF
ENCODING 463
SWIDTH 380 0
DWIDTH 19 0
BBX 15 44 2 0
BITMAP
300C
F81E
FE3E
7FFC
3FF8
1FF0
0FE0
07C0
0000
0000
FFFE
FFFE
FFFE
3FF8
1FF0
0FE0
0FE0
0FE0
0FE0
0FE0
0FE0
0FE0
0FE0
0FE0
0FE0
0FE0
0FE0
0FE0
0FE0
0FE0
0FE0
0FE0
0FE0
0FE0
0FE0
0FE0
0FE0
0FE0
0FE0
1FF0
1FF0
FFFE
FFFE
FFFE
ENDCHAR
STARTCHAR 01D0
ENCODING 464
SWIDTH 340 0
DWIDTH 17 0
BBX 15 36 1 0
BITMAP
1008
780E
FC1E
7E3C
3F78
1FF8
1FF0
0FE0
07C0
0780
0000
0000
0000
00E0
7FE0
7FF0
7FF0
1FF0
0FF0
0FF0
0FF0
0FF0
0FF0
0FF0
0FF0
0FF0
0FF0
0FF0
0FF0
0FF0
0FF0
0FF0
1FF8
7FFE
7FFE
7FFE
ENDCHAR
STARTCHAR 01D1
ENCODING 465
SWIDTH 740 0
DWIDTH 37 0
BBX 34 44 2 0
BITMAP
0070070000
00FC0F8000
007F7F0000
003FFC0000
001FF80000
000FF00000
0007C00000
0002800000
0000000000
0000000000
001FFC0000
007FFF8000
01FFFFE000
03F81FF000
0FE007F800
0FC003FC00
1FC003FE00
3F8001FE00
3F8000FF00
7F0000FF00
7F00007F80
FF00007F80
FF00007F80
FF00007F80
FF00007F80
FF00003FC0
FF00003FC0
FF00003FC0
FF00003FC0
FF00003F80
FF00003F80
FF00007F80
FF00007F80
7F80007F00
7F80007F00
3F8000FF00
3FC000FE00
1FE000FC00
1FE001FC00
0FF003F800
07FC0FF000
01FFFFE000
00FFFF8000
003FFE0000
ENDCHAR
STARTCHAR 01D2
ENCODING 466
SWIDTH 560 0
DWIDTH 28 0
BBX 25 35 2 1
BITMAP
0E007800
1F00F800
0FC3F000
07F7E000
03FFC000
01FF8000
00FF0000
007E0000
003C0000
00000000
00000000
00000000
01FFC000
07FFF000
0FFFF800
1F83FC00
3F01FE00
7F00FF00
7F00FF00
FE007F00
FE007F80
FE007F80
FE007F80
FE007F80
FE007F80
FE007F80
FF007F00
FF007F00
FF007F00
7F807E00
7F80FE00
3FC1FC00
1FFFF800
0FFFF000
01FFC000
ENDCHAR
STARTCHAR 01D3
ENCODING 467
SWIDTH 680 0
DWIDTH 34 0
BBX 31 44 2 0
BITMAP
00780380
00FE0F80
007FBF00
003FFE00
000FFC00
0007F000
0003E000
00010000
00000000
00000000
FFFC0FFE
FFFC0FFC
FFFC0FFC
7FF003F8
1FE001F0
1FE000E0
1FC000E0
1FC000E0
1FC000E0
1FC000E0
1FC000E0
1FC000E0
1FC000E0
1FC000E0
1FC000E0
1FC000E0
1FC000E0
1FC000E0
1FC000E0
1FC000E0
1FC000E0
1FC000E0
1FC000E0
1FE000E0
1FE000E0
1FE000E0
1FE001E0
0FE001E0
0FF001C0
0FF803C0
07FC0F80
03FFFF00
01FFFE00
007FFC00
ENDCHAR
STARTCHAR 01D4
ENCODING 468
SWIDTH 600 0
DWIDTH 30 0
BBX 28 35 1 1
BITMAP
07801C00
07C03E00
03F0FC00
01FFF800
00FFE000
007FC000
003F8000
001F0000
001F0000
00000000
00000000
00000000
03C00780
FFC1FF80
FFC1FF80
FFC3FF80
3FC07F80
1FC03F80
1FC03F80
1FC03F80
1FC03F80
1FC03F80
1FC03F80
1FC03F80
1FC03F80
1FC03F80
1FC03F80
1FC03F80
1FC03F80
1FE03FC0
1FF03FE0
0FFEFFF0
0FFFFFF0
07FFBFF0
03FE3C00
ENDCHAR
STARTCHAR 01D5
ENCODING 469
SWIDTH 680 0
DWIDTH 34 0
BBX 31 50 2 0
BITMAP
00FFFFE0
00FFFFE0
00FFFFC0
00F00000
00000000
00000000
00000000
007C0F80
00FE1FC0
00FE1FE0
00FE1FE0
00FE1FC0
00FE0FC0
00380700
00000000
00000000
FFFC0FFE
FFFC0FFC
FFFC0FFC
7FF003F8
1FE001F0
1FE000E0
1FC000E0
1FC000E0
1FC000E0
1FC000E0
1FC000E0
1FC000E0
1FC000E0
1FC000E0
1FC000E0
1FC000E0
1FC000E0
1FC000E0
1FC000E0
1FC000E0
1FC000E0
1FC000E0
1FC000E0
1FE000E0
1FE000E0
1FE000E0
1FE001E0
0FE001E0
0FF001C0
0FF803C0
07FC0F80
03FFFF00
01FFFE00
007FFC00
ENDCHAR
STARTCHAR 01D6
ENCODING 470
SWIDTH 600 0
DWIDTH 30 0
BBX 28 39 1 0
BITMAP
07FFFE00
07FFFE00
0FFFFE00
08000000
00000000
00000000
00000000
03E07C00
07F0FE00
07F0FE00
0FF0FE00
07F0FE00
07E07E00
01801800
00000000
00000000
03C00780
FFC1FF80
FFC1FF80
FFC3FF80
3FC07F80
1FC03F80
1FC03F80
1FC03F80
1FC03F80
1FC03F80
1FC03F80
1FC03F80
1FC03F80
1FC03F80
1FC03F80
1FC03F80
1FC03F80
1FE03FC0
1FF03FE0
0FFEFFF0
0FFFFFF0
07FFBFF0
03FE3C00
ENDCHAR
STARTCHAR 01D7
ENCODING 471
SWIDTH 680 0
DWIDTH 34 0
BBX 31 53 2 0
BITMAP
00001E00
00007E00
00007C00
0000F800
0000F800
0001F000
0001E000
0000C000
00000000
00000000
007C0F80
00FE1FC0
00FE1FE0
00FE1FE0
00FE1FC0
00FE0FC0
00380700
00000000
00000000
FFFC0FFE
FFFC0FFC
FFFC0FFC
7FF003F8
1FE001F0
1FE000E0
1FC000E0
1FC000E0
1FC000E0
1FC000E0
1FC000E0
1FC000E0
1FC000E0
1FC000E0
1FC000E0
1FC000E0
1FC000E0
1FC000E0
1FC000E0
1FC000E0
1FC000E0
1FC000E0
1FC000E0
1FE000E0
1FE000E0
1FE000E0
1FE001E0
0FE001E0
0FF001C0
0FF803C0
07FC0F80
03FFFF00
01FFFE00
007FFC00
ENDCHAR
STARTCHAR 01D8
ENCODING 472
SWIDTH 600 0
DWIDTH 30 0
BBX 28 42 1 0
BITMAP
0001F800
0003F000
0007E000
0007C000
00078000
000F0000
001F0000
00020000
00000000
00000000
03E07C00
07F0FE00
07F0FE00
0FF0FE00
07F0FE00
07E07E00
01801800
00000000
00000000
03C00780
FFC1FF80
FFC1FF80
FFC3FF80
3FC07F80
1FC03F80
1FC03F80
1FC03F80
1FC03F80
1FC03F80
1FC03F80
1FC03F80
1FC03F80
1FC03F80
1FC03F80
1FC03F80
1FC03F80
1FE03FC0
1FF03FE0
0FFEFFF0
0FFFFFF0
07FFBFF0
03FE3C00
ENDCHAR
STARTCHAR 01D9
ENCODING 473
SWIDTH 680 0
DWIDTH 34 0
BBX 31 53 2 0
BITMAP
00300300
00FC0780
007F1F80
003FFE00
001FFC00
000FF800
0003E000
0001C000
00000000
00000000
007C0F80
00FE1FC0
00FE1FE0
00FE1FE0
00FE1FC0
00FE0FC0
00380700
00000000
00000000
FFFC0FFE
FFFC0FFC
FFFC0FFC
7FF003F8
1FE001F0
1FE000E0
1FC000E0
1FC000E0
1FC000E0
1FC000E0
1FC000E0
1FC000E0
1FC000E0
1FC000E0
1FC000E0
1FC000E0
1FC000E0
1FC000E0
1FC000E0
1FC000E0
1FC000E0
1FC000E0
1FC000E0
1FE000E0
1FE000E0
1FE000E0
1FE001E0
0FE001E0
0FF001C0
0FF803C0
07FC0F80
03FFFF00
01FFFE00
007FFC00
ENDCHAR
STARTCHAR 01DA
ENCODING 474
SWIDTH 600 0
DWIDTH 30 0
BBX 28 42 1 0
BITMAP
03801800
07E07C00
03F9FC00
01FFF000
00FFE000
007F8000
003F0000
001C0000
00000000
00000000
03E07C00
07F0FE00
07F0FE00
0FF0FE00
07F0FE00
07E07E00
01801800
00000000
00000000
03C00780
FFC1FF80
FFC1FF80
FFC3FF80
3FC07F80
1FC03F80
1FC03F80
1FC03F80
1FC03F80
1FC03F80
1FC03F80
1FC03F80
1FC03F80
1FC03F80
1FC03F80
1FC03F80
1FC03F80
1FE03FC0
1FF03FE0
0FFEFFF0
0FFFFFF0
07FFBFF0
03FE3C00
ENDCHAR
STARTCHAR 01DB
ENCODING 475
SWIDTH 680 0
DWIDTH 34 0
BBX 31 53 2 0
BITMAP
00018000
001F8000
000FC000
0007C000
0003C000
0003E000
0001F000
0000C000
00000000
00000000
007C0F80
00FE1FC0
00FE1FE0
00FE1FE0
00FE1FC0
00FE0FC0
00380700
00000000
00000000
FFFC0FFE
FFFC0FFC
FFFC0FFC
7FF003F8
1FE001F0
1FE000E0
1FC000E0
1FC000E0
1FC000E0
1FC000E0
1FC000E0
1FC000E0
1FC000E0
1FC000E0
1FC000E0
1FC000E0
1FC000E0
1FC000E0
1FC000E0
1FC000E0
1FC000E0
1FC000E0
1FC000E0
1FE000E0
1FE000E0
1FE000E0
1FE001E0
0FE001E0
0FF001C0
0FF803C0
07FC0F80
03FFFF00
01FFFE00
007FFC00
ENDCHAR
STARTCHAR 01DC
ENCODING 476
SWIDTH 600 0
DWIDTH 30 0
BBX 28 42 1 0
BITMAP
00180000
00FC0000
007C0000
003E0000
003E0000
001F0000
000F0000
00040000
00000000
00000000
03E07C00
07F0FE00
07F0FE00
0FF0FE00
07F0FE00
07E07E00
01801800
00000000
00000000
03C00780
FFC1FF80
FFC1FF80
FFC3FF80
3FC07F80
1FC03F80
1FC03F80
1FC03F80
1FC03F80
1FC03F80
1FC03F80
1FC03F80
1FC03F80
1FC03F80
1FC03F80
1FC03F80
1FC03F80
1FE03FC0
1FF03FE0
0FFEFFF0
0FFFFFF0
07FFBFF0
03FE3C00
ENDCHAR
STARTCHAR 01DD
ENCODING 477
SWIDTH 500 0
DWIDTH 25 0
BBX 22 23 2 0
BITMAP
0FFE00
3FFF80
7FFFC0
FE7FE0
E01FF0
4007F8
0007F8
0003F8
0003FC
0003FC
7FFFFC
FFFFFC
FFFFFC
FE01FC
FE03F8
FE03F8
FE03F8
7E03F0
7F07F0
3F07E0
3FFFC0
1FFF80
07FE00
ENDCHAR
STARTCHAR 01E4
ENCODING 484
SWIDTH 700 0
DWIDTH 35 0
BBX 33 34 2 0
BITMAP
000FFF0000
007FFFE000
01FFFFF800
03FC07F800
0FF001F800
1FE000F800
1FC000F800
3F8000F800
7F80007800
7F80007800
7F00004000
FF00000000
FF00000000
FF00000000
FF00000000
FF00000000
FF00000000
FF00000000
FF003FFE00
FF003FFE00
FF001FFE00
FF0003F800
FF0003F800
7F8001F800
7F80FFFF80
7FC0FFFF80
3FC0FFFF80
1FE001F800
1FF001F800
0FF803F800
07FC07FC00
03FFFFF800
00FFFFE000
001FFF0000
ENDCHAR
STARTCHAR 01E5
ENCODING 485
SWIDTH 540 0
DWIDTH 27 0
BBX 29 35 -1 -12
BITMAP
00FFFFE0
03FFFFE0
07FBFFE0
0FE0FE60
0FE07F00
1FC07F00
1FC07F00
1FC07F80
1FC03F80
1FE07F00
0FE07F00
0FE07F00
07F0FE00
07FFFC00
01FFF800
03FFC000
07C00000
0F800000
0FC00000
0FFFFC00
0FFFFF00
0FFFFFC0
0FFFFFC0
07FFFFC0
07FFFFE0
0F8FFFE0
1F800FC0
FFFFFFF8
FFFFFFF8
FFFFFFF8
1F801F80
1FC07F00
1FFFFE00
0FFFF800
03FFC000
ENDCHAR
STARTCHAR 01E6
ENCODING 486
SWIDTH 700 0
DWIDTH 35 0
BBX 31 44 2 0
BITMAP
00780380
00FE0F80
007FBF00
003FFE00
000FF800
0007F000
0003E000
00010000
00000000
00000000
000FFF00
007FFFE0
01FFFFF8
03FC07F8
0FF001F8
1FE000F8
1FC000F8
3F8000F8
7F800078
7F800078
7F000040
FF000000
FF000000
FF000000
FF000000
FF000000
FF000000
FF000000
FF003FFE
FF003FFE
FF001FFE
FF0003F8
FF0003F8
7F8001F8
7F8001F8
7FC001F8
3FC001F8
1FE001F8
1FF001F8
0FF803F8
07FC07FC
03FFFFF8
00FFFFE0
001FFF00
ENDCHAR
STARTCHAR 01E7
ENCODING 487
SWIDTH 540 0
DWIDTH 27 0
BBX 25 48 1 -12
BITMAP
00002000
1E007000
1F01F800
0FC3E000
07EFC000
03FF8000
01FF0000
01FE0000
00FC0000
00780000
00000000
00000000
00000000
03FFFF80
0FFFFF80
1FEFFF80
3F83F980
3F81FC00
7F01FC00
7F01FC00
7F01FE00
7F00FE00
7F81FC00
3F81FC00
3F81FC00
1FC3F800
1FFFF000
07FFE000
0FFF0000
1F000000
3E000000
3F000000
3FFFF000
3FFFFC00
3FFFFF00
3FFFFF00
1FFFFF00
1FFFFF80
3E3FFF80
7E003F00
7C003F00
7C003F00
FC003E00
7E007E00
7F01FC00
7FFFF000
3FFFE000
0FFF0000
ENDCHAR
STARTCHAR 01E8
ENCODING 488
SWIDTH 720 0
DWIDTH 36 0
BBX 33 44 2 0
BITMAP
0070070000
00FC0F8000
007F7F0000
003FFE0000
001FF80000
000FF00000
0007E00000
0002000000
0000000000
0000000000
FFFE0FFE00
FFFE0FFE00
FFFE0FFE00
3FF807F800
1FF007E000
0FE007C000
0FE00F8000
0FE01F0000
0FE03E0000
0FE07C0000
0FE0F80000
0FE1F00000
0FE3E00000
0FE7C00000
0FEFC00000
0FFFC00000
0FFFE00000
0FFFF00000
0FFFF80000
0FEFFC0000
0FE7FC0000
0FE3FE0000
0FE1FF0000
0FE0FF8000
0FE0FF8000
0FE07FC000
0FE03FE000
0FE03FE000
0FE01FF000
1FF00FF800
1FF00FFE00
FFFE07FF80
FFFE03FF80
FFFE03FF80
ENDCHAR
STARTCHAR 01E9
ENCODING 489
SWIDTH 600 0
DWIDTH 30 0
BBX 29 44 1 0
BITMAP
01C01C00
03F07E00
03FDFC00
00FFF000
007FE000
003FC000
001F0000
00080000
00400000
0FE00000
7FE00000
FFE00000
FFE00000
1FE00000
0FE00000
0FE00000
0FE00000
0FE00000
0FE00000
0FE00000
0FE00000
0FE07FF0
0FE07FF0
0FE07FF0
0FE03FC0
0FE03E00
0FE03C00
0FE07800
0FE0F000
0FE3E000
0FE7E000
0FEFF000
0FEFF000
0FE7F800
0FE3FC00
0FE3FE00
0FE1FF00
0FE0FF00
0FE07F80
0FE03FC0
1FF03FF0
7FFC1FF8
FFFC0FF8
FFFC07F8
ENDCHAR
STARTCHAR 01EA
ENCODING 490
SWIDTH 740 0
DWIDTH 37 0
BBX 34 47 2 -13
BITMAP
001FFC0000
007FFF8000
01FFFFE000
03F81FF000
0FE007F800
0FC003FC00
1FC003FE00
3F8001FE00
3F8000FF00
7F0000FF00
7F00007F80
FF00007F80
FF00007F80
FF00007F80
FF00007F80
FF00003FC0
FF00003FC0
FF00003FC0
FF00003FC0
FF00003F80
FF00003F80
FF00007F80
FF00007F80
7F80007F00
7F80007F00
3F8000FF00
3FC000FE00
1FE000FC00
1FE001FC00
0FF003F800
07FC0FF000
01FFFFE000
00FFFF8000
003FFE0000
00003C0000
0000F80000
0001F00000
0001F00000
0003F00000
0003F00000
0003F00000
0003FF8000
0003FFC000
0003FFC000
0001FF8000
0000FC0000
0000180000
ENDCHAR
STARTCHAR 01EB
ENCODING 491
SWIDTH 560 0
DWIDTH 28 0
BBX 25 35 2 -12
BITMAP
01FFC000
07FFF000
0FFFF800
1F83FC00
3F01FE00
7F00FF00
7F00FF00
FE007F00
FE007F80
FE007F80
FE007F80
FE007F80
FE007F80
FE007F80
FF007F80
FF007F00
7F007F00
7F807E00
3F80FE00
3FC1FC00
1FFFF800
0FFFF000
03FFC000
003E0000
00F80000
01F00000
03E00000
03E00000
07E00000
07F00000
07FF8000
07FF8000
07FF8000
03FF0000
01F80000
ENDCHAR
STARTCHAR 01EE
ENCODING 494
SWIDTH 600 0
DWIDTH 30 0
BBX 25 44 3 0
BITMAP
0E006000
1F81F000
0FE7E000
07FFC000
03FF0000
01FE0000
00FC0000
00400000
00000000
00000000
7FFFFF00
7FFFFF00
7FFFFF00
7E01FF00
FC03FE00
F803FC00
F807FC00
F007F800
F00FF800
F01FF000
003FE000
003FC000
007FC000
00FF8000
01FF0000
01FF8000
01FFF000
01FFFC00
000FFE00
0001FF00
0000FF80
00007F80
00007F80
10007F80
F0007F80
F0007F80
F0007F80
F8007F80
F800FF00
FC00FF00
FE03FE00
FFFFFC00
7FFFF000
1FFFC000
ENDCHAR
STARTCHAR 01EF
ENCODING 495
SWIDTH 500 0
DWIDTH 25 0
BBX 22 47 2 -11
BITMAP
3C00E0
3E01F0
1F87E0
0FFFC0
07FF00
03FE00
01FC00
00F800
00F800
000000
000000
000000
7FFFF8
7FFFF8
7FFFF8
7E07F8
7C0FF0
781FF0
781FE0
783FC0
003FC0
007F80
007F80
00FF00
01FE00
01FE00
03FC00
07FF00
07FFC0
07FFE0
037FF0
000FF8
0003FC
0003FC
0003FC
0001FC
0001FC
0001FC
0001FC
F003FC
F803F8
F803F8
FC07F0
FE1FE0
FFFFC0
FFFF80
1FFE00
ENDCHAR
STARTCHAR 01F1
ENCODING 497
SWIDTH 1340 0
DWIDTH 67 0
BBX 63 34 2 0
BITMAP
FFFFF00001FFFFFC
FFFFFF0001FFFFFC
FFFFFFC001FFFFFC
3FE03FF001FC07FC
1FE00FF801F00FF8
0FE007FC01E00FF8
0FE003FE03E01FF0
0FE001FE03E01FF0
0FE000FF03C03FE0
0FE000FF03C03FE0
0FE000FF00007FC0
0FE0007F80007F80
0FE0007F8000FF80
0FE0007F8001FF00
0FE0007F8001FF00
0FE0007F8003FE00
0FE0007F8003FE00
0FE0007F8007FC00
0FE0007F8007FC00
0FE0007F800FF800
0FE0007F801FF000
0FE0007F001FF000
0FE0007F003FE000
0FE0007F003FE000
0FE000FE007FC000
0FE000FE00FF803E
0FE001FC00FF803E
0FE001FC01FF003C
0FF003F801FF007C
1FF007F003FE007C
1FF81FE007FC01FC
FFFFFF8007FFFFFC
FFFFFE0007FFFFFC
FFFFF00007FFFFFC
ENDCHAR
STARTCHAR 01F2
ENCODING 498
SWIDTH 1240 0
DWIDTH 62 0
BBX 59 34 2 0
BITMAP
FFFFF00000000000
FFFFFF0000000000
FFFFFFC000000000
3FE03FF000000000
1FE00FF800000000
0FE007FC00000000
0FE003FE00000000
0FE001FE00000000
0FE000FF00000000
0FE000FF00000000
0FE000FF00000000
0FE0007F83FFFF80
0FE0007F83FFFFC0
0FE0007F83FFFFC0
0FE0007F83F07F80
0FE0007F83C0FF80
0FE0007F83C1FF00
0FE0007F87C1FE00
0FE0007F8783FE00
0FE0007F8007FC00
0FE0007F8007F800
0FE0007F000FF800
0FE0007F001FF000
0FE0007F001FE000
0FE000FE003FC000
0FE000FE007FC380
0FE001FC00FF83C0
0FE001FC00FF03C0
0FF003F801FF03C0
1FF007F003FE03C0
1FF81FE003FC0FC0
FFFFFF8007FFFFC0
FFFFFE0007FFFFE0
FFFFF00003FFFFC0
ENDCHAR
STARTCHAR 01F3
ENCODING 499
SWIDTH 1100 0
DWIDTH 55 0
BBX 52 36 2 0
BITMAP
00000200000000
00007F00000000
0003FF00000000
0007FF00000000
0007FF00000000
0000FF00000000
00007F00000000
00007F00000000
00007F00000000
00007F00000000
00007F00000000
00007F00000000
00007F00000000
00FFFF01FFFFE0
03FFFF01FFFFE0
0FFFFF01FFFFF0
1FC0FF01F81FE0
3F807F01F03FC0
3F007F01F07FC0
7F007F01E0FF80
7F007F01E0FF00
FE007F0001FF00
FE007F0003FE00
FE007F0003FC00
FE007F0007FC00
FE007F000FF800
FE007F000FF000
FF007F001FE0C0
FF007F003FE0F0
FF007F007FC0F0
FF807F007F80F0
7FC07FC0FF81F0
7FF1FFE1FF03F0
3FFFFFE1FFFFF0
1FFF7FE1FFFFF0
07FC7801FFFFF0
ENDCHAR
STARTCHAR 01FA
ENCODING 506
SWIDTH 700 0
DWIDTH 35 0
BBX 34 55 1 0
BITMAP
0000080000
0000FE0000
0000F80000
0001F80000
0001F00000
0003E00000
0003C00000
0001800000
0000000000
0000000000
0000000000
0007F00000
001FF80000
001C3C0000
001C3C0000
001C3C0000
001E3C0000
000FF80000
0007E00000
0000000000
0000000000
0001C00000
0003C00000
0003E00000
0007E00000
0007F00000
0007F00000
000FF80000
000FF80000
001FFC0000
001FFC0000
001DFC0000
0039FE0000
0039FE0000
0070FF0000
0070FF0000
00707F8000
00E07F8000
00E07FC000
01E03FC000
01C03FC000
03C01FE000
03801FE000
03FFFFF000
07FFFFF000
07FF8FF800
0F0007F800
0E0007FC00
0E0003FC00
1E0003FE00
1E0003FE00
3E0003FF00
FF800FFF80
FFC00FFFC0
FFC00FFFC0
ENDCHAR
STARTCHAR 01FB
ENCODING 507
SWIDTH 540 0
DWIDTH 27 0
BBX 24 44 3 0
BITMAP
000E00
003F00
007E00
007C00
00F800
00F000
01F000
006000
000000
000000
000000
03FC00
07BE00
0F1E00
0F0F00
0F0E00
079E00
07FC00
01F000
000000
000000
00FF80
03FFC0
07FFE0
1E3FF0
3E0FF0
7E0FF0
7E07F0
FE07F0
FE07F0
000FF0
003FF0
01FFF0
07E7F0
1F87F0
7F07F0
7E07F0
7E07F0
FF07F8
FF07FC
7F8FFF
7FFFFF
3FF7FF
1FE3F8
ENDCHAR
STARTCHAR 01FC
ENCODING 508
SWIDTH 940 0
DWIDTH 47 0
BBX 45 44 1 0
BITMAP
0000003F8000
0000003F0000
0000007E0000
0000007C0000
000000F80000
000000F00000
000001E00000
000000000000
000000000000
000000000000
0003FFFFFFE0
0003FFFFFFE0
0001FFFFFFE0
00007FF81FE0
00007FF803E0
00007BF801E0
00007BF801E0
0000F3F800E0
0000E3F800F0
0001E3F80000
0001C3F80000
0003C3F80000
000783F80E00
000783F81E00
000F03F81E00
000E03F81E00
001E03F87E00
001FFFFFFE00
003FFFFFFE00
007FFFF8FE00
007803F83E00
00F003F81E00
00E003F81E00
01E003F81E00
01C003F80000
03C003F80078
078003F80078
078003FC0078
0F0003FC00F8
1F8003FC01F8
3F8007FE07F0
FFE01FFFFFF0
FFE03FFFFFF0
FFE03FFFFFF0
ENDCHAR
STARTCHAR 01FD
ENCODING 509
SWIDTH 720 0
DWIDTH 36 0
BBX 33 36 2 0
BITMAP
00003F0000
00007E0000
00007E0000
00007C0000
0000F80000
0000F00000
0000F00000
0001E00000
0001C00000
0000400000
0000000000
0000000000
0000000000
0FFC1FF000
7FFF3FF800
7FFFFFFC00
3E1FF87E00
3E0FF07E00
3C0FF03F00
3C07F03F00
3C07F03F00
0007F03F00
000FFFFF80
03FFFFFF00
0FFFFFFF00
3FE7F00000
7F07F00000
7E0FF00000
FC0FF00000
FC0FF80000
FC0FF80000
FE1FFC0700
FFFDFF3F00
FFF8FFFF00
7FF07FFE00
3FC01FF000
ENDCHAR
STARTCHAR 01FE
ENCODING 510
SWIDTH 740 0
DWIDTH 37 0
BBX 34 45 2 -1
BITMAP
00007E0000
0000FC0000
0000FC0000
0000F80000
0001F00000
0001E00000
0003C00000
0000000000
0000000000
0000000F00
001FFC0F00
007FFF9F00
01FFFFFE00
03F81FFC00
0FE007F800
0FC003FC00
1FC001FE00
3F8003FE00
3F8007FF00
7F000FFF00
7F000F7F80
FF001E7F80
FF003E7F80
FF007C7F80
FF00783F80
FF00F03FC0
FF01F03FC0
FF03E03FC0
FF07C03FC0
FF07803F80
FF0F803F80
FF1F007F80
FF3E007F80
7FBC007F00
7FF8007F00
3FF800FF00
3FF000FE00
1FE000FC00
1FE001FC00
0FF003F800
0FFC0FF000
1FFFFFE000
3EFFFF8000
7C1FFE0000
7800000000
ENDCHAR
STARTCHAR 01FF
ENCODING 511
SWIDTH 560 0
DWIDTH 28 0
BBX 26 38 1 -2
BITMAP
0003F800
0003F000
0003E000
0007C000
0007C000
000F8000
000F0000
000F0000
001E0000
00000000
00000000
00000000
000003C0
00FFE780
03FFFF80
07FFFF00
0FC1FE00
1F80FF00
3F80FF80
3F81FF80
7F03FF80
7F07FFC0
7F07BFC0
7F0F3FC0
7F1E3FC0
7F3E3FC0
7F7C3FC0
7FF83F80
7FF03F80
7FE03F80
3FC03F00
3FC07F00
1FE0FE00
1FFFFC00
3FFFF800
7DFFE000
F8000000
10000000
ENDCHAR
STARTCHAR 0200
ENCODING 512
SWIDTH 700 0
DWIDTH 35 0
BBX 34 43 1 0
BITMAP
03E1F00000
03F1F80000
01F0F80000
00F87C0000
00783C0000
007C3E0000
003C1E0000
0000000000
0000000000
0001C00000
0003C00000
0003E00000
0007E00000
0007F00000
0007F00000
000FF80000
000FF80000
001FFC0000
001FFC0000
001DFC0000
0039FE0000
0039FE0000
0070FF0000
0070FF0000
00707F8000
00E07F8000
00E07FC000
01E03FC000
01C03FC000
03C01FE000
03801FE000
03FFFFF000
07FFFFF000
07FF8FF800
0F0007F800
0E0007FC00
0E0003FC00
1E0003FE00
1E0003FE00
3E0003FF00
FF800FFF80
FFC00FFFC0
FFC00FFFC0
ENDCHAR
STARTCHAR 0201
ENCODING 513
SWIDTH 540 0
DWIDTH 27 0
BBX 25 36 2 0
BITMAP
3E0F0000
FE3F0000
7E1F0000
3F1F8000
1F0F8000
0F07C000
0783C000
0783C000
03C1E000
00000000
00000000
00000000
00000000
007FC000
01FFE000
03FFF000
0F1FF800
1F07F800
3F07F800
3F03F800
7F03F800
7F03F800
0007F800
001FF800
00FFF800
03F3F800
0FC3F800
3F83F800
3F03F800
3F03F800
7F83FC00
7F83FE00
3FC7FF80
3FFFFF80
1FFBFF80
0FF1FC00
ENDCHAR
STARTCHAR 0202
ENCODING 514
SWIDTH 700 0
DWIDTH 35 0
BBX 34 44 1 0
BITMAP
0003C00000
001FFC0000
003FFE0000
007FFF0000
00FFFF0000
00F01F0000
00F00F8000
00E0070000
0000000000
0000000000
0001C00000
0003C00000
0003E00000
0007E00000
0007F00000
0007F00000
000FF80000
000FF80000
001FFC0000
001FFC0000
001DFC0000
0039FE0000
0039FE0000
0070FF0000
0070FF0000
00707F8000
00E07F8000
00E07FC000
01E03FC000
01C03FC000
03C01FE000
03801FE000
03FFFFF000
07FFFFF000
07FF8FF800
0F0007F800
0E0007FC00
0E0003FC00
1E0003FE00
1E0003FE00
3E0003FF00
FF800FFF80
FFC00FFFC0
FFC00FFFC0
ENDCHAR
STARTCHAR 0203
ENCODING 515
SWIDTH 540 0
DWIDTH 27 0
BBX 24 35 3 1
BITMAP
07FE00
1FFF00
3FFF80
3FFFC0
7E1FE0
7803E0
7001E0
F001E0
F001E0
000000
000000
000000
00FF80
03FFC0
07FFE0
1E3FF0
3E0FF0
7E0FF0
7E07F0
FE07F0
FE07F0
000FF0
003FF0
01FFF0
07E7F0
1F87F0
7F07F0
7E07F0
7E07F0
FF07F8
FF07FC
7F8FFF
7FFFFF
3FF7FF
1FE3F8
ENDCHAR
STARTCHAR 0204
ENCODING 516
SWIDTH 620 0
DWIDTH 31 0
BBX 28 43 2 0
BITMAP
1F0F8000
1F8F8000
0F87C000
07C3C000
07C3E000
03E1E000
01E0F000
00000000
00000000
FFFFFF80
FFFFFF80
FFFFFF80
3FE03F80
1FE00F80
0FE007C0
0FE003C0
0FE003C0
0FE003C0
0FE00000
0FE00000
0FE01800
0FE03800
0FE07800
0FE07800
0FE3F800
0FFFF800
0FFFF800
0FFFF800
0FE07800
0FE07800
0FE03800
0FE03800
0FE00000
0FE00080
0FE000E0
0FE001F0
0FE001E0
0FF003E0
1FF007E0
1FF81FE0
FFFFFFE0
FFFFFFC0
FFFFFFC0
ENDCHAR
STARTCHAR 0205
ENCODING 517
SWIDTH 500 0
DWIDTH 25 0
BBX 22 36 2 0
BITMAP
1E0F00
7E3F00
3F1F80
1F0F80
0F07C0
0F87C0
0783C0
03C1E0
03C1E0
000000
000000
000000
000000
01FF00
07FFC0
1FFFE0
3F87F0
3F03F0
7F03F8
7E01F8
FE01F8
FE01FC
FE01FC
FFFFFC
FFFFF8
FFFFF8
FE0000
FE0000
FF0000
FF0000
7F8000
7FC018
3FF0FC
1FFFF8
0FFFE0
03FFC0
ENDCHAR
STARTCHAR 0206
ENCODING 518
SWIDTH 620 0
DWIDTH 31 0
BBX 28 44 2 0
BITMAP
003E0000
00FFE000
03FFF000
03FFF000
07FFF800
0780F800
07007800
07007800
00000000
00000000
FFFFFF80
FFFFFF80
FFFFFF80
3FE03F80
1FE00F80
0FE007C0
0FE003C0
0FE003C0
0FE003C0
0FE00000
0FE00000
0FE01800
0FE03800
0FE07800
0FE07800
0FE3F800
0FFFF800
0FFFF800
0FFFF800
0FE07800
0FE07800
0FE03800
0FE03800
0FE00000
0FE00080
0FE000E0
0FE001F0
0FE001E0
0FF003E0
1FF007E0
1FF81FE0
FFFFFFE0
FFFFFFC0
FFFFFFC0
ENDCHAR
STARTCHAR 0207
ENCODING 519
SWIDTH 500 0
DWIDTH 25 0
BBX 22 35 2 1
BITMAP
03FF00
07FFC0
0FFFE0
1FFFF0
1F87F0
3E01F0
3C00F8
380078
380070
000000
000000
000000
01FF00
07FFC0
1FFFE0
3F87F0
3F03F0
7F03F8
7E01F8
FE01F8
FE01FC
FE01FC
FFFFFC
FFFFF8
FFFFF8
FE0000
FE0000
FF0000
FF0000
7F8000
7FC018
3FF0FC
1FFFF8
0FFFE0
03FFC0
ENDCHAR
STARTCHAR 0208
ENCODING 520
SWIDTH 380 0
DWIDTH 19 0
BBX 17 43 0 0
BITMAP
F87C00
FC7C00
7C3E00
3E3E00
1E1E00
1F0F00
0F0F80
000000
000000
3FFF80
3FFF80
3FFF80
0FFE00
07FC00
03F800
03F800
03F800
03F800
03F800
03F800
03F800
03F800
03F800
03F800
03F800
03F800
03F800
03F800
03F800
03F800
03F800
03F800
03F800
03F800
03F800
03F800
03F800
03F800
07FC00
07FC00
3FFF80
3FFF80
3FFF80
ENDCHAR
STARTCHAR 0209
ENCODING 521
SWIDTH 340 0
DWIDTH 17 0
BBX 17 36 -1 0
BITMAP
783800
F8FC00
7C7C00
7C7C00
3C3C00
1E1E00
1E1E00
0F0F00
0F0F00
000000
000000
000000
000000
003800
1FF800
1FFC00
1FFC00
07FC00
03FC00
03FC00
03FC00
03FC00
03FC00
03FC00
03FC00
03FC00
03FC00
03FC00
03FC00
03FC00
03FC00
03FC00
07FE00
1FFF80
1FFF80
1FFF80
ENDCHAR
STARTCHAR 020A
ENCODING 522
SWIDTH 380 0
DWIDTH 19 0
BBX 15 44 2 0
BITMAP
0180
1FF0
3FFC
7FFC
FFFE
F03E
E01E
E00E
0000
0000
FFFE
FFFE
FFFE
3FF8
1FF0
0FE0
0FE0
0FE0
0FE0
0FE0
0FE0
0FE0
0FE0
0FE0
0FE0
0FE0
0FE0
0FE0
0FE0
0FE0
0FE0
0FE0
0FE0
0FE0
0FE0
0FE0
0FE0
0FE0
0FE0
1FF0
1FF0
FFFE
FFFE
FFFE
ENDCHAR
STARTCHAR 020B
ENCODING 523
SWIDTH 340 0
DWIDTH 17 0
BBX 17 36 0 0
BITMAP
008000
0FF800
1FFC00
3FFE00
7FFF00
7C3F00
781F00
700F80
F00780
F00700
000000
000000
000000
007000
3FF000
3FF800
3FF800
0FF800
07F800
07F800
07F800
07F800
07F800
07F800
07F800
07F800
07F800
07F800
07F800
07F800
07F800
07F800
0FFC00
3FFF00
3FFF00
3FFF00
ENDCHAR
STARTCHAR 020C
ENCODING 524
SWIDTH 740 0
DWIDTH 37 0
BBX 34 43 2 0
BITMAP
01F1F80000
03F1F80000
01F8FC0000
00F87C0000
007C3E0000
003C1E0000
001E0F0000
0000000000
0000000000
001FFC0000
007FFF8000
01FFFFE000
03F81FF000
0FE007F800
0FC003FC00
1FC003FE00
3F8001FE00
3F8000FF00
7F0000FF00
7F00007F80
FF00007F80
FF00007F80
FF00007F80
FF00007F80
FF00003FC0
FF00003FC0
FF00003FC0
FF00003FC0
FF00003F80
FF00003F80
FF00007F80
FF00007F80
7F80007F00
7F80007F00
3F8000FF00
3FC000FE00
1FE000FC00
1FE001FC00
0FF003F800
07FC0FF000
01FFFFE000
00FFFF8000
003FFE0000
ENDCHAR
STARTCHAR 020D
ENCODING 525
SWIDTH 560 0
DWIDTH 28 0
BBX 25 36 2 0
BITMAP
0F078000
3F1F8000
1F0FC000
0F87C000
0F87C000
07C3E000
03C1E000
01E0F000
01E0F000
00000000
00000000
00000000
00000000
01FFC000
07FFF000
0FFFF800
1F83FC00
3F01FE00
7F00FF00
7F00FF00
FE007F00
FE007F80
FE007F80
FE007F80
FE007F80
FE007F80
FE007F80
FF007F00
FF007F00
FF007F00
7F807E00
7F80FE00
3FC1FC00
1FFFF800
0FFFF000
01FFC000
ENDCHAR
STARTCHAR 020E
ENCODING 526
SWIDTH 740 0
DWIDTH 37 0
BBX 34 44 2 0
BITMAP
0001E00000
001FFC0000
003FFE0000
007FFF0000
007FFF8000
00780F8000
00F0078000
0070070000
0000000000
0000000000
001FFC0000
007FFF8000
01FFFFE000
03F81FF000
0FE007F800
0FC003FC00
1FC003FE00
3F8001FE00
3F8000FF00
7F0000FF00
7F00007F80
FF00007F80
FF00007F80
FF00007F80
FF00007F80
FF00003FC0
FF00003FC0
FF00003FC0
FF00003FC0
FF00003F80
FF00003F80
FF00007F80
FF00007F80
7F80007F00
7F80007F00
3F8000FF00
3FC000FE00
1FE000FC00
1FE001FC00
0FF003F800
07FC0FF000
01FFFFE000
00FFFF8000
003FFE0000
ENDCHAR
STARTCHAR 020F
ENCODING 527
SWIDTH 560 0
DWIDTH 28 0
BBX 25 35 2 1
BITMAP
01FF8000
07FFE000
0FFFF000
0FFFF000
1F83F800
1E00F800
1E007800
1C007800
1C003800
00000000
00000000
00000000
01FFC000
07FFF000
0FFFF800
1F83FC00
3F01FE00
7F00FF00
7F00FF00
FE007F00
FE007F80
FE007F80
FE007F80
FE007F80
FE007F80
FE007F80
FF007F00
FF007F00
FF007F00
7F807E00
7F80FE00
3FC1FC00
1FFFF800
0FFFF000
01FFC000
ENDCHAR
STARTCHAR 0210
ENCODING 528
SWIDTH 700 0
DWIDTH 35 0
BBX 32 43 2 0
BITMAP
0F87C000
0FC7E000
07C3E000
03E1F000
01E0F000
01F0F800
00F07800
00000000
00000000
FFFFF800
FFFFFF00
FFFFFFC0
3FE07FE0
1FE01FE0
0FE00FF0
0FE00FF0
0FE007F0
0FE007F8
0FE007F8
0FE007F0
0FE007F0
0FE00FF0
0FE00FF0
0FE01FE0
0FE03FC0
0FE1FF80
0FFFFF00
0FFFFC00
0FFFFC00
0FE3FE00
0FE1FF00
0FE0FF00
0FE07F80
0FE07FC0
0FE03FC0
0FE03FE0
0FE01FE0
0FE01FF0
1FF00FF8
1FF00FFC
FFFC07FF
FFFC07FF
FFFC03FF
ENDCHAR
STARTCHAR 0211
ENCODING 529
SWIDTH 460 0
DWIDTH 23 0
BBX 21 36 2 0
BITMAP
3C1F00
FE3F00
7E3F00
3F1F80
1F0F80
0F0780
0F87C0
0783C0
03C1E0
000000
000000
000000
000000
01C1F0
FFC7F8
FFCFF8
FFDFF8
3FDFF0
1FFFF0
1FE0F0
1FE0F0
1FE0F0
1FE000
1FE000
1FE000
1FE000
1FE000
1FE000
1FE000
1FE000
1FE000
1FE000
3FF800
FFFF00
FFFF00
FFFF00
ENDCHAR
STARTCHAR 0212
ENCODING 530
SWIDTH 700 0
DWIDTH 35 0
BBX 32 44 2 0
BITMAP
000F0000
007FF000
00FFF800
01FFFC00
03FFFC00
03C07C00
03803C00
03801800
00000000
00000000
FFFFF800
FFFFFF00
FFFFFFC0
3FE07FE0
1FE01FE0
0FE00FF0
0FE00FF0
0FE007F0
0FE007F8
0FE007F8
0FE007F0
0FE007F0
0FE00FF0
0FE00FF0
0FE01FE0
0FE03FC0
0FE1FF80
0FFFFF00
0FFFFC00
0FFFFC00
0FE3FE00
0FE1FF00
0FE0FF00
0FE07F80
0FE07FC0
0FE03FC0
0FE03FE0
0FE01FE0
0FE01FF0
1FF00FF8
1FF00FFC
FFFC07FF
FFFC07FF
FFFC03FF
ENDCHAR
STARTCHAR 0213
ENCODING 531
SWIDTH 460 0
DWIDTH 23 0
BBX 21 36 2 0
BITMAP
002000
03FF00
0FFF80
1FFFC0
3FFFE0
3F0FE0
3C03F0
7801F0
7800F0
7000F0
000000
000000
000000
01C1F0
FFC7F8
FFCFF8
FFDFF8
3FDFF0
1FFFF0
1FE0F0
1FE0F0
1FE0F0
1FE000
1FE000
1FE000
1FE000
1FE000
1FE000
1FE000
1FE000
1FE000
1FE000
3FF800
FFFF00
FFFF00
FFFF00
ENDCHAR
STARTCHAR 0214
ENCODING 532
SWIDTH 680 0
DWIDTH 34 0
BBX 31 43 2 0
BITMAP
01F0F800
01F8FC00
00F87C00
007C3E00
003C1E00
003E1F00
001E0F00
00000000
00000000
FFFC0FFE
FFFC0FFC
FFFC0FFC
7FF003F8
1FE001F0
1FE000E0
1FC000E0
1FC000E0
1FC000E0
1FC000E0
1FC000E0
1FC000E0
1FC000E0
1FC000E0
1FC000E0
1FC000E0
1FC000E0
1FC000E0
1FC000E0
1FC000E0
1FC000E0
1FC000E0
1FC000E0
1FE000E0
1FE000E0
1FE000E0
1FE001E0
0FE001E0
0FF001C0
0FF803C0
07FC0F80
03FFFF00
01FFFE00
007FFC00
ENDCHAR
STARTCHAR 0215
ENCODING 533
SWIDTH 600 0
DWIDTH 30 0
BBX 28 36 1 0
BITMAP
07C1E000
0FC7E000
0FC3E000
07E1F000
03E1F000
01F0F800
00F07800
00F07C00
00783C00
00000000
00000000
00000000
00000000
03C00780
FFC1FF80
FFC1FF80
FFC3FF80
3FC07F80
1FC03F80
1FC03F80
1FC03F80
1FC03F80
1FC03F80
1FC03F80
1FC03F80
1FC03F80
1FC03F80
1FC03F80
1FC03F80
1FC03F80
1FE03FC0
1FF03FE0
0FFEFFF0
0FFFFFF0
07FFBFF0
03FE3C00
ENDCHAR
STARTCHAR 0216
ENCODING 534
SWIDTH 680 0
DWIDTH 34 0
BBX 31 44 2 0
BITMAP
0001E000
000FFE00
001FFF00
003FFF80
007FFF80
00780F80
00700780
00700380
00000000
00000000
FFFC0FFE
FFFC0FFC
FFFC0FFC
7FF003F8
1FE001F0
1FE000E0
1FC000E0
1FC000E0
1FC000E0
1FC000E0
1FC000E0
1FC000E0
1FC000E0
1FC000E0
1FC000E0
1FC000E0
1FC000E0
1FC000E0
1FC000E0
1FC000E0
1FC000E0
1FC000E0
1FC000E0
1FE000E0
1FE000E0
1FE000E0
1FE001E0
0FE001E0
0FF001C0
0FF803C0
07FC0F80
03FFFF00
01FFFE00
007FFC00
ENDCHAR
STARTCHAR 0217
ENCODING 535
SWIDTH 600 0
DWIDTH 30 0
BBX 28 35 1 1
BITMAP
007FE000
01FFF800
03FFFC00
03FFFC00
07E0FE00
07803E00
07001E00
07001E00
07000E00
00000000
00000000
00000000
03C00780
FFC1FF80
FFC1FF80
FFC3FF80
3FC07F80
1FC03F80
1FC03F80
1FC03F80
1FC03F80
1FC03F80
1FC03F80
1FC03F80
1FC03F80
1FC03F80
1FC03F80
1FC03F80
1FC03F80
1FE03FC0
1FF03FE0
0FFEFFF0
0FFFFFF0
07FFBFF0
03FE3C00
ENDCHAR
STARTCHAR 0218
ENCODING 536
SWIDTH 540 0
DWIDTH 27 0
BBX 24 49 2 -15
BITMAP
01FFC0
07FFF8
0FFFFC
1F83FC
3F00FC
3E00FC
7E007C
7E007C
7F007C
7F0078
7F8000
7FE000
7FF000
3FFE00
3FFF80
1FFFC0
0FFFF0
07FFF8
03FFFC
00FFFE
003FFE
000FFF
0003FF
3800FF
7C007F
7C007F
7C007F
7C007F
7E007E
7E00FE
7F01FC
FFFFF8
3FFFF0
07FFC0
000000
000000
000600
007F00
00FF00
00FF00
00FF00
00FF00
001F00
001E00
001E00
003C00
007C00
00F800
006000
ENDCHAR
STARTCHAR 0219
ENCODING 537
SWIDTH 460 0
DWIDTH 23 0
BBX 19 38 2 -15
BITMAP
0FFF00
1FFF80
7FFF80
7E0F80
FE0780
FE07C0
FE03C0
FF8000
FFE000
7FF800
3FFE00
1FFF80
0FFFC0
01FFE0
007FE0
F01FE0
F00FE0
F80FE0
F80FE0
FC1FE0
FFFFC0
FFFF80
3FFE00
000000
000000
003000
03F800
07F800
07F800
07F800
07F800
00F800
00F000
00F000
01E000
03E000
07C000
030000
ENDCHAR
STARTCHAR 021A
ENCODING 538
SWIDTH 640 0
DWIDTH 32 0
BBX 30 49 1 -15
BITMAP
7FFFFFFC
7FFFFFFC
7FFFFFFC
7F8FE1FC
7C0FE07C
780FE07C
780FE03C
F80FE03C
F00FE03C
000FE000
000FE000
000FE000
000FE000
000FE000
000FE000
000FE000
000FE000
000FE000
000FE000
000FE000
000FE000
000FE000
000FE000
000FE000
000FE000
000FE000
000FE000
000FE000
001FE000
001FF000
003FF800
01FFFF00
01FFFF00
01FFFF00
00000000
00000000
0000C000
000FE000
001FE000
001FE000
001FE000
001FE000
0007E000
0003C000
0003C000
00078000
000F0000
001E0000
000C0000
ENDCHAR
STARTCHAR 021B
ENCODING 539
SWIDTH 360 0
DWIDTH 18 0
BBX 17 46 1 -15
BITMAP
00C000
01C000
1FC000
1FC000
1FC000
1FC000
1FC000
1FC000
1FC000
FFFF00
FFFF00
FFFF00
1FC000
1FC000
1FC000
1FC000
1FC000
1FC000
1FC000
1FC000
1FC000
1FC000
1FC000
1FC000
1FC000
1FE000
0FE000
0FF100
0FFF80
07FF80
03FE00
000000
000000
001800
03F800
03FC00
03FC00
03FC00
03FC00
00F800
00F800
00F800
00F000
01E000
03C000
018000
ENDCHAR
STARTCHAR 021C
ENCODING 540
SWIDTH 560 0
DWIDTH 28 0
BBX 25 43 2 -9
BITMAP
0FFF8000
7FFFE000
7FFFF800
7E07FC00
7C03FC00
7C01FE00
7801FE00
7801FE00
7801FE00
1801FE00
0001FE00
0001FE00
0001FC00
0003F800
0003F800
0007E000
001FC000
007F0000
01FC0000
07FFE000
07FFF800
07FFFC00
0003FE00
0001FF00
0000FF00
0000FF00
00007F80
00007F80
00007F80
00007F80
00007F80
00007F80
0000FF00
0000FF00
0000FF00
0001FE00
0003FC00
0007F800
601FF000
FFFFE000
7FFFC000
1FFE0000
00A00000
ENDCHAR
STARTCHAR 021D
ENCODING 541
SWIDTH 500 0
DWIDTH 25 0
BBX 21 35 2 -12
BITMAP
0FFF00
7FFFC0
7FFFE0
7C0FF0
7C07F0
7807F0
7807F8
7807F8
7807F0
3007F0
0007F0
000FE0
000FC0
003F80
00FF00
03F800
0FFF00
0FFFC0
07FFF0
001FF0
0007F8
0007F8
0003F8
0003F8
0003F8
0003F8
0003F8
0003F8
0007F8
0007F0
000FF0
E03FE0
FFFFC0
7FFF00
3FFC00
ENDCHAR
STARTCHAR 021E
ENCODING 542
SWIDTH 760 0
DWIDTH 38 0
BBX 35 44 2 0
BITMAP
0038038000
007E0FC000
007FBF8000
001FFE0000
000FFC0000
0007F80000
0003E00000
0001000000
0000000000
0000000000
FFFE0FFFE0
FFFE0FFFE0
FFFE0FFFE0
3FF803FF80
1FF001FF00
0FE001FE00
0FE000FE00
0FE000FE00
0FE000FE00
0FE000FE00
0FE000FE00
0FE000FE00
0FE000FE00
0FE000FE00
0FE000FE00
0FFFFFFE00
0FFFFFFE00
0FFFFFFE00
0FF000FE00
0FE000FE00
0FE000FE00
0FE000FE00
0FE000FE00
0FE000FE00
0FE000FE00
0FE000FE00
0FE000FE00
0FE000FE00
0FE000FE00
1FF001FF00
1FF001FF00
FFFE0FFFE0
FFFE0FFFE0
FFFE0FFFE0
ENDCHAR
STARTCHAR 021F
ENCODING 543
SWIDTH 640 0
DWIDTH 32 0
BBX 30 44 1 0
BITMAP
03C01C00
07F07C00
03FDF800
01FFF000
007FE000
003F8000
001F0000
00080000
00400000
0FE00000
7FE00000
FFE00000
FFE00000
1FE00000
0FE00000
0FE00000
0FE00000
0FE00000
0FE00000
0FE00000
0FE00000
0FE0FE00
0FE3FF00
0FEFFF80
0FFFFFC0
0FFEFFC0
0FE01FE0
0FE01FE0
0FE00FE0
0FE00FE0
0FE00FE0
0FE00FE0
0FE00FE0
0FE00FE0
0FE00FE0
0FE00FE0
0FE00FE0
0FE00FE0
0FE00FE0
0FF01FE0
1FF01FF0
7FFC7FFC
FFFC7FFC
FFFC7FFC
ENDCHAR
STARTCHAR 0228
ENCODING 552
SWIDTH 620 0
DWIDTH 31 0
BBX 28 46 2 -12
BITMAP
FFFFFF80
FFFFFF80
FFFFFF80
3FE03F80
1FE00F80
0FE007C0
0FE003C0
0FE003C0
0FE003C0
0FE00000
0FE00000
0FE01800
0FE03800
0FE07800
0FE07800
0FE3F800
0FFFF800
0FFFF800
0FFFF800
0FE07800
0FE07800
0FE03800
0FE03800
0FE00000
0FE00080
0FE000E0
0FE001F0
0FE001E0
0FF003E0
1FF007E0
1FF81FE0
FFFFFFE0
FFFFFFC0
FFFFFFC0
000E0000
001C0000
001E0000
003F8000
003FC000
000FC000
0003C000
0003C000
0003C000
00078000
003F0000
003E0000
ENDCHAR
STARTCHAR 0229
ENCODING 553
SWIDTH 500 0
DWIDTH 25 0
BBX 22 35 2 -12
BITMAP
01FF00
07FFC0
1FFFE0
3F87F0
3F03F0
7F03F8
7E01F8
FE01F8
FE01FC
FE01FC
FFFFFC
FFFFF8
FFFFF8
FE0000
FE0000
FF0000
FF0000
7F8000
7FC018
3FF0FC
1FFFF8
0FFFE0
03FF80
003800
007000
00F800
00FC00
00FE00
003F00
000F00
000F00
000F00
003E00
00FC00
00F000
ENDCHAR
STARTCHAR 022A
ENCODING 554
SWIDTH 740 0
DWIDTH 37 0
BBX 34 50 2 0
BITMAP
00FFFFC000
01FFFFC000
01FFFFC000
01E0000000
0000000000
0000000000
0000000000
00FC0F8000
00FC1FC000
01FE3FC000
01FE3FC000
01FE1FC000
00FC1F8000
0078070000
0000000000
0000000000
001FFC0000
007FFF8000
01FFFFE000
03F81FF000
0FE007F800
0FC003FC00
1FC003FE00
3F8001FE00
3F8000FF00
7F0000FF00
7F00007F80
FF00007F80
FF00007F80
FF00007F80
FF00007F80
FF00003FC0
FF00003FC0
FF00003FC0
FF00003FC0
FF00003F80
FF00003F80
FF00007F80
FF00007F80
7F80007F00
7F80007F00
3F8000FF00
3FC000FE00
1FE000FC00
1FE001FC00
0FF003F800
07FC0FF000
01FFFFE000
00FFFF8000
003FFE0000
ENDCHAR
STARTCHAR 022B
ENCODING 555
SWIDTH 560 0
DWIDTH 28 0
BBX 25 39 2 0
BITMAP
1FFFFC00
1FFFF800
1FFFF800
00000000
00000000
00000000
00000000
0F81F000
1FC3F800
1FC3FC00
1FC3FC00
1FC3F800
1F81F800
0200E000
00000000
00000000
01FFC000
07FFF000
0FFFF800
1F83FC00
3F01FE00
7F00FF00
7F00FF00
FE007F00
FE007F80
FE007F80
FE007F80
FE007F80
FE007F80
FE007F80
FF007F00
FF007F00
FF007F00
7F807E00
7F80FE00
3FC1FC00
1FFFF800
0FFFF000
01FFC000
ENDCHAR
STARTCHAR 022C
ENCODING 556
SWIDTH 740 0
DWIDTH 37 0
BBX 34 50 2 0
BITMAP
01FFFFC000
01FFFFC000
01FFFFC000
0000000000
0000000000
0000000000
0000000000
003F818000
007FF7C000
00FFFF8000
01FFFF0000
00C1FE0000
00807C0000
0000000000
0000000000
0000000000
001FFC0000
007FFF8000
01FFFFE000
03F81FF000
0FE007F800
0FC003FC00
1FC003FE00
3F8001FE00
3F8000FF00
7F0000FF00
7F00007F80
FF00007F80
FF00007F80
FF00007F80
FF00007F80
FF00003FC0
FF00003FC0
FF00003FC0
FF00003FC0
FF00003F80
FF00003F80
FF00007F80
FF00007F80
7F80007F00
7F80007F00
3F8000FF00
3FC000FE00
1FE000FC00
1FE001FC00
0FF003F800
07FC0FF000
01FFFFE000
00FFFF8000
003FFE0000
ENDCHAR
STARTCHAR 022D
ENCODING 557
SWIDTH 560 0
DWIDTH 28 0
BBX 25 39 2 0
BITMAP
1FFFFC00
1FFFF800
1FFFF800
00000000
00000000
00000000
00000000
03F83800
0FFFF800
1FFFF800
1FFFF000
183FE000
00078000
00000000
00000000
00000000
01FFC000
07FFF000
0FFFF800
1F83FC00
3F01FE00
7F00FF00
7F00FF00
FE007F00
FE007F80
FE007F80
FE007F80
FE007F80
FE007F80
FE007F80
FF007F00
FF007F00
FF007F00
7F807E00
7F80FE00
3FC1FC00
1FFFF800
0FFFF000
01FFC000
ENDCHAR
STARTCHAR 0230
ENCODING 560
SWIDTH 740 0
DWIDTH 37 0
BBX 34 48 2 0
BITMAP
01FFFFC000
01FFFFC000
01FFFFC000
0000000000
0000000000
0003E00000
0007F00000
0007F80000
000FF80000
000FF80000
0007F00000
0003E00000
0000000000
0000000000
001FFC0000
007FFF8000
01FFFFE000
03F81FF000
0FE007F800
0FC003FC00
1FC003FE00
3F8001FE00
3F8000FF00
7F0000FF00
7F00007F80
FF00007F80
FF00007F80
FF00007F80
FF00007F80
FF00003FC0
FF00003FC0
FF00003FC0
FF00003FC0
FF00003F80
FF00003F80
FF00007F80
FF00007F80
7F80007F00
7F80007F00
3F8000FF00
3FC000FE00
1FE000FC00
1FE001FC00
0FF003F800
07FC0FF000
01FFFFE000
00FFFF8000
003FFE0000
ENDCHAR
STARTCHAR 0231
ENCODING 561
SWIDTH 560 0
DWIDTH 28 0
BBX 25 37 2 0
BITMAP
1FFFF800
1FFFF800
1FFF8000
00000000
00000000
007E0000
00FF0000
00FF0000
00FF0000
00FF0000
00FF0000
003C0000
00000000
00000000
01FFC000
07FFF000
0FFFF800
1F83FC00
3F01FE00
7F00FF00
7F00FF00
FE007F00
FE007F80
FE007F80
FE007F80
FE007F80
FE007F80
FE007F80
FF007F00
FF007F00
FF007F00
7F807E00
7F80FE00
3FC1FC00
1FFFF800
0FFFF000
01FFC000
ENDCHAR
STARTCHAR 0232
ENCODING 562
SWIDTH 620 0
DWIDTH 31 0
BBX 30 41 1 0
BITMAP
00FFFFE0
00FFFFC0
00FFFFC0
00000000
00000000
00000000
00000000
FFFC0FFC
FFFC0FFC
FFFC0FFC
3FF003F0
1FF001E0
1FF001C0
0FF803C0
0FF80380
07F80780
07FC0700
03FC0700
03FE0E00
01FE0E00
01FF1E00
00FF1C00
00FFBC00
007FB800
007FB800
003FF000
003FF000
001FE000
001FE000
001FE000
001FE000
001FE000
001FE000
001FE000
001FE000
001FE000
001FE000
003FF000
03FFFE00
03FFFF00
03FFFF00
ENDCHAR
STARTCHAR 0233
ENCODING 563
SWIDTH 560 0
DWIDTH 28 0
BBX 26 44 1 -12
BITMAP
03FFFF00
03FFFF00
03FFFF00
00000000
00000000
00000000
00000000
00000000
00000000
FFFC7FC0
FFFC7FC0
FFFC7FC0
7FF01F80
3FE01F00
1FE01E00
0FE01E00
0FF01C00
0FF03C00
07F83800
07F83800
03FC7800
03FC7000
01FEF000
01FEE000
00FEE000
00FFC000
007FC000
007FC000
003F8000
003F8000
003F0000
001F0000
001F0000
000E0000
001E0000
001C0000
003C0000
00780000
7BF80000
7FF00000
7FF00000
7FE00000
7FC00000
3F800000
ENDCHAR
STARTCHAR 0237
ENCODING 567
SWIDTH 300 0
DWIDTH 15 0
BBX 11 35 1 -12
BITMAP
01E0
7FE0
7FE0
7FE0
1FE0
0FE0
0FE0
0FE0
0FE0
0FE0
0FE0
0FE0
0FE0
0FE0
0FE0
0FE0
0FE0
0FE0
0FE0
0FE0
0FE0
0FE0
0FE0
0FE0
0FE0
0FC0
0FC0
1FC0
1F80
3F00
3F00
7E00
FC00
F000
E000
ENDCHAR
STARTCHAR 0258
ENCODING 600
SWIDTH 500 0
DWIDTH 25 0
BBX 22 23 2 0
BITMAP
03FE00
0FFF80
3FFFC0
3F0FE0
7E07F0
FE07F0
FC03F8
FC03F8
FC03F8
FE03F8
FFFFFC
FFFFFC
7FFFFC
0003F8
0003F8
0003F8
7003F8
F807F0
F807F0
FE0FE0
FFFFC0
FFFF80
3FFE00
ENDCHAR
STARTCHAR 0259
ENCODING 601
SWIDTH 500 0
DWIDTH 25 0
BBX 22 23 2 0
BITMAP
0FFE00
3FFF80
7FFFC0
FE7FE0
E01FF0
4007F8
0007F8
0003F8
0003FC
0003FC
7FFFFC
FFFFFC
FFFFFC
FE01FC
FE03F8
FE03F8
FE03F8
7E03F0
7F07F0
3F07E0
3FFFC0
1FFF80
07FE00
ENDCHAR
STARTCHAR 0272
ENCODING 626
SWIDTH 640 0
DWIDTH 32 0
BBX 30 35 1 -12
BITMAP
01E0FE00
7FE3FF80
7FE7FFC0
7FEFFFC0
1FFF7FE0
0FFC1FE0
0FF80FE0
0FF00FE0
0FF00FE0
0FF00FE0
0FF00FE0
0FE00FE0
0FE00FE0
0FE00FE0
0FE00FE0
0FE00FE0
0FE00FE0
0FE00FE0
0FE00FF0
0FE01FF0
0FE07FFC
0FE07FFC
0FE07FFC
0FE00000
0FE00000
0FC00000
0FC00000
1FC00000
1F800000
3F000000
3F000000
7E000000
FC000000
F8000000
E0000000
ENDCHAR
STARTCHAR 0292
ENCODING 658
SWIDTH 500 0
DWIDTH 25 0
BBX 22 35 2 -12
BITMAP
7FFFF8
7FFFF8
7FFFF8
7E07F8
7C0FF0
781FF0
781FE0
783FC0
003FC0
007F80
007F80
00FF00
01FE00
01FE00
03FC00
07FF00
07FFC0
07FFE0
037FF0
000FF8
0003FC
0003FC
0003FC
0001FC
0001FC
0001FC
0001FC
F003FC
F803F8
F803F8
FC07F0
FE1FE0
FFFFC0
FFFF80
1FFE00
ENDCHAR
STARTCHAR 02B9
ENCODING 697
SWIDTH 280 0
DWIDTH 14 0
BBX 9 14 3 22
BITMAP
0100
1F80
1F00
1F00
1E00
3E00
3C00
3C00
7800
7800
7000
7000
E000
6000
ENDCHAR
STARTCHAR 02BA
ENCODING 698
SWIDTH 460 0
DWIDTH 23 0
BBX 18 14 3 22
BITMAP
0100C0
1F8FC0
1F0FC0
1F0F80
1E0F80
3E0F00
3C1F00
3C1E00
781E00
783C00
703C00
703800
E03800
603000
ENDCHAR
STARTCHAR 02BB
ENCODING 699
SWIDTH 280 0
DWIDTH 14 0
BBX 8 14 3 22
BITMAP
0E
1E
3C
38
78
78
F8
FC
FF
FF
FF
FF
FE
70
ENDCHAR
STARTCHAR 02BC
ENCODING 700
SWIDTH 280 0
DWIDTH 14 0
BBX 8 16 3 20
BITMAP
06
7F
7F
7F
FF
FF
3F
1F
1F
1E
1E
3C
3C
78
F0
20
ENDCHAR
STARTCHAR 02BE
ENCODING 702
SWIDTH 240 0
DWIDTH 12 0
BBX 9 14 2 22
BITMAP
F000
FC00
FE00
3F00
1F00
1F80
0F80
0F80
1F80
1F80
3F00
FE00
FC00
F000
ENDCHAR
STARTCHAR 02BF
ENCODING 703
SWIDTH 240 0
DWIDTH 12 0
BBX 9 14 2 22
BITMAP
0780
1F80
3F80
7E00
FC00
F800
F800
F800
FC00
FC00
7E00
7F80
1F80
0780
ENDCHAR
STARTCHAR 02C6
ENCODING 710
SWIDTH 300 0
DWIDTH 15 0
BBX 19 10 -2 26
BITMAP
006000
01F000
03F800
07FC00
0FFE00
1FFF00
3E1F80
FC0FC0
F003E0
600180
ENDCHAR
STARTCHAR 02C7
ENCODING 711
SWIDTH 300 0
DWIDTH 15 0
BBX 18 10 -2 26
BITMAP
200080
7001C0
FC07C0
7E0F80
3FBF00
1FFE00
0FFC00
07F800
03F000
01E000
ENDCHAR
STARTCHAR 02C8
ENCODING 712
SWIDTH 220 0
DWIDTH 11 0
BBX 5 14 3 21
BITMAP
F8
F8
F8
78
78
78
78
78
78
78
78
78
78
70
ENDCHAR
STARTCHAR 02C9
ENCODING 713
SWIDTH 480 0
DWIDTH 24 0
BBX 19 3 3 29
BITMAP
FFFFE0
FFFFE0
FFFFC0
ENDCHAR
STARTCHAR 02CA
ENCODING 714
SWIDTH 300 0
DWIDTH 15 0
BBX 9 10 8 26
BITMAP
1F80
3F00
3F00
3E00
7C00
7800
7800
F000
F000
2000
ENDCHAR
STARTCHAR 02CB
ENCODING 715
SWIDTH 300 0
DWIDTH 15 0
BBX 9 9 8 27
BITMAP
3C00
FC00
7E00
7E00
3E00
1F00
0F00
0780
0780
ENDCHAR
STARTCHAR 02CC
ENCODING 716
SWIDTH 220 0
DWIDTH 11 0
BBX 5 14 3 -9
BITMAP
F8
F8
F8
78
78
78
78
78
78
78
78
78
78
70
ENDCHAR
STARTCHAR 02D8
ENCODING 728
SWIDTH 300 0
DWIDTH 15 0
BBX 19 9 -2 27
BITMAP
F000E0
F001E0
F801E0
7E07C0
7FFFC0
7FFF80
3FFF80
0FFE00
03F800
ENDCHAR
STARTCHAR 02D9
ENCODING 729
SWIDTH 300 0
DWIDTH 15 0
BBX 9 7 3 26
BITMAP
3E00
7F00
FF80
FF80
FF00
7F00
3C00
ENDCHAR
STARTCHAR 02DA
ENCODING 730
SWIDTH 300 0
DWIDTH 15 0
BBX 12 10 1 26
BITMAP
0F80
3FE0
7DF0
78F0
78F0
F8F0
78F0
7FF0
3FE0
0F80
ENDCHAR
STARTCHAR 02DB
ENCODING 731
SWIDTH 300 0
DWIDTH 15 0
BBX 12 15 1 -13
BITMAP
0180
07C0
0F00
1E00
3E00
7C00
7C00
FC00
FE00
FFF0
FFF0
7FF0
7FE0
3F80
0600
ENDCHAR
STARTCHAR 02DC
ENCODING 732
SWIDTH 300 0
DWIDTH 15 0
BBX 19 7 -2 27
BITMAP
0F8000
3FE0E0
7FFFE0
FFFFC0
F3FF80
C07F00
001C00
ENDCHAR
STARTCHAR 02DD
ENCODING 733
SWIDTH 300 0
DWIDTH 15 0
BBX 19 9 -2 26
BITMAP
0FC7E0
1F8FC0
1F0F80
3E1F00
3E1F00
7C1E00
783C00
783C00
F07800
ENDCHAR
STARTCHAR 0300
ENCODING 768
SWIDTH 0 0
DWIDTH 0 0
BBX 9 9 3 27
BITMAP
3C00
FC00
7E00
3E00
3F00
1F00
0F00
0780
0780
ENDCHAR
STARTCHAR 0301
ENCODING 769
SWIDTH 0 0
DWIDTH 0 0
BBX 9 10 3 26
BITMAP
1F80
3F00
3F00
3E00
7C00
7800
7800
F000
F000
2000
ENDCHAR
STARTCHAR 0302
ENCODING 770
SWIDTH 0 0
DWIDTH 0 0
BBX 18 10 3 26
BITMAP
006000
01F000
03F800
07F800
0FFC00
3FFE00
7E3F00
F80F80
F007C0
C00380
ENDCHAR
STARTCHAR 0303
ENCODING 771
SWIDTH 0 0
DWIDTH 0 0
BBX 18 7 3 27
BITMAP
0F0000
3FC1C0
7FFFC0
FFFF80
F3FF80
C0FF00
001C00
ENDCHAR
STARTCHAR 0304
ENCODING 772
SWIDTH 0 0
DWIDTH 0 0
BBX 18 3 3 29
BITMAP
FFFFC0
FFFFC0
FFFFC0
ENDCHAR
STARTCHAR 0306
ENCODING 774
SWIDTH 0 0
DWIDTH 0 0
BBX 19 9 2 27
BITMAP
F000E0
7800E0
7C01E0
7E03E0
7FFFC0
3FFFC0
1FFF80
0FFF00
01F800
ENDCHAR
STARTCHAR 0307
ENCODING 775
SWIDTH 0 0
DWIDTH 0 0
BBX 9 7 2 26
BITMAP
3F00
7F80
7F80
FF80
7F80
7F00
1E00
ENDCHAR
STARTCHAR 0308
ENCODING 776
SWIDTH 0 0
DWIDTH 0 0
BBX 19 7 2 26
BITMAP
3C07C0
7F0FE0
7F0FE0
FF0FE0
7F0FE0
7F0FE0
3E07C0
ENDCHAR
STARTCHAR 0309
ENCODING 777
SWIDTH 0 0
DWIDTH 0 0
BBX 12 9 3 26
BITMAP
3FC0
FFF0
F1F0
F1F0
E3E0
0FC0
0F00
0F00
0F00
ENDCHAR
STARTCHAR 030A
ENCODING 778
SWIDTH 0 0
DWIDTH 0 0
BBX 12 10 2 26
BITMAP
0F80
3FE0
7DF0
78F0
78F0
F8F0
78F0
7FF0
3FE0
0F80
ENDCHAR
STARTCHAR 030B
ENCODING 779
SWIDTH 0 0
DWIDTH 0 0
BBX 18 10 3 26
BITMAP
1F8FC0
3F1F80
3F1F80
3E1F00
7C3E00
783E00
783C00
F07800
F07800
201000
ENDCHAR
STARTCHAR 030C
ENCODING 780
SWIDTH 0 0
DWIDTH 0 0
BBX 18 10 3 26
BITMAP
000100
E00380
F80FC0
FE1F00
3F7E00
1FFC00
0FF800
0FF000
07E000
03C000
ENDCHAR
STARTCHAR 030F
ENCODING 783
SWIDTH 0 0
DWIDTH 0 0
BBX 18 9 3 27
BITMAP
3C1E00
FC7E00
7E3F00
3E1F00
1E0F80
1F0F80
0F0780
0783C0
0783C0
ENDCHAR
STARTCHAR 0311
ENCODING 785
SWIDTH 0 0
DWIDTH 0 0
BBX 19 9 2 27
BITMAP
07FE00
1FFF80
3FFFC0
3FFFC0
7E0FE0
7803E0
7001E0
7001E0
F001E0
ENDCHAR
STARTCHAR 0312
ENCODING 786
SWIDTH 0 0
DWIDTH 0 0
BBX 9 11 2 25
BITMAP
0F00
1E00
3E00
3C00
7C00
7F00
7F80
FF00
7F00
7F00
2000
ENDCHAR
STARTCHAR 0313
ENCODING 787
SWIDTH 0 0
DWIDTH 0 0
BBX 8 11 3 25
BITMAP
0E
FE
FF
FF
FF
3E
3E
3C
7C
F8
60
ENDCHAR
STARTCHAR 031B
ENCODING 795
SWIDTH 0 0
DWIDTH 0 0
BBX 10 10 -4 19
BITMAP
0380
07C0
07C0
07C0
07C0
07C0
1F80
FF00
FE00
E000
ENDCHAR
STARTCHAR 0323
ENCODING 803
SWIDTH 0 0
DWIDTH 0 0
BBX 8 7 3 -11
BITMAP
7C
FE
FF
FF
FF
FE
7C
ENDCHAR
STARTCHAR 0324
ENCODING 804
SWIDTH 0 0
DWIDTH 0 0
BBX 19 7 2 -11
BITMAP
3C07C0
7F0FE0
7F0FE0
FF0FE0
7F0FE0
7F0FE0
3E07C0
ENDCHAR
STARTCHAR 0325
ENCODING 805
SWIDTH 0 0
DWIDTH 0 0
BBX 12 10 2 -12
BITMAP
0600
1FE0
3FF0
78F0
78F0
F8F0
78F0
7CF0
3FE0
1FC0
ENDCHAR
STARTCHAR 0326
ENCODING 806
SWIDTH 0 0
DWIDTH 0 0
BBX 8 13 3 -15
BITMAP
06
FE
FF
FF
FF
FF
3E
3E
3E
3C
78
F0
60
ENDCHAR
STARTCHAR 0327
ENCODING 807
SWIDTH 0 0
DWIDTH 0 0
BBX 8 13 3 -12
BITMAP
38
78
70
F0
FC
FE
3E
1F
1F
1E
3E
FC
F0
ENDCHAR
STARTCHAR 0328
ENCODING 808
SWIDTH 0 0
DWIDTH 0 0
BBX 12 15 2 -13
BITMAP
01C0
07E0
0F00
1E00
3E00
7C00
7C00
7C00
FE00
FFF0
7FF0
7FF0
3FF0
1F80
0200
ENDCHAR
STARTCHAR 032E
ENCODING 814
SWIDTH 0 0
DWIDTH 0 0
BBX 17 7 2 -9
BITMAP
F80380
780780
7E1F80
7FFF00
3FFF00
1FFE00
07F800
ENDCHAR
STARTCHAR 0331
ENCODING 817
SWIDTH 0 0
DWIDTH 0 0
BBX 18 3 3 -8
BITMAP
FFFFC0
FFFFC0
FFFFC0
ENDCHAR
STARTCHAR 0335
ENCODING 821
SWIDTH 0 0
DWIDTH 0 0
BBX 15 2 3 16
BITMAP
FFFE
FFFE
ENDCHAR
STARTCHAR 0336
ENCODING 822
SWIDTH 0 0
DWIDTH 0 0
BBX 31 3 3 11
BITMAP
FFFFFFFE
FFFFFFFE
FFFFFFFE
ENDCHAR
STARTCHAR 0337
ENCODING 823
SWIDTH 0 0
DWIDTH 0 0
BBX 22 13 3 10
BITMAP
000018
00007C
0001FC
0007F8
001FE0
007F80
01FE00
07F800
1FE000
7F8000
FE0000
F80000
600000
ENDCHAR
STARTCHAR 0338
ENCODING 824
SWIDTH 0 0
DWIDTH 0 0
BBX 22 13 3 10
BITMAP
000018
00007C
0001FC
0007F8
001FE0
007F80
01FE00
07F800
1FE000
7F8000
FE0000
F80000
600000
ENDCHAR
STARTCHAR 0374
ENCODING 884
SWIDTH 280 0
DWIDTH 14 0
BBX 9 14 3 22
BITMAP
0100
1F80
1F00
1F00
1E00
3E00
3C00
3C00
7800
7800
7000
7000
E000
6000
ENDCHAR
STARTCHAR 0375
ENCODING 885
SWIDTH 280 0
DWIDTH 14 0
BBX 8 14 3 -11
BITMAP
03
07
07
0F
0E
1E
1E
3E
3C
7C
7C
FC
F8
C0
ENDCHAR
STARTCHAR 037E
ENCODING 894
SWIDTH 280 0
DWIDTH 14 0
BBX 8 32 4 -9
BITMAP
7C
FE
FF
FF
FF
FE
7C
10
00
00
00
00
00
00
00
00
00
1E
FE
FF
FF
FF
FF
3E
3E
1E
3C
3C
78
78
F0
E0
ENDCHAR
STARTCHAR 0384
ENCODING 900
SWIDTH 300 0
DWIDTH 15 0
BBX 7 9 4 27
BITMAP
FE
FC
FC
FC
F8
F8
F0
F0
F0
ENDCHAR
STARTCHAR 0385
ENCODING 901
SWIDTH 300 0
DWIDTH 15 0
BBX 21 9 -3 26
BITMAP
00FC00
00FC00
10F840
7CF9F0
7EFBF0
FEF3F8
FEF3F0
7CF1F0
1860C0
ENDCHAR
STARTCHAR 0386
ENCODING 902
SWIDTH 700 0
DWIDTH 35 0
BBX 34 34 1 0
BITMAP
3F01C00000
3F03C00000
3F03E00000
3E07E00000
3E07F00000
3E07F00000
3C0FF80000
3C0FF80000
3C1FFC0000
381FFC0000
081DFC0000
0039FE0000
0039FE0000
0070FF0000
0070FF0000
00707F8000
00E07F8000
00E07FC000
01E03FC000
01C03FC000
03C01FE000
03801FE000
03FFFFF000
07FFFFF000
07FF8FF800
0F0007F800
0E0007FC00
0E0003FC00
1E0003FE00
1E0003FE00
3E0003FF00
FF800FFF80
FFC00FFFC0
FFC00FFFC0
ENDCHAR
STARTCHAR 0387
ENCODING 903
SWIDTH 280 0
DWIDTH 14 0
BBX 8 8 3 15
BITMAP
3E
7F
FF
FF
FF
FF
7E
1C
ENDCHAR
STARTCHAR 0388
ENCODING 904
SWIDTH 620 0
DWIDTH 31 0
BBX 37 34 -7 0
BITMAP
7E7FFFFFC0
7E7FFFFFC0
7C7FFFFFC0
7C1FF01FC0
7C0FF007C0
7807F003E0
7807F001E0
7807F001E0
F007F001E0
F007F00000
3007F00000
0007F00C00
0007F01C00
0007F03C00
0007F03C00
0007F1FC00
0007FFFC00
0007FFFC00
0007FFFC00
0007F03C00
0007F03C00
0007F01C00
0007F01C00
0007F00000
0007F00040
0007F00070
0007F000F8
0007F000F0
0007F801F0
000FF803F0
000FFC0FF0
007FFFFFF0
007FFFFFE0
007FFFFFE0
ENDCHAR
STARTCHAR 0389
ENCODING 905
SWIDTH 760 0
DWIDTH 38 0
BBX 44 34 -7 0
BITMAP
FE7FFF07FFF0
FC7FFF07FFF0
FC7FFF07FFF0
FC1FFC01FFC0
F80FF800FF80
F807F000FF00
F807F0007F00
F007F0007F00
F007F0007F00
F007F0007F00
3007F0007F00
0007F0007F00
0007F0007F00
0007F0007F00
0007F0007F00
0007FFFFFF00
0007FFFFFF00
0007FFFFFF00
0007F8007F00
0007F0007F00
0007F0007F00
0007F0007F00
0007F0007F00
0007F0007F00
0007F0007F00
0007F0007F00
0007F0007F00
0007F0007F00
0007F0007F00
000FF800FF80
000FF800FF80
007FFF07FFF0
007FFF07FFF0
007FFF07FFF0
ENDCHAR
STARTCHAR 038A
ENCODING 906
SWIDTH 380 0
DWIDTH 19 0
BBX 24 34 -7 0
BITMAP
FE7FFF
FC7FFF
FC7FFF
FC1FFC
F80FF8
F807F0
F807F0
F007F0
F007F0
F007F0
3007F0
0007F0
0007F0
0007F0
0007F0
0007F0
0007F0
0007F0
0007F0
0007F0
0007F0
0007F0
0007F0
0007F0
0007F0
0007F0
0007F0
0007F0
0007F0
000FF8
000FF8
007FFF
007FFF
007FFF
ENDCHAR
STARTCHAR 038C
ENCODING 908
SWIDTH 740 0
DWIDTH 37 0
BBX 40 34 -4 0
BITMAP
FC007FF000
FC01FFFE00
FC07FFFF80
F80FE07FC0
F83F801FE0
F83F000FF0
F07F000FF8
F0FE0007F8
F0FE0003FC
E1FC0003FC
21FC0001FE
03FC0001FE
03FC0001FE
03FC0001FE
03FC0001FE
03FC0000FF
03FC0000FF
03FC0000FF
03FC0000FF
03FC0000FE
03FC0000FE
03FC0001FE
03FC0001FE
01FE0001FC
01FE0001FC
00FE0003FC
00FF0003F8
007F8003F0
007F8007F0
003FC00FE0
001FF03FC0
0007FFFF80
0003FFFE00
0000FFF800
ENDCHAR
STARTCHAR 038E
ENCODING 910
SWIDTH 620 0
DWIDTH 31 0
BBX 39 34 -8 0
BITMAP
7E7FFE07FE
7E7FFE07FE
7C7FFE07FE
7C1FF801F8
7C0FF800F0
780FF800E0
7807FC01E0
7807FC01C0
F003FC03C0
F003FE0380
3001FE0380
0001FF0700
0000FF0700
0000FF8F00
00007F8E00
00007FDE00
00003FDC00
00003FDC00
00001FF800
00001FF800
00000FF000
00000FF000
00000FF000
00000FF000
00000FF000
00000FF000
00000FF000
00000FF000
00000FF000
00000FF000
00001FF800
0001FFFF00
0001FFFF80
0001FFFF80
ENDCHAR
STARTCHAR 038F
ENCODING 911
SWIDTH 840 0
DWIDTH 42 0
BBX 42 34 -2 0
BITMAP
FE007FF80000
FC01FFFE0000
FC07FFFF8000
FC1FF03FE000
F83FC00FF000
F87F8007F800
F8FF0003FC00
F0FF0003FC00
F1FE0001FE00
F1FE0001FE00
31FE0000FE00
03FC0000FF00
03FC0000FF00
03FC0000FF00
03FC0000FF00
03FC0000FF00
03FC0000FF00
01FC0000FF00
01FC0000FE00
01FC0000FE00
00FE0000FE00
00FE0001FC00
007E0001F800
007E0001F800
003F0003F000
070F8003E380
0F07800783C0
0781C00F07C0
07FFE01FFF80
07FFF03FFF80
07FFF83FFF80
07FFF03FFF80
07FFF03FFF80
07FFF03FFF80
ENDCHAR
STARTCHAR 0390
ENCODING 912
SWIDTH 340 0
DWIDTH 17 0
BBX 21 35 -1 0
BITMAP
00FC00
007C00
107840
7CF9F0
7EFBF0
FEF3F8
FEF3F8
7CF1F0
3860C0
000000
000000
000000
003800
1FF800
1FFC00
1FFC00
07FC00
03FC00
03FC00
03FC00
03FC00
03FC00
03FC00
03FC00
03FC00
03FC00
03FC00
03FC00
03FC00
03FC00
03FC00
01FC40
01FFC0
00FFC0
007F80
ENDCHAR
STARTCHAR 0391
ENCODING 913
SWIDTH 700 0
DWIDTH 35 0
BBX 34 34 1 0
BITMAP
0001C00000
0003C00000
0003E00000
0007E00000
0007F00000
0007F00000
000FF80000
000FF80000
001FFC0000
001FFC0000
001DFC0000
0039FE0000
0039FE0000
0070FF0000
0070FF0000
00707F8000
00E07F8000
00E07FC000
01E03FC000
01C03FC000
03C01FE000
03801FE000
03FFFFF000
07FFFFF000
07FF8FF800
0F0007F800
0E0007FC00
0E0003FC00
1E0003FE00
1E0003FE00
3E0003FF00
FF800FFF80
FFC00FFFC0
FFC00FFFC0
ENDCHAR
STARTCHAR 0392
ENCODING 914
SWIDTH 660 0
DWIDTH 33 0
BBX 29 34 2 0
BITMAP
FFFFF000
FFFFFF00
FFFFFF80
3FE0FFC0
1FE03FE0
0FE01FE0
0FE01FE0
0FE01FE0
0FE00FE0
0FE00FE0
0FE01FE0
0FE01FC0
0FE01FC0
0FE03F80
0FE0FE00
0FFFF000
0FFFFF00
0FFFFFC0
0FE07FE0
0FE01FF0
0FE00FF8
0FE00FF8
0FE007F8
0FE007F8
0FE007F8
0FE007F8
0FE007F8
0FE007F8
0FF00FF0
1FF01FF0
1FF83FE0
FFFFFFC0
FFFFFF00
FFFFF800
ENDCHAR
STARTCHAR 0393
ENCODING 915
SWIDTH 580 0
DWIDTH 29 0
BBX 26 34 2 0
BITMAP
FFFFFF80
FFFFFF80
FFFFFF80
3FE03F80
1FE00F80
0FE00780
0FE007C0
0FE003C0
0FE003C0
0FE00000
0FE00000
0FE00000
0FE00000
0FE00000
0FE00000
0FE00000
0FE00000
0FE00000
0FE00000
0FE00000
0FE00000
0FE00000
0FE00000
0FE00000
0FE00000
0FE00000
0FE00000
0FE00000
0FF00000
1FF00000
1FFC0000
FFFF0000
FFFF8000
FFFF8000
ENDCHAR
STARTCHAR 0394
ENCODING 916
SWIDTH 660 0
DWIDTH 33 0
BBX 31 34 1 0
BITMAP
00038000
0007C000
0007C000
0007E000
000FE000
000FF000
001FF000
001FF800
003FF800
003FFC00
007BFC00
0073FC00
00F1FE00
00E1FE00
01E0FF00
01C0FF00
01C0FF80
03807F80
03807FC0
07003FC0
07003FE0
0F001FE0
0E001FE0
1E000FF0
1C000FF0
3C0007F8
380007F8
380007FC
700003FC
700003FE
E00001FE
FFFFFFFE
FFFFFFFE
FFFFFFFE
ENDCHAR
STARTCHAR 0395
ENCODING 917
SWIDTH 620 0
DWIDTH 31 0
BBX 28 34 2 0
BITMAP
FFFFFF80
FFFFFF80
FFFFFF80
3FE03F80
1FE00F80
0FE007C0
0FE003C0
0FE003C0
0FE003C0
0FE00000
0FE00000
0FE01800
0FE03800
0FE07800
0FE07800
0FE3F800
0FFFF800
0FFFF800
0FFFF800
0FE07800
0FE07800
0FE03800
0FE03800
0FE00000
0FE00080
0FE000E0
0FE001F0
0FE001E0
0FF003E0
1FF007E0
1FF81FE0
FFFFFFE0
FFFFFFC0
FFFFFFC0
ENDCHAR
STARTCHAR 0396
ENCODING 918
SWIDTH 600 0
DWIDTH 30 0
BBX 26 34 2 0
BITMAP
3FFFFF80
3FFFFF80
3FFFFF80
3F80FF80
3E00FF00
3E01FF00
3C01FE00
3C03FE00
7C07FC00
3807FC00
000FF800
000FF800
001FF000
001FF000
003FE000
003FC000
007FC000
00FF8000
00FF8000
01FF0000
01FF0000
03FE0000
07FC0000
07FC0000
0FF80000
0FF803C0
1FF007C0
1FE007C0
3FE00780
7FC00F80
7FC03F80
FFFFFF80
FFFFFF80
7FFFFF80
ENDCHAR
STARTCHAR 0397
ENCODING 919
SWIDTH 760 0
DWIDTH 38 0
BBX 35 34 2 0
BITMAP
FFFE0FFFE0
FFFE0FFFE0
FFFE0FFFE0
3FF803FF80
1FF001FF00
0FE001FE00
0FE000FE00
0FE000FE00
0FE000FE00
0FE000FE00
0FE000FE00
0FE000FE00
0FE000FE00
0FE000FE00
0FE000FE00
0FFFFFFE00
0FFFFFFE00
0FFFFFFE00
0FF000FE00
0FE000FE00
0FE000FE00
0FE000FE00
0FE000FE00
0FE000FE00
0FE000FE00
0FE000FE00
0FE000FE00
0FE000FE00
0FE000FE00
1FF001FF00
1FF001FF00
FFFE0FFFE0
FFFE0FFFE0
FFFE0FFFE0
ENDCHAR
STARTCHAR 0398
ENCODING 920
SWIDTH 740 0
DWIDTH 37 0
BBX 34 34 2 0
BITMAP
001FFC0000
007FFF8000
01FFFFE000
03F81FF000
0FE007F800
0FC003FC00
1FC003FE00
3F8001FE00
3F8000FF00
7F0000FF00
7F00007F80
FF00007F80
FF00007F80
FF00007F80
FF00007F80
FF3FFF3FC0
FF3FFF3FC0
FF7FFF3FC0
FF00003FC0
FF00003F80
FF00003F80
FF00007F80
FF00007F80
7F80007F00
7F80007F00
3F8000FF00
3FC000FE00
1FE000FC00
1FE001FC00
0FF003F800
07FC0FF000
01FFFFE000
00FFFF8000
003FFE0000
ENDCHAR
STARTCHAR 0399
ENCODING 921
SWIDTH 380 0
DWIDTH 19 0
BBX 15 34 2 0
BITMAP
FFFE
FFFE
FFFE
3FF8
1FF0
0FE0
0FE0
0FE0
0FE0
0FE0
0FE0
0FE0
0FE0
0FE0
0FE0
0FE0
0FE0
0FE0
0FE0
0FE0
0FE0
0FE0
0FE0
0FE0
0FE0
0FE0
0FE0
0FE0
0FE0
1FF0
1FF0
FFFE
FFFE
FFFE
ENDCHAR
STARTCHAR 039A
ENCODING 922
SWIDTH 720 0
DWIDTH 36 0
BBX 33 34 2 0
BITMAP
FFFE0FFE00
FFFE0FFE00
FFFE0FFE00
3FF807F800
1FF007E000
0FE007C000
0FE00F8000
0FE01F0000
0FE03E0000
0FE07C0000
0FE0F80000
0FE1F00000
0FE3E00000
0FE7C00000
0FEFC00000
0FFFC00000
0FFFE00000
0FFFF00000
0FFFF80000
0FEFFC0000
0FE7FC0000
0FE3FE0000
0FE1FF0000
0FE0FF8000
0FE0FF8000
0FE07FC000
0FE03FE000
0FE03FE000
0FE01FF000
1FF00FF800
1FF00FFE00
FFFE07FF80
FFFE03FF80
FFFE03FF80
ENDCHAR
STARTCHAR 039B
ENCODING 923
SWIDTH 660 0
DWIDTH 33 0
BBX 32 34 1 0
BITMAP
00038000
0007C000
0007C000
0007C000
000FE000
000FE000
001FF000
001FF000
001FF800
003FF800
003FF800
0033FC00
0073FC00
0071FE00
00E1FE00
00E1FE00
00E0FF00
01C0FF00
01C0FF80
03C07F80
03807F80
03803FC0
07803FC0
07003FE0
07001FE0
0F001FF0
0E001FF0
1E000FF0
1E000FF8
3E000FF8
3E000FFC
FF803FFF
FF803FFF
FF803FFF
ENDCHAR
STARTCHAR 039C
ENCODING 924
SWIDTH 960 0
DWIDTH 48 0
BBX 46 34 1 0
BITMAP
3FF800007FF0
3FFC00007FF0
1FFC0000FFF0
07FE0000FFC0
03FE0000FF80
03FF0001FF80
03FF0001FF00
03FF8003FF00
03FF8003FF80
03FF8003FF80
03BFC007FF80
03BFC0077F80
03BFE00F7F80
079FE00E7F80
079FF00E3F80
078FF01E3F80
078FF01C3F80
0707F81C3F80
0707F8383FC0
0703FC383FC0
0703FC783FC0
0703FE703FC0
0701FE703FC0
0701FFE03FC0
0F00FFE01FC0
0F00FFE01FC0
0F007FC01FC0
0F007FC01FE0
0F003F801FE0
1F003F801FE0
3F803F803FF0
FFE01F00FFFC
FFE01F01FFFC
FFE00E01FFFC
ENDCHAR
STARTCHAR 039D
ENCODING 925
SWIDTH 720 0
DWIDTH 36 0
BBX 33 34 2 0
BITMAP
FFC003FF80
FFE003FF00
FFE003FF00
3FF000FE00
1FF8007C00
0FFC003C00
0FFC003800
0FFE003800
0FFF003800
0FFF803800
0EFF803800
0E7FC03800
0E7FE03800
0E3FF03800
0E1FF03800
0E0FF83800
0E0FFC3800
0E07FC3800
0E03FE3800
0E01FF3800
0E01FFB800
0E00FFB800
0E007FF800
0E003FF800
0E003FF800
0E001FF800
0E000FF800
0E0007F800
1E0007F800
1F0003F800
3F8001F800
FFE000F800
FFE000F800
FFE0007800
ENDCHAR
STARTCHAR 039E
ENCODING 926
SWIDTH 600 0
DWIDTH 30 0
BBX 28 34 1 0
BITMAP
3FFFFFE0
3FFFFFE0
3FFFFFE0
3FFFFFE0
3FFFFFE0
7F0007E0
7C0001E0
780001F0
780000F0
00000000
00000000
03800600
03800E00
03C01E00
03F07E00
03FFFE00
03FFFE00
03FFFE00
03FFFE00
03E03E00
03C01E00
03800E00
03000600
00000000
10000000
780000F0
F80000F0
7C0001F0
7E0007F0
7FFFFFF0
7FFFFFE0
7FFFFFE0
3FFFFFE0
3FFFFFE0
ENDCHAR
STARTCHAR 039F
ENCODING 927
SWIDTH 740 0
DWIDTH 37 0
BBX 34 34 2 0
BITMAP
001FFC0000
007FFF8000
01FFFFE000
03F81FF000
0FE007F800
0FC003FC00
1FC003FE00
3F8001FE00
3F8000FF00
7F0000FF00
7F00007F80
FF00007F80
FF00007F80
FF00007F80
FF00007F80
FF00003FC0
FF00003FC0
FF00003FC0
FF00003FC0
FF00003F80
FF00003F80
FF00007F80
FF00007F80
7F80007F00
7F80007F00
3F8000FF00
3FC000FE00
1FE000FC00
1FE001FC00
0FF003F800
07FC0FF000
01FFFFE000
00FFFF8000
003FFE0000
ENDCHAR
STARTCHAR 03A0
ENCODING 928
SWIDTH 760 0
DWIDTH 38 0
BBX 34 34 2 0
BITMAP
FFFFFFFFC0
FFFFFFFFC0
FFFFFFFFC0
3FE001FF00
1FE001FE00
0FE001FE00
0FE001FE00
0FE001FE00
0FE001FE00
0FE001FE00
0FE001FE00
0FE001FE00
0FE001FE00
0FE001FE00
0FE001FE00
0FE001FE00
0FE001FE00
0FE001FE00
0FE001FE00
0FE001FE00
0FE001FE00
0FE001FE00
0FE001FE00
0FE001FE00
0FE001FE00
0FE001FE00
0FE001FE00
0FE001FE00
0FE001FE00
1FF001FE00
1FF003FF00
FFFE0FFFC0
FFFE0FFFC0
FFFE1FFFC0
ENDCHAR
STARTCHAR 03A1
ENCODING 929
SWIDTH 620 0
DWIDTH 31 0
BBX 28 34 2 0
BITMAP
FFFFF000
FFFFFE00
FFFFFF80
3FF0FFC0
1FE03FE0
0FE01FE0
0FE01FF0
0FE00FF0
0FE00FF0
0FE00FF0
0FE00FF0
0FE00FF0
0FE00FF0
0FE00FF0
0FE00FF0
0FE00FE0
0FE01FE0
0FE01FC0
0FE07F80
0FE7FF00
0FE7FE00
0FE7F800
0FE00000
0FE00000
0FE00000
0FE00000
0FE00000
0FE00000
0FF00000
1FF00000
1FFC0000
FFFF0000
FFFF8000
FFFF8000
ENDCHAR
STARTCHAR 03A3
ENCODING 931
SWIDTH 600 0
DWIDTH 30 0
BBX 27 34 2 0
BITMAP
7FFFFF80
7FFFFF80
7FFFFF80
7FC03F80
3FC01F80
1FE00F80
1FF00780
0FF80780
07F807C0
07FC0380
03FE0000
01FF0000
00FF8000
00FF8000
007FC000
003FE000
001FE000
001FE000
003FE000
007FC000
00FF8000
01FF0000
01FF0000
03FE0000
07FC0100
0FF801E0
0FF001E0
1FF003E0
3FE003E0
7FC007E0
7F801FC0
FFFFFFC0
FFFFFFC0
FFFFFFC0
ENDCHAR
STARTCHAR 03A4
ENCODING 932
SWIDTH 640 0
DWIDTH 32 0
BBX 30 34 1 0
BITMAP
7FFFFFFC
7FFFFFFC
7FFFFFFC
7F8FE1FC
7C0FE07C
780FE07C
780FE03C
F80FE03C
F00FE03C
000FE000
000FE000
000FE000
000FE000
000FE000
000FE000
000FE000
000FE000
000FE000
000FE000
000FE000
000FE000
000FE000
000FE000
000FE000
000FE000
000FE000
000FE000
000FE000
001FE000
001FF000
003FF800
01FFFF00
01FFFF00
01FFFF00
ENDCHAR
STARTCHAR 03A5
ENCODING 933
SWIDTH 620 0
DWIDTH 31 0
BBX 30 34 1 0
BITMAP
FFFC0FFC
FFFC0FFC
FFFC0FFC
3FF003F0
1FF001E0
1FF001C0
0FF803C0
0FF80380
07F80780
07FC0700
03FC0700
03FE0E00
01FE0E00
01FF1E00
00FF1C00
00FFBC00
007FB800
007FB800
003FF000
003FF000
001FE000
001FE000
001FE000
001FE000
001FE000
001FE000
001FE000
001FE000
001FE000
001FE000
003FF000
03FFFE00
03FFFF00
03FFFF00
ENDCHAR
STARTCHAR 03A6
ENCODING 934
SWIDTH 760 0
DWIDTH 38 0
BBX 35 34 2 0
BITMAP
003FFF0000
003FFF0000
003FFF0000
000FFC0000
0007F80000
0003F80000
007FFFC000
03FFFFF800
0FFFFFFC00
1FF3FBFF00
3FC3F8FF80
7F83F87F80
7F03F83FC0
FF03F81FC0
FE03F81FC0
FE03F81FE0
FE03F81FE0
FE03F81FE0
FE03F81FE0
FF03F81FC0
FF03F81FC0
FF03F83FC0
7F83F83F80
3FC3F87F80
3FE3F9FF00
0FFFFFFE00
07FFFFF800
01FFFFE000
001FFE0000
0007F80000
0007FC0000
003FFF0000
003FFF0000
003FFF0000
ENDCHAR
STARTCHAR 03A7
ENCODING 935
SWIDTH 700 0
DWIDTH 35 0
BBX 31 34 2 0
BITMAP
FFFE0FFE
FFFE0FFE
FFFE0FFE
3FFC03F8
1FF803F0
0FF803E0
0FF803C0
07FC0780
03FE0700
03FE0F00
01FF1E00
00FF9E00
00FFBC00
007FF800
003FF800
003FF000
001FF000
000FF000
000FF800
001FFC00
003FFC00
007BFE00
0079FF00
00F1FF00
01E0FF80
01C0FF80
03C07FC0
07803FE0
0F803FE0
1F803FF0
7F803FFC
FFE0FFFE
FFE0FFFE
FFE0FFFE
ENDCHAR
STARTCHAR 03A8
ENCODING 936
SWIDTH 800 0
DWIDTH 40 0
BBX 39 34 1 0
BITMAP
0787FFE0FE
FFC7FFE1FE
FFC7FFE3FE
FFC1FF83F8
3FC0FF07F0
3FC0FF07F0
3FC0FF07F0
1FC0FF07F0
1FC0FF07F0
1FC0FF07F0
1FC0FF07F0
1FC0FF07F0
1FC0FF07F0
1FC0FF07F0
1FC0FF07E0
1FE0FF0FE0
0FE0FF0FE0
0FF0FF1FC0
07F8FF3FC0
03FFFFFF80
01FFFFFF00
007FFFFC00
0000FF0000
0000FF0000
0000FF0000
0000FF0000
0000FF0000
0000FF0000
0000FF0000
0001FF0000
0003FF8000
001FFFF000
001FFFF000
001FFFF000
ENDCHAR
STARTCHAR 03A9
ENCODING 937
SWIDTH 840 0
DWIDTH 42 0
BBX 38 34 2 0
BITMAP
0007FF8000
001FFFE000
007FFFF800
01FF03FE00
03FC00FF00
07F8007F80
0FF0003FC0
0FF0003FC0
1FE0001FE0
1FE0001FE0
1FE0000FE0
3FC0000FF0
3FC0000FF0
3FC0000FF0
3FC0000FF0
3FC0000FF0
3FC0000FF0
1FC0000FF0
1FC0000FE0
1FC0000FE0
0FE0000FE0
0FE0001FC0
07E0001F80
07E0001F80
03F0003F00
70F8003E38
F07800783C
781C00F07C
7FFE01FFF8
7FFF03FFF8
7FFF83FFF8
7FFF03FFF8
7FFF03FFF8
7FFF03FFF8
ENDCHAR
STARTCHAR 03AA
ENCODING 938
SWIDTH 380 0
DWIDTH 19 0
BBX 19 43 0 0
BITMAP
7E0FC0
FE0FE0
FF1FE0
FF1FE0
FE0FE0
7E0FC0
380380
000000
000000
3FFF80
3FFF80
3FFF80
0FFE00
07FC00
03F800
03F800
03F800
03F800
03F800
03F800
03F800
03F800
03F800
03F800
03F800
03F800
03F800
03F800
03F800
03F800
03F800
03F800
03F800
03F800
03F800
03F800
03F800
03F800
07FC00
07FC00
3FFF80
3FFF80
3FFF80
ENDCHAR
STARTCHAR 03AB
ENCODING 939
SWIDTH 620 0
DWIDTH 31 0
BBX 30 43 1 0
BITMAP
007C0F80
00FE1FC0
00FE1FE0
00FE1FE0
00FE1FC0
00FC0FC0
00380700
00000000
00000000
FFFC0FFC
FFFC0FFC
FFFC0FFC
3FF003F0
1FF001E0
1FF001C0
0FF803C0
0FF80380
07F80780
07FC0700
03FC0700
03FE0E00
01FE0E00
01FF1E00
00FF1C00
00FFBC00
007FB800
007FB800
003FF000
003FF000
001FE000
001FE000
001FE000
001FE000
001FE000
001FE000
001FE000
001FE000
001FE000
001FE000
003FF000
03FFFE00
03FFFF00
03FFFF00
ENDCHAR
STARTCHAR 03AC
ENCODING 940
SWIDTH 640 0
DWIDTH 32 0
BBX 30 36 2 0
BITMAP
001F8000
001F0000
001F0000
001F0000
003E0000
003E0000
003E0000
003C0000
003C0000
00000000
00000000
00000000
00000000
01FE0FF0
07FF0FF0
0FFF9FF0
1F83DFE0
3F01DFC0
7F01FF80
7F00FF80
FE00FF00
FE007F00
FE007F00
FE007F00
FE007E00
FE007E00
FE00FC00
FE00FC00
FF00FE00
FF01FE00
7F01FE00
7F83FF00
3FC7E788
3FFFC7F8
1FFF87FC
07FE03F8
ENDCHAR
STARTCHAR 03AD
ENCODING 941
SWIDTH 440 0
DWIDTH 22 0
BBX 18 36 2 0
BITMAP
00FE00
00FC00
00FC00
00F800
00F800
00F800
00F000
00F000
00F000
000000
000000
000000
000000
07FE00
1FFFC0
3FDF80
7F0780
7F0780
7F0380
7F0380
7F0000
3F8000
1FE000
01F800
1FFC00
3FF800
7F8000
FF0000
FE0000
FE0180
FE03C0
FE03C0
FF03C0
7FCFC0
3FFFC0
0FFF00
ENDCHAR
STARTCHAR 03AE
ENCODING 942
SWIDTH 620 0
DWIDTH 31 0
BBX 26 48 2 -12
BITMAP
000FE000
000FC000
000FC000
000F8000
000F8000
000F0000
000F0000
000F0000
000E0000
00000000
00000000
00000000
00000000
03C1F800
FFC7FE00
FFCFFF00
FFDFFF80
3FFEFF80
1FF83F80
1FF03FC0
1FE03FC0
1FE03FC0
1FE01FC0
1FE01FC0
1FC01FC0
1FC01FC0
1FC01FC0
1FC01FC0
1FC01FC0
1FC01FC0
1FC01FC0
1FC01FC0
1FC01FC0
1FC01FC0
1FC01FC0
1FC01FC0
00001FC0
00001FC0
00001FC0
00001FC0
00001FC0
00001FC0
00001FC0
00003FC0
00003FC0
00003F80
00003E00
00001800
ENDCHAR
STARTCHAR 03AF
ENCODING 943
SWIDTH 340 0
DWIDTH 17 0
BBX 15 36 2 0
BITMAP
03F0
03F0
03E0
03E0
03C0
07C0
07C0
0780
0780
0000
0000
0000
0000
01C0
FFC0
FFE0
FFE0
3FE0
1FE0
1FE0
1FE0
1FE0
1FE0
1FE0
1FE0
1FE0
1FE0
1FE0
1FE0
1FE0
1FE0
1FE0
0FE2
0FFE
07FE
03FC
ENDCHAR
STARTCHAR 03B0
ENCODING 944
SWIDTH 520 0
DWIDTH 26 0
BBX 24 35 1 0
BITMAP
003F00
003F00
063E10
1F3E7C
3FBEFC
3FBCFE
3FBCFC
1F3C7C
061830
000000
000000
000000
03C01C
FFC1FE
FFC1FE
FFC1FE
7FC0FE
3FC03F
1FC01F
1FC01F
1FC00F
1FC00F
1FC00F
1FC00E
1FC00E
1FC00E
1FC01E
1FC01E
1FC01C
1FE03C
1FF078
0FFFF0
0FFFF0
03FFC0
01FF00
ENDCHAR
STARTCHAR 03B1
ENCODING 945
SWIDTH 640 0
DWIDTH 32 0
BBX 30 23 2 0
BITMAP
01FE0FF0
07FF0FF0
0FFF9FF0
1F83DFE0
3F01DFC0
7F01FF80
7F00FF80
FE00FF00
FE007F00
FE007F00
FE007F00
FE007E00
FE007E00
FE00FC00
FE00FC00
FF00FE00
FF01FE00
7F01FE00
7F83FF00
3FC7E788
3FFFC7F8
1FFF87FC
07FE03F8
ENDCHAR
STARTCHAR 03B2
ENCODING 946
SWIDTH 560 0
DWIDTH 28 0
BBX 25 48 2 -12
BITMAP
003F8000
01FFF000
07FFF800
0FEFFC00
1F81FE00
3F80FE00
3F00FE00
7F00FF00
7F00FF00
7F00FF00
7F00FF00
7F00FE00
7F00FE00
7F01FC00
7F03FC00
7F07F000
7F3FC000
7F3FE000
7F3FFC00
7F07FE00
7F01FF00
7F00FF00
7F007F80
7F007F80
7F003F80
7F003F80
7F003F80
7F003F80
7F003F80
7F007F80
7F007F00
7F00FF00
7F81FE00
7FFFFC00
7FFFF800
7FFFE000
7F000000
7F000000
7F000000
7F000000
7F000000
7F000000
7F000000
7F000000
7F800000
7E000000
F8000000
60000000
ENDCHAR
STARTCHAR 03B3
ENCODING 947
SWIDTH 540 0
DWIDTH 27 0
BBX 26 35 1 -12
BITMAP
FF00FFC0
FFC0FFC0
FFE0FF80
1FF03F00
0FF01E00
0FF01C00
07F83C00
07F83800
03F83800
03FC7800
01FC7000
01FCF000
00FEE000
00FFE000
007FC000
007FC000
007F8000
003F8000
003F8000
001F8000
001F8000
001FC000
003FC000
003FC000
0077C000
0077C000
00E7E000
00E3E000
00C3E000
00C3E000
00C3E000
00C3E000
00E7C000
00FFC000
007F8000
ENDCHAR
STARTCHAR 03B4
ENCODING 948
SWIDTH 540 0
DWIDTH 27 0
BBX 24 36 2 0
BITMAP
003F00
01FFE0
03FFF0
07FFF0
0FFFF0
0FFFF0
0F8000
0F0000
0F8000
0F8000
0FE000
0FF000
07FC00
07FE00
03FF80
01FFE0
03FFF0
07FFF8
1FFFFC
3F8FFC
3F07FE
7F03FE
FE01FF
FE01FF
FE00FF
FE00FF
FE00FF
FE00FF
FE00FF
FF00FE
FF00FE
7F81FC
7FC3FC
3FFFF8
0FFFE0
03FF80
ENDCHAR
STARTCHAR 03B5
ENCODING 949
SWIDTH 440 0
DWIDTH 22 0
BBX 18 23 2 0
BITMAP
07FE00
1FFFC0
3FDF80
7F0780
7F0780
7F0380
7F0380
7F0000
3F8000
1FE000
01F800
1FFC00
3FF800
7F8000
FF0000
FE0000
FE0180
FE03C0
FE03C0
FF03C0
7FCFC0
3FFFC0
0FFF00
ENDCHAR
STARTCHAR 03B6
ENCODING 950
SWIDTH 460 0
DWIDTH 23 0
BBX 20 47 2 -11
BITMAP
7FFFF0
7FFFF0
FFFFF0
FFFFF0
FFFFF0
FFFFF0
F803E0
F00F80
F01F00
203E00
007C00
01F800
03F000
07F000
0FE000
0FC000
1FC000
3F8000
7F8000
7F0000
7F0000
FF0000
FF0000
FF0000
FF0000
FF0000
FF8000
FFC000
FFF000
7FFE00
7FFF80
3FFFE0
1FFFE0
07FFF0
01FFF0
001FF0
0007F0
0007F0
0007F0
0007F0
0007E0
000FE0
001FC0
003F80
007F00
007C00
007000
ENDCHAR
STARTCHAR 03B7
ENCODING 951
SWIDTH 620 0
DWIDTH 31 0
BBX 26 35 2 -12
BITMAP
03C1F800
FFC7FE00
FFCFFF00
FFDFFF80
3FFEFF80
1FF83F80
1FF03FC0
1FE03FC0
1FE03FC0
1FE01FC0
1FE01FC0
1FC01FC0
1FC01FC0
1FC01FC0
1FC01FC0
1FC01FC0
1FC01FC0
1FC01FC0
1FC01FC0
1FC01FC0
1FC01FC0
1FC01FC0
1FC01FC0
00001FC0
00001FC0
00001FC0
00001FC0
00001FC0
00001FC0
00001FC0
00003FC0
00003FC0
00003F80
00003E00
00001800
ENDCHAR
STARTCHAR 03B8
ENCODING 952
SWIDTH 560 0
DWIDTH 28 0
BBX 25 36 2 0
BITMAP
007F0000
01FFC000
07FFF000
0FE7F800
1FC3FC00
3F81FC00
3F80FE00
7F00FE00
7F00FF00
7F007F00
7F007F00
FF007F00
FE007F80
FE007F80
FE007F80
FE007F80
FFFFFF80
FFFFFF80
FFFFFF80
FFFFFF80
FE007F80
FE007F80
FE007F80
FF007F80
FF007F00
FF007F00
7F007F00
7F007F00
7F007E00
3F80FE00
3F80FC00
1FC1FC00
1FE1F800
0FFFF000
07FFE000
01FF8000
ENDCHAR
STARTCHAR 03B9
ENCODING 953
SWIDTH 340 0
DWIDTH 17 0
BBX 15 23 2 0
BITMAP
01C0
FFC0
FFE0
FFE0
3FE0
1FE0
1FE0
1FE0
1FE0
1FE0
1FE0
1FE0
1FE0
1FE0
1FE0
1FE0
1FE0
1FE0
1FE0
0FE2
0FFE
07FE
03FC
ENDCHAR
STARTCHAR 03BA
ENCODING 954
SWIDTH 600 0
DWIDTH 30 0
BBX 28 23 2 0
BITMAP
01C3FFC0
FFC1FFC0
FFE1FFC0
FFE0FE00
3FE0F800
1FE1F000
1FE3E000
1FE7C000
1FEF8000
1FFF8000
1FFFC000
1FFFE000
1FFFF000
1FEFF000
1FE7F800
1FE7FC00
1FE3FE00
1FE1FF00
1FE0FF00
1FE07FC0
1FE07FF0
1FE03FF0
1FE01FE0
ENDCHAR
STARTCHAR 03BB
ENCODING 955
SWIDTH 560 0
DWIDTH 28 0
BBX 27 36 1 0
BITMAP
07C00000
3FF00000
7FF80000
7FFC0000
01FC0000
01FE0000
01FE0000
00FE0000
00FE0000
00FF0000
007F0000
007F0000
007F8000
007F8000
00FF8000
00FFC000
00FFC000
01FFC000
01FFC000
03FFE000
03CFE000
03CFE000
07CFF000
07C7F000
07C7F000
0F87F800
0F87F800
1F83F800
1F83F800
1F83FC00
3F01FC00
3F01FC00
7F01FE20
FF00FFE0
FF00FFE0
FF003FC0
ENDCHAR
STARTCHAR 03BC
ENCODING 956
SWIDTH 620 0
DWIDTH 31 0
BBX 28 35 2 -12
BITMAP
03C00780
FFC1FF80
FFC3FF80
FFC3FF80
7FC07F80
1FC03F80
1FC03F80
1FC03F80
1FC03F80
1FC03F80
1FC03F80
1FC03F80
1FC03F80
1FC03F80
1FC03F80
1FC07F80
1FC07F80
1FE0FFC0
1FE0FFE0
1FFFDFF0
1FFFDFF0
1FFF1FF0
1FFE1E00
1F800000
1F800000
1F800000
1F800000
1F800000
1F800000
1F800000
1F800000
1FC00000
1F000000
3C000000
18000000
ENDCHAR
STARTCHAR 03BD
ENCODING 957
SWIDTH 500 0
DWIDTH 25 0
BBX 24 23 1 0
BITMAP
07000E
FF81FF
FF81FF
FFC1FF
3FC07F
1FE01E
1FE01E
0FE01E
0FF01E
07F03C
07F03C
07F838
03F878
03FCF0
01FCE0
01FDE0
01FFC0
00FF80
00FF80
00FF00
007E00
007C00
007C00
ENDCHAR
STARTCHAR 03BE
ENCODING 958
SWIDTH 440 0
DWIDTH 22 0
BBX 20 47 2 -11
BITMAP
7FFFF0
FFFFF0
FFFFF0
FFFFF0
FFFFF0
FC0FE0
F07F80
F1FE00
07F800
0FE000
1FC000
3FC000
3F8000
7F8000
7F8000
3F8000
3FC000
1FE000
0FFE00
07FF80
003F80
07FF00
1FE000
3F8000
7F0000
FF0000
FF0000
FF0000
FF0000
FFC000
FFFC00
7FFF00
7FFFC0
1FFFE0
07FFF0
00FFF0
001FF0
0007F0
0007F0
0007F0
0007E0
000FE0
001FC0
003F80
007F00
007C00
007000
ENDCHAR
STARTCHAR 03BF
ENCODING 959
SWIDTH 560 0
DWIDTH 28 0
BBX 25 23 2 0
BITMAP
01FFC000
07FFF000
0FFFF800
1F83FC00
3F01FE00
7F00FF00
7F00FF00
FE007F00
FE007F80
FE007F80
FE007F80
FE007F80
FE007F80
FE007F80
FF007F00
FF007F00
FF007F00
7F807E00
7F80FE00
3FC1FC00
1FFFF800
0FFFF000
01FFC000
ENDCHAR
STARTCHAR 03C0
ENCODING 960
SWIDTH 580 0
DWIDTH 29 0
BBX 26 26 2 0
BITMAP
00000100
000003C0
000003C0
07FFFFC0
1FFFFFC0
3FFFFF80
7FFFFF80
FFFFFF80
FFFFFF80
F3C3F800
43C3F800
03C3F800
03C3F800
03C3F800
03C3F800
03C3F800
07C3F800
0783F800
0783F800
0F83F800
0F83F800
1F83F800
3F81FC80
7F81FF80
7F01FF80
3F00FF00
ENDCHAR
STARTCHAR 03C1
ENCODING 961
SWIDTH 560 0
DWIDTH 28 0
BBX 24 35 2 -12
BITMAP
00FFC0
03FFF0
0FFFFC
1FC1FE
3F81FE
3F00FF
7F00FF
7F007F
FE007F
FE007F
FE007F
FE007F
FE007F
FE007F
FE007F
FE007E
FE00FE
FE00FC
FE01FC
FF03F8
FFFFF0
FFFFC0
FFFF00
FE0000
FE0000
FE0000
FE0000
FE0000
FE0000
FE0000
FF0000
FF0000
FC0000
F00000
C00000
ENDCHAR
STARTCHAR 03C2
ENCODING 962
SWIDTH 460 0
DWIDTH 23 0
BBX 20 35 2 -12
BITMAP
03FF80
0FFFE0
1FFFE0
3F87E0
7F03E0
7E03E0
FE01E0
FE01E0
FE0100
FE0000
FE0000
FE0000
FF0000
FF0000
FF8000
7FE000
7FF800
3FFC00
1FFF00
0FFFC0
03FFE0
01FFE0
007FF0
001FF0
000FF0
0007F0
0007F0
0007F0
000FE0
000FE0
001FC0
003F80
007F00
00FC00
007000
ENDCHAR
STARTCHAR 03C3
ENCODING 963
SWIDTH 640 0
DWIDTH 32 0
BBX 30 26 2 0
BITMAP
0000003C
00000038
00000078
00FFFFF8
07FFFFF8
0FFFFFF8
1FFFFFF8
3FC3FFF8
7F81FFF0
7F00FE00
FF007E00
FE007F00
FE007F00
FE007F80
FE007F80
FE007F80
FE007F80
FE007F80
FF007F00
FF007F00
7F007F00
7F80FE00
3FC1FC00
1FFFF800
0FFFF000
03FFC000
ENDCHAR
STARTCHAR 03C4
ENCODING 964
SWIDTH 360 0
DWIDTH 18 0
BBX 17 26 1 0
BITMAP
000300
000780
000780
1FFF80
3FFF80
7FFF80
7FFF80
FFFF80
FFFF00
E7F000
47F000
07F000
07F000
07F000
07F000
07F000
07F000
07F000
07F000
07F000
07F000
03F000
03F900
03FF00
01FF80
00FE00
ENDCHAR
STARTCHAR 03C5
ENCODING 965
SWIDTH 520 0
DWIDTH 26 0
BBX 24 23 1 0
BITMAP
03C01C
FFC1FE
FFC1FE
FFC1FE
7FC0FE
3FC03F
1FC01F
1FC01F
1FC00F
1FC00F
1FC00F
1FC00E
1FC00E
1FC00E
1FC01E
1FC01E
1FC01C
1FE03C
1FF078
0FFFF0
0FFFF0
03FFC0
01FF00
ENDCHAR
STARTCHAR 03C6
ENCODING 966
SWIDTH 780 0
DWIDTH 39 0
BBX 36 35 2 -12
BITMAP
00E00FFC00
03E03FFF00
07E07FFF80
1FC0FE3FC0
3F81FC1FC0
3F81FC0FE0
7F03FC0FE0
7F03F80FF0
FF03F80FF0
FE03F80FF0
FE03F80FF0
FE03F80FF0
FE03F80FF0
FE03F80FF0
FF03F80FE0
FF03F80FE0
7F03F81FE0
7F83F81FC0
3FC3F83F80
3FE3F87F00
0FFFFFFE00
07FFFFFC00
00FFFFF000
0003F80000
0003F80000
0003F80000
0003F80000
0003F80000
0003F80000
0003FC0000
0003FC0000
0003FC0000
0003F00000
0003C00000
0003000000
ENDCHAR
STARTCHAR 03C7
ENCODING 967
SWIDTH 540 0
DWIDTH 27 0
BBX 26 35 1 -13
BITMAP
03C1FFC0
FFC1FFC0
FFE0FF80
FFE03F00
3FF03E00
0FF03C00
07F83800
07F87800
03F87000
03FCF000
01FCF000
01FCE000
00FFE000
00FFC000
00FFC000
007F8000
007F8000
007F0000
007F8000
00FF8000
00FF8000
01FFC000
01DFC000
03DFE000
038FE000
078FE000
070FF000
0F07F000
0F07F800
1E07FC00
1E03FE00
3E03FFC0
FF81FFC0
FFC1FF80
FFC0F000
ENDCHAR
ENDFONT
